<?xml version="1.0" encoding="UTF-8" standalone="no"?>
<!DOCTYPE svg PUBLIC "-//W3C//DTD SVG 1.1//EN"
 "http://www.w3.org/Graphics/SVG/1.1/DTD/svg11.dtd">
<!-- Generated by graphviz version 2.43.0 (0)
 -->
<!-- Title: /home/amit/Projects/COLABFIT/colabfit&#45;kim&#45;model/colabfit&#45;descriptor&#45;library/Bispectrum/Bispectrum.hpp Pages: 1 -->
<svg width="458pt" height="170pt"
 viewBox="0.00 0.00 457.50 170.00" xmlns="http://www.w3.org/2000/svg" xmlns:xlink="http://www.w3.org/1999/xlink">
<g id="graph0" class="graph" transform="scale(1 1) rotate(0) translate(4 166)">
<title>/home/amit/Projects/COLABFIT/colabfit&#45;kim&#45;model/colabfit&#45;descriptor&#45;library/Bispectrum/Bispectrum.hpp</title>
<!-- Node1 -->
<g id="node1" class="node">
<title>Node1</title>
<g id="a_node1"><a xlink:title=" ">
<polygon fill="#999999" stroke="#666666" points="319,-162 149,-162 149,-110 319,-110 319,-162"/>
<text text-anchor="start" x="157" y="-150" font-family="Helvetica,sans-Serif" font-size="10.00">/home/amit/Projects</text>
<text text-anchor="start" x="157" y="-139" font-family="Helvetica,sans-Serif" font-size="10.00">/COLABFIT/colabfit&#45;kim</text>
<text text-anchor="start" x="157" y="-128" font-family="Helvetica,sans-Serif" font-size="10.00">&#45;model/colabfit&#45;descriptor</text>
<text text-anchor="middle" x="234" y="-117" font-family="Helvetica,sans-Serif" font-size="10.00">&#45;library/Bispectrum/Bispectrum.hpp</text>
</a>
</g>
</g>
<!-- Node2 -->
<g id="node2" class="node">
<title>Node2</title>
<g id="a_node2"><a xlink:href="helper_8hpp.html" target="_top" xlink:title=" ">
<polygon fill="white" stroke="#666666" points="202.5,-74 141.5,-74 141.5,-55 202.5,-55 202.5,-74"/>
<text text-anchor="middle" x="172" y="-62" font-family="Helvetica,sans-Serif" font-size="10.00">helper.hpp</text>
</a>
</g>
</g>
<!-- Node1&#45;&gt;Node2 -->
<g id="edge1" class="edge">
<title>Node1&#45;&gt;Node2</title>
<path fill="none" stroke="#63b8ff" d="M211.62,-109.91C203.29,-100.58 194.07,-90.24 186.61,-81.88"/>
<polygon fill="#63b8ff" stroke="#63b8ff" points="189.12,-79.43 179.85,-74.3 183.9,-84.09 189.12,-79.43"/>
</g>
<!-- Node6 -->
<g id="node6" class="node">
<title>Node6</title>
<g id="a_node6"><a xlink:title=" ">
<polygon fill="#e0e0e0" stroke="#999999" points="260,-19 216,-19 216,0 260,0 260,-19"/>
<text text-anchor="middle" x="238" y="-7" font-family="Helvetica,sans-Serif" font-size="10.00">vector</text>
</a>
</g>
</g>
<!-- Node1&#45;&gt;Node6 -->
<g id="edge11" class="edge">
<title>Node1&#45;&gt;Node6</title>
<path fill="none" stroke="#63b8ff" d="M234.81,-109.81C235.58,-85.95 236.71,-50.69 237.4,-29.24"/>
<polygon fill="#63b8ff" stroke="#63b8ff" points="240.9,-29.26 237.72,-19.15 233.9,-29.03 240.9,-29.26"/>
</g>
<!-- Node7 -->
<g id="node7" class="node">
<title>Node7</title>
<g id="a_node7"><a xlink:href="_descriptors_8hpp.html" target="_top" xlink:title=" ">
<polygon fill="white" stroke="#666666" points="348,-74 262,-74 262,-55 348,-55 348,-74"/>
<text text-anchor="middle" x="305" y="-62" font-family="Helvetica,sans-Serif" font-size="10.00">Descriptors.hpp</text>
</a>
</g>
</g>
<!-- Node1&#45;&gt;Node7 -->
<g id="edge6" class="edge">
<title>Node1&#45;&gt;Node7</title>
<path fill="none" stroke="#63b8ff" d="M259.63,-109.91C269.36,-100.38 280.17,-89.8 288.79,-81.36"/>
<polygon fill="#63b8ff" stroke="#63b8ff" points="291.31,-83.8 296.01,-74.3 286.41,-78.8 291.31,-83.8"/>
</g>
<!-- Node3 -->
<g id="node3" class="node">
<title>Node3</title>
<g id="a_node3"><a xlink:title=" ">
<polygon fill="#e0e0e0" stroke="#999999" points="56,-19 0,-19 0,0 56,0 56,-19"/>
<text text-anchor="middle" x="28" y="-7" font-family="Helvetica,sans-Serif" font-size="10.00">algorithm</text>
</a>
</g>
</g>
<!-- Node2&#45;&gt;Node3 -->
<g id="edge2" class="edge">
<title>Node2&#45;&gt;Node3</title>
<path fill="none" stroke="#63b8ff" d="M148.86,-54.98C125.18,-46.27 88.13,-32.63 61.29,-22.75"/>
<polygon fill="#63b8ff" stroke="#63b8ff" points="62.15,-19.34 51.56,-19.17 59.73,-25.91 62.15,-19.34"/>
</g>
<!-- Node4 -->
<g id="node4" class="node">
<title>Node4</title>
<g id="a_node4"><a xlink:title=" ">
<polygon fill="#e0e0e0" stroke="#999999" points="128,-19 74,-19 74,0 128,0 128,-19"/>
<text text-anchor="middle" x="101" y="-7" font-family="Helvetica,sans-Serif" font-size="10.00">iostream</text>
</a>
</g>
</g>
<!-- Node2&#45;&gt;Node4 -->
<g id="edge3" class="edge">
<title>Node2&#45;&gt;Node4</title>
<path fill="none" stroke="#63b8ff" d="M160.59,-54.98C149.89,-47 133.66,-34.88 120.84,-25.31"/>
<polygon fill="#63b8ff" stroke="#63b8ff" points="122.72,-22.35 112.61,-19.17 118.53,-27.96 122.72,-22.35"/>
</g>
<!-- Node5 -->
<g id="node5" class="node">
<title>Node5</title>
<g id="a_node5"><a xlink:title=" ">
<polygon fill="#e0e0e0" stroke="#999999" points="198,-19 146,-19 146,0 198,0 198,-19"/>
<text text-anchor="middle" x="172" y="-7" font-family="Helvetica,sans-Serif" font-size="10.00">sstream</text>
</a>
</g>
</g>
<!-- Node2&#45;&gt;Node5 -->
<g id="edge4" class="edge">
<title>Node2&#45;&gt;Node5</title>
<path fill="none" stroke="#63b8ff" d="M172,-54.75C172,-47.8 172,-37.85 172,-29.13"/>
<polygon fill="#63b8ff" stroke="#63b8ff" points="175.5,-29.09 172,-19.09 168.5,-29.09 175.5,-29.09"/>
</g>
<!-- Node2&#45;&gt;Node6 -->
<g id="edge5" class="edge">
<title>Node2&#45;&gt;Node6</title>
<path fill="none" stroke="#63b8ff" d="M182.6,-54.98C192.46,-47.07 207.35,-35.11 219.22,-25.58"/>
<polygon fill="#63b8ff" stroke="#63b8ff" points="221.6,-28.16 227.2,-19.17 217.21,-22.7 221.6,-28.16"/>
</g>
<!-- Node7&#45;&gt;Node6 -->
<g id="edge9" class="edge">
<title>Node7&#45;&gt;Node6</title>
<path fill="none" stroke="#63b8ff" d="M294.24,-54.98C284.23,-47.07 269.11,-35.11 257.07,-25.58"/>
<polygon fill="#63b8ff" stroke="#63b8ff" points="258.97,-22.63 248.96,-19.17 254.63,-28.12 258.97,-22.63"/>
</g>
<!-- Node8 -->
<g id="node8" class="node">
<title>Node8</title>
<g id="a_node8"><a xlink:title=" ">
<polygon fill="#e0e0e0" stroke="#999999" points="313.5,-19 278.5,-19 278.5,0 313.5,0 313.5,-19"/>
<text text-anchor="middle" x="296" y="-7" font-family="Helvetica,sans-Serif" font-size="10.00">map</text>
</a>
</g>
</g>
<!-- Node7&#45;&gt;Node8 -->
<g id="edge7" class="edge">
<title>Node7&#45;&gt;Node8</title>
<path fill="none" stroke="#63b8ff" d="M303.51,-54.75C302.33,-47.8 300.64,-37.85 299.16,-29.13"/>
<polygon fill="#63b8ff" stroke="#63b8ff" points="302.58,-28.36 297.46,-19.09 295.68,-29.53 302.58,-28.36"/>
</g>
<!-- Node9 -->
<g id="node9" class="node">
<title>Node9</title>
<g id="a_node9"><a xlink:title=" ">
<polygon fill="#e0e0e0" stroke="#999999" points="372.5,-19 331.5,-19 331.5,0 372.5,0 372.5,-19"/>
<text text-anchor="middle" x="352" y="-7" font-family="Helvetica,sans-Serif" font-size="10.00">string</text>
</a>
</g>
</g>
<!-- Node7&#45;&gt;Node9 -->
<g id="edge8" class="edge">
<title>Node7&#45;&gt;Node9</title>
<path fill="none" stroke="#63b8ff" d="M312.76,-54.75C319.47,-47.18 329.34,-36.05 337.51,-26.84"/>
<polygon fill="#63b8ff" stroke="#63b8ff" points="340.37,-28.89 344.38,-19.09 335.13,-24.25 340.37,-28.89"/>
</g>
<!-- Node10 -->
<g id="node10" class="node">
<title>Node10</title>
<g id="a_node10"><a xlink:title=" ">
<polygon fill="#e0e0e0" stroke="#999999" points="449.5,-19 390.5,-19 390.5,0 449.5,0 449.5,-19"/>
<text text-anchor="middle" x="420" y="-7" font-family="Helvetica,sans-Serif" font-size="10.00">stdexcept</text>
</a>
</g>
</g>
<!-- Node7&#45;&gt;Node10 -->
<g id="edge10" class="edge">
<title>Node7&#45;&gt;Node10</title>
<path fill="none" stroke="#63b8ff" d="M323.48,-54.98C341.98,-46.46 370.68,-33.23 391.98,-23.41"/>
<polygon fill="#63b8ff" stroke="#63b8ff" points="393.57,-26.53 401.19,-19.17 390.64,-20.18 393.57,-26.53"/>
</g>
</g>
</svg>
