<?xml version="1.0" encoding="UTF-8" standalone="no"?>
<!DOCTYPE svg PUBLIC "-//W3C//DTD SVG 1.1//EN"
 "http://www.w3.org/Graphics/SVG/1.1/DTD/svg11.dtd">
<!-- Generated by graphviz version 2.43.0 (0)
 -->
<!-- Title: /home/amit/Projects/COLABFIT/colabfit&#45;kim&#45;model/colabfit&#45;descriptor&#45;library/Bispectrum/Bispectrum.hpp Pages: 1 -->
<svg width="322pt" height="148pt"
 viewBox="0.00 0.00 322.00 148.00" xmlns="http://www.w3.org/2000/svg" xmlns:xlink="http://www.w3.org/1999/xlink">
<g id="graph0" class="graph" transform="scale(1 1) rotate(0) translate(4 144)">
<title>/home/amit/Projects/COLABFIT/colabfit&#45;kim&#45;model/colabfit&#45;descriptor&#45;library/Bispectrum/Bispectrum.hpp</title>
<!-- Node1 -->
<g id="node1" class="node">
<title>Node1</title>
<g id="a_node1"><a xlink:title=" ">
<polygon fill="#999999" stroke="#666666" points="253,-140 83,-140 83,-88 253,-88 253,-140"/>
<text text-anchor="start" x="91" y="-128" font-family="Helvetica,sans-Serif" font-size="10.00">/home/amit/Projects</text>
<text text-anchor="start" x="91" y="-117" font-family="Helvetica,sans-Serif" font-size="10.00">/COLABFIT/colabfit&#45;kim</text>
<text text-anchor="start" x="91" y="-106" font-family="Helvetica,sans-Serif" font-size="10.00">&#45;model/colabfit&#45;descriptor</text>
<text text-anchor="middle" x="168" y="-95" font-family="Helvetica,sans-Serif" font-size="10.00">&#45;library/Bispectrum/Bispectrum.hpp</text>
</a>
</g>
</g>
<!-- Node2 -->
<g id="node2" class="node">
<title>Node2</title>
<g id="a_node2"><a xlink:href="_bispectrum_8cpp.html" target="_top" xlink:title="The current implementation is based on the SNAP potential implemented in LAMMPS by Aidan Thompson,...">
<polygon fill="white" stroke="#666666" points="170,-52 0,-52 0,0 170,0 170,-52"/>
<text text-anchor="start" x="8" y="-40" font-family="Helvetica,sans-Serif" font-size="10.00">/home/amit/Projects</text>
<text text-anchor="start" x="8" y="-29" font-family="Helvetica,sans-Serif" font-size="10.00">/COLABFIT/colabfit&#45;kim</text>
<text text-anchor="start" x="8" y="-18" font-family="Helvetica,sans-Serif" font-size="10.00">&#45;model/colabfit&#45;descriptor</text>
<text text-anchor="middle" x="85" y="-7" font-family="Helvetica,sans-Serif" font-size="10.00">&#45;library/Bispectrum/Bispectrum.cpp</text>
</a>
</g>
</g>
<!-- Node1&#45;&gt;Node2 -->
<g id="edge1" class="edge">
<title>Node1&#45;&gt;Node2</title>
<path fill="none" stroke="#63b8ff" d="M136.49,-80.35C127.48,-71.01 117.79,-60.98 109.28,-52.16"/>
<polygon fill="#63b8ff" stroke="#63b8ff" points="134.08,-82.9 143.55,-87.66 139.12,-78.04 134.08,-82.9"/>
</g>
<!-- Node3 -->
<g id="node3" class="node">
<title>Node3</title>
<g id="a_node3"><a xlink:href="_descriptors_8cpp.html" target="_top" xlink:title=" ">
<polygon fill="white" stroke="#666666" points="314,-52 188,-52 188,0 314,0 314,-52"/>
<text text-anchor="start" x="196" y="-40" font-family="Helvetica,sans-Serif" font-size="10.00">/home/amit/Projects</text>
<text text-anchor="start" x="196" y="-29" font-family="Helvetica,sans-Serif" font-size="10.00">/COLABFIT/colabfit&#45;kim</text>
<text text-anchor="start" x="196" y="-18" font-family="Helvetica,sans-Serif" font-size="10.00">&#45;model/colabfit&#45;descriptor</text>
<text text-anchor="middle" x="251" y="-7" font-family="Helvetica,sans-Serif" font-size="10.00">&#45;library/Descriptors.cpp</text>
</a>
</g>
</g>
<!-- Node1&#45;&gt;Node3 -->
<g id="edge2" class="edge">
<title>Node1&#45;&gt;Node3</title>
<path fill="none" stroke="#63b8ff" d="M199.51,-80.35C208.52,-71.01 218.21,-60.98 226.72,-52.16"/>
<polygon fill="#63b8ff" stroke="#63b8ff" points="196.88,-78.04 192.45,-87.66 201.92,-82.9 196.88,-78.04"/>
</g>
</g>
</svg>
