<?xml version="1.0" encoding="UTF-8" standalone="no"?>
<!DOCTYPE svg PUBLIC "-//W3C//DTD SVG 1.1//EN"
 "http://www.w3.org/Graphics/SVG/1.1/DTD/svg11.dtd">
<!-- Generated by graphviz version 2.43.0 (0)
 -->
<!-- Title: /home/amit/Projects/COLABFIT/colabfit&#45;kim&#45;model/colabfit&#45;descriptor&#45;library/Bispectrum/Bispectrum.cpp Pages: 1 -->
<svg width="545pt" height="225pt"
 viewBox="0.00 0.00 545.00 225.00" xmlns="http://www.w3.org/2000/svg" xmlns:xlink="http://www.w3.org/1999/xlink">
<g id="graph0" class="graph" transform="scale(1 1) rotate(0) translate(4 221)">
<title>/home/amit/Projects/COLABFIT/colabfit&#45;kim&#45;model/colabfit&#45;descriptor&#45;library/Bispectrum/Bispectrum.cpp</title>
<!-- Node1 -->
<g id="node1" class="node">
<title>Node1</title>
<g id="a_node1"><a xlink:title="The current implementation is based on the SNAP potential implemented in LAMMPS by Aidan Thompson,...">
<polygon fill="#999999" stroke="#666666" points="469,-217 299,-217 299,-165 469,-165 469,-217"/>
<text text-anchor="start" x="307" y="-205" font-family="Helvetica,sans-Serif" font-size="10.00">/home/amit/Projects</text>
<text text-anchor="start" x="307" y="-194" font-family="Helvetica,sans-Serif" font-size="10.00">/COLABFIT/colabfit&#45;kim</text>
<text text-anchor="start" x="307" y="-183" font-family="Helvetica,sans-Serif" font-size="10.00">&#45;model/colabfit&#45;descriptor</text>
<text text-anchor="middle" x="384" y="-172" font-family="Helvetica,sans-Serif" font-size="10.00">&#45;library/Bispectrum/Bispectrum.cpp</text>
</a>
</g>
</g>
<!-- Node2 -->
<g id="node2" class="node">
<title>Node2</title>
<g id="a_node2"><a xlink:href="_bispectrum_8hpp.html" target="_top" xlink:title=" ">
<polygon fill="white" stroke="#666666" points="276.5,-129 191.5,-129 191.5,-110 276.5,-110 276.5,-129"/>
<text text-anchor="middle" x="234" y="-117" font-family="Helvetica,sans-Serif" font-size="10.00">Bispectrum.hpp</text>
</a>
</g>
</g>
<!-- Node1&#45;&gt;Node2 -->
<g id="edge1" class="edge">
<title>Node1&#45;&gt;Node2</title>
<path fill="none" stroke="#63b8ff" d="M329.85,-164.91C306.84,-154.25 280.98,-142.27 261.93,-133.44"/>
<polygon fill="#63b8ff" stroke="#63b8ff" points="263.18,-130.16 252.64,-129.14 260.24,-136.52 263.18,-130.16"/>
</g>
<!-- Node12 -->
<g id="node12" class="node">
<title>Node12</title>
<g id="a_node12"><a xlink:title=" ">
<polygon fill="#e0e0e0" stroke="#999999" points="339,-129 295,-129 295,-110 339,-110 339,-129"/>
<text text-anchor="middle" x="317" y="-117" font-family="Helvetica,sans-Serif" font-size="10.00">cmath</text>
</a>
</g>
</g>
<!-- Node1&#45;&gt;Node12 -->
<g id="edge13" class="edge">
<title>Node1&#45;&gt;Node12</title>
<path fill="none" stroke="#63b8ff" d="M359.81,-164.91C350.72,-155.48 340.64,-145.02 332.54,-136.62"/>
<polygon fill="#63b8ff" stroke="#63b8ff" points="334.95,-134.07 325.49,-129.3 329.91,-138.93 334.95,-134.07"/>
</g>
<!-- Node13 -->
<g id="node13" class="node">
<title>Node13</title>
<g id="a_node13"><a xlink:title=" ">
<polygon fill="#e0e0e0" stroke="#999999" points="410.5,-129 357.5,-129 357.5,-110 410.5,-110 410.5,-129"/>
<text text-anchor="middle" x="384" y="-117" font-family="Helvetica,sans-Serif" font-size="10.00">complex</text>
</a>
</g>
</g>
<!-- Node1&#45;&gt;Node13 -->
<g id="edge14" class="edge">
<title>Node1&#45;&gt;Node13</title>
<path fill="none" stroke="#63b8ff" d="M384,-164.91C384,-156.55 384,-147.38 384,-139.55"/>
<polygon fill="#63b8ff" stroke="#63b8ff" points="387.5,-139.3 384,-129.3 380.5,-139.3 387.5,-139.3"/>
</g>
<!-- Node14 -->
<g id="node14" class="node">
<title>Node14</title>
<g id="a_node14"><a xlink:title=" ">
<polygon fill="#e0e0e0" stroke="#999999" points="469,-129 429,-129 429,-110 469,-110 469,-129"/>
<text text-anchor="middle" x="449" y="-117" font-family="Helvetica,sans-Serif" font-size="10.00">limits</text>
</a>
</g>
</g>
<!-- Node1&#45;&gt;Node14 -->
<g id="edge15" class="edge">
<title>Node1&#45;&gt;Node14</title>
<path fill="none" stroke="#63b8ff" d="M407.47,-164.91C416.28,-155.48 426.07,-145.02 433.92,-136.62"/>
<polygon fill="#63b8ff" stroke="#63b8ff" points="436.49,-139 440.77,-129.3 431.38,-134.22 436.49,-139"/>
</g>
<!-- Node15 -->
<g id="node15" class="node">
<title>Node15</title>
<g id="a_node15"><a xlink:title=" ">
<polygon fill="#e0e0e0" stroke="#999999" points="537,-129 487,-129 487,-110 537,-110 537,-129"/>
<text text-anchor="middle" x="512" y="-117" font-family="Helvetica,sans-Serif" font-size="10.00">fstream</text>
</a>
</g>
</g>
<!-- Node1&#45;&gt;Node15 -->
<g id="edge16" class="edge">
<title>Node1&#45;&gt;Node15</title>
<path fill="none" stroke="#63b8ff" d="M430.21,-164.91C449.49,-154.44 471.1,-142.71 487.27,-133.93"/>
<polygon fill="#63b8ff" stroke="#63b8ff" points="488.98,-136.98 496.1,-129.14 485.64,-130.83 488.98,-136.98"/>
</g>
<!-- Node3 -->
<g id="node3" class="node">
<title>Node3</title>
<g id="a_node3"><a xlink:href="helper_8hpp.html" target="_top" xlink:title=" ">
<polygon fill="white" stroke="#666666" points="202.5,-74 141.5,-74 141.5,-55 202.5,-55 202.5,-74"/>
<text text-anchor="middle" x="172" y="-62" font-family="Helvetica,sans-Serif" font-size="10.00">helper.hpp</text>
</a>
</g>
</g>
<!-- Node2&#45;&gt;Node3 -->
<g id="edge2" class="edge">
<title>Node2&#45;&gt;Node3</title>
<path fill="none" stroke="#63b8ff" d="M224.04,-109.98C214.87,-102.15 201.06,-90.34 189.97,-80.86"/>
<polygon fill="#63b8ff" stroke="#63b8ff" points="192.02,-78.01 182.14,-74.17 187.47,-83.33 192.02,-78.01"/>
</g>
<!-- Node7 -->
<g id="node7" class="node">
<title>Node7</title>
<g id="a_node7"><a xlink:title=" ">
<polygon fill="#e0e0e0" stroke="#999999" points="260,-19 216,-19 216,0 260,0 260,-19"/>
<text text-anchor="middle" x="238" y="-7" font-family="Helvetica,sans-Serif" font-size="10.00">vector</text>
</a>
</g>
</g>
<!-- Node2&#45;&gt;Node7 -->
<g id="edge12" class="edge">
<title>Node2&#45;&gt;Node7</title>
<path fill="none" stroke="#63b8ff" d="M234.33,-109.66C234.98,-92.17 236.43,-52.8 237.3,-29.27"/>
<polygon fill="#63b8ff" stroke="#63b8ff" points="240.81,-29.28 237.68,-19.16 233.81,-29.02 240.81,-29.28"/>
</g>
<!-- Node8 -->
<g id="node8" class="node">
<title>Node8</title>
<g id="a_node8"><a xlink:href="_descriptors_8hpp.html" target="_top" xlink:title=" ">
<polygon fill="white" stroke="#666666" points="348,-74 262,-74 262,-55 348,-55 348,-74"/>
<text text-anchor="middle" x="305" y="-62" font-family="Helvetica,sans-Serif" font-size="10.00">Descriptors.hpp</text>
</a>
</g>
</g>
<!-- Node2&#45;&gt;Node8 -->
<g id="edge7" class="edge">
<title>Node2&#45;&gt;Node8</title>
<path fill="none" stroke="#63b8ff" d="M245.41,-109.98C256.11,-102 272.34,-89.88 285.16,-80.31"/>
<polygon fill="#63b8ff" stroke="#63b8ff" points="287.47,-82.96 293.39,-74.17 283.28,-77.35 287.47,-82.96"/>
</g>
<!-- Node4 -->
<g id="node4" class="node">
<title>Node4</title>
<g id="a_node4"><a xlink:title=" ">
<polygon fill="#e0e0e0" stroke="#999999" points="56,-19 0,-19 0,0 56,0 56,-19"/>
<text text-anchor="middle" x="28" y="-7" font-family="Helvetica,sans-Serif" font-size="10.00">algorithm</text>
</a>
</g>
</g>
<!-- Node3&#45;&gt;Node4 -->
<g id="edge3" class="edge">
<title>Node3&#45;&gt;Node4</title>
<path fill="none" stroke="#63b8ff" d="M148.86,-54.98C125.18,-46.27 88.13,-32.63 61.29,-22.75"/>
<polygon fill="#63b8ff" stroke="#63b8ff" points="62.15,-19.34 51.56,-19.17 59.73,-25.91 62.15,-19.34"/>
</g>
<!-- Node5 -->
<g id="node5" class="node">
<title>Node5</title>
<g id="a_node5"><a xlink:title=" ">
<polygon fill="#e0e0e0" stroke="#999999" points="128,-19 74,-19 74,0 128,0 128,-19"/>
<text text-anchor="middle" x="101" y="-7" font-family="Helvetica,sans-Serif" font-size="10.00">iostream</text>
</a>
</g>
</g>
<!-- Node3&#45;&gt;Node5 -->
<g id="edge4" class="edge">
<title>Node3&#45;&gt;Node5</title>
<path fill="none" stroke="#63b8ff" d="M160.59,-54.98C149.89,-47 133.66,-34.88 120.84,-25.31"/>
<polygon fill="#63b8ff" stroke="#63b8ff" points="122.72,-22.35 112.61,-19.17 118.53,-27.96 122.72,-22.35"/>
</g>
<!-- Node6 -->
<g id="node6" class="node">
<title>Node6</title>
<g id="a_node6"><a xlink:title=" ">
<polygon fill="#e0e0e0" stroke="#999999" points="198,-19 146,-19 146,0 198,0 198,-19"/>
<text text-anchor="middle" x="172" y="-7" font-family="Helvetica,sans-Serif" font-size="10.00">sstream</text>
</a>
</g>
</g>
<!-- Node3&#45;&gt;Node6 -->
<g id="edge5" class="edge">
<title>Node3&#45;&gt;Node6</title>
<path fill="none" stroke="#63b8ff" d="M172,-54.75C172,-47.8 172,-37.85 172,-29.13"/>
<polygon fill="#63b8ff" stroke="#63b8ff" points="175.5,-29.09 172,-19.09 168.5,-29.09 175.5,-29.09"/>
</g>
<!-- Node3&#45;&gt;Node7 -->
<g id="edge6" class="edge">
<title>Node3&#45;&gt;Node7</title>
<path fill="none" stroke="#63b8ff" d="M182.6,-54.98C192.46,-47.07 207.35,-35.11 219.22,-25.58"/>
<polygon fill="#63b8ff" stroke="#63b8ff" points="221.6,-28.16 227.2,-19.17 217.21,-22.7 221.6,-28.16"/>
</g>
<!-- Node8&#45;&gt;Node7 -->
<g id="edge10" class="edge">
<title>Node8&#45;&gt;Node7</title>
<path fill="none" stroke="#63b8ff" d="M294.24,-54.98C284.23,-47.07 269.11,-35.11 257.07,-25.58"/>
<polygon fill="#63b8ff" stroke="#63b8ff" points="258.97,-22.63 248.96,-19.17 254.63,-28.12 258.97,-22.63"/>
</g>
<!-- Node9 -->
<g id="node9" class="node">
<title>Node9</title>
<g id="a_node9"><a xlink:title=" ">
<polygon fill="#e0e0e0" stroke="#999999" points="313.5,-19 278.5,-19 278.5,0 313.5,0 313.5,-19"/>
<text text-anchor="middle" x="296" y="-7" font-family="Helvetica,sans-Serif" font-size="10.00">map</text>
</a>
</g>
</g>
<!-- Node8&#45;&gt;Node9 -->
<g id="edge8" class="edge">
<title>Node8&#45;&gt;Node9</title>
<path fill="none" stroke="#63b8ff" d="M303.51,-54.75C302.33,-47.8 300.64,-37.85 299.16,-29.13"/>
<polygon fill="#63b8ff" stroke="#63b8ff" points="302.58,-28.36 297.46,-19.09 295.68,-29.53 302.58,-28.36"/>
</g>
<!-- Node10 -->
<g id="node10" class="node">
<title>Node10</title>
<g id="a_node10"><a xlink:title=" ">
<polygon fill="#e0e0e0" stroke="#999999" points="372.5,-19 331.5,-19 331.5,0 372.5,0 372.5,-19"/>
<text text-anchor="middle" x="352" y="-7" font-family="Helvetica,sans-Serif" font-size="10.00">string</text>
</a>
</g>
</g>
<!-- Node8&#45;&gt;Node10 -->
<g id="edge9" class="edge">
<title>Node8&#45;&gt;Node10</title>
<path fill="none" stroke="#63b8ff" d="M312.76,-54.75C319.47,-47.18 329.34,-36.05 337.51,-26.84"/>
<polygon fill="#63b8ff" stroke="#63b8ff" points="340.37,-28.89 344.38,-19.09 335.13,-24.25 340.37,-28.89"/>
</g>
<!-- Node11 -->
<g id="node11" class="node">
<title>Node11</title>
<g id="a_node11"><a xlink:title=" ">
<polygon fill="#e0e0e0" stroke="#999999" points="449.5,-19 390.5,-19 390.5,0 449.5,0 449.5,-19"/>
<text text-anchor="middle" x="420" y="-7" font-family="Helvetica,sans-Serif" font-size="10.00">stdexcept</text>
</a>
</g>
</g>
<!-- Node8&#45;&gt;Node11 -->
<g id="edge11" class="edge">
<title>Node8&#45;&gt;Node11</title>
<path fill="none" stroke="#63b8ff" d="M323.48,-54.98C341.98,-46.46 370.68,-33.23 391.98,-23.41"/>
<polygon fill="#63b8ff" stroke="#63b8ff" points="393.57,-26.53 401.19,-19.17 390.64,-20.18 393.57,-26.53"/>
</g>
</g>
</svg>
