<?xml version="1.0" encoding="UTF-8" standalone="no"?>
<!DOCTYPE svg PUBLIC "-//W3C//DTD SVG 1.1//EN"
 "http://www.w3.org/Graphics/SVG/1.1/DTD/svg11.dtd">
<!-- Generated by graphviz version 2.43.0 (0)
 -->
<!-- Title: /home/amit/Projects/COLABFIT/colabfit&#45;kim&#45;model/colabfit&#45;descriptor&#45;library/Descriptors.hpp Pages: 1 -->
<svg width="895pt" height="258pt"
 viewBox="0.00 0.00 895.00 258.00" xmlns="http://www.w3.org/2000/svg" xmlns:xlink="http://www.w3.org/1999/xlink">
<g id="graph0" class="graph" transform="scale(1 1) rotate(0) translate(4 254)">
<title>/home/amit/Projects/COLABFIT/colabfit&#45;kim&#45;model/colabfit&#45;descriptor&#45;library/Descriptors.hpp</title>
<!-- Node1 -->
<g id="node1" class="node">
<title>Node1</title>
<g id="a_node1"><a xlink:title=" ">
<polygon fill="#999999" stroke="#666666" points="489,-250 363,-250 363,-198 489,-198 489,-250"/>
<text text-anchor="start" x="371" y="-238" font-family="Helvetica,sans-Serif" font-size="10.00">/home/amit/Projects</text>
<text text-anchor="start" x="371" y="-227" font-family="Helvetica,sans-Serif" font-size="10.00">/COLABFIT/colabfit&#45;kim</text>
<text text-anchor="start" x="371" y="-216" font-family="Helvetica,sans-Serif" font-size="10.00">&#45;model/colabfit&#45;descriptor</text>
<text text-anchor="middle" x="426" y="-205" font-family="Helvetica,sans-Serif" font-size="10.00">&#45;library/Descriptors.hpp</text>
</a>
</g>
</g>
<!-- Node2 -->
<g id="node2" class="node">
<title>Node2</title>
<g id="a_node2"><a xlink:href="_bispectrum_8hpp.html" target="_top" xlink:title=" ">
<polygon fill="white" stroke="#666666" points="223,-156.5 53,-156.5 53,-104.5 223,-104.5 223,-156.5"/>
<text text-anchor="start" x="61" y="-144.5" font-family="Helvetica,sans-Serif" font-size="10.00">/home/amit/Projects</text>
<text text-anchor="start" x="61" y="-133.5" font-family="Helvetica,sans-Serif" font-size="10.00">/COLABFIT/colabfit&#45;kim</text>
<text text-anchor="start" x="61" y="-122.5" font-family="Helvetica,sans-Serif" font-size="10.00">&#45;model/colabfit&#45;descriptor</text>
<text text-anchor="middle" x="138" y="-111.5" font-family="Helvetica,sans-Serif" font-size="10.00">&#45;library/Bispectrum/Bispectrum.hpp</text>
</a>
</g>
</g>
<!-- Node1&#45;&gt;Node2 -->
<g id="edge1" class="edge">
<title>Node1&#45;&gt;Node2</title>
<path fill="none" stroke="#63b8ff" d="M353.01,-199.81C311.41,-186.59 259.26,-170.03 216.74,-156.52"/>
<polygon fill="#63b8ff" stroke="#63b8ff" points="352.21,-203.23 362.8,-202.92 354.33,-196.56 352.21,-203.23"/>
</g>
<!-- Node4 -->
<g id="node4" class="node">
<title>Node4</title>
<g id="a_node4"><a xlink:href="_descriptors_8cpp.html" target="_top" xlink:title=" ">
<polygon fill="white" stroke="#666666" points="314,-57.5 188,-57.5 188,-5.5 314,-5.5 314,-57.5"/>
<text text-anchor="start" x="196" y="-45.5" font-family="Helvetica,sans-Serif" font-size="10.00">/home/amit/Projects</text>
<text text-anchor="start" x="196" y="-34.5" font-family="Helvetica,sans-Serif" font-size="10.00">/COLABFIT/colabfit&#45;kim</text>
<text text-anchor="start" x="196" y="-23.5" font-family="Helvetica,sans-Serif" font-size="10.00">&#45;model/colabfit&#45;descriptor</text>
<text text-anchor="middle" x="251" y="-12.5" font-family="Helvetica,sans-Serif" font-size="10.00">&#45;library/Descriptors.cpp</text>
</a>
</g>
</g>
<!-- Node1&#45;&gt;Node4 -->
<g id="edge4" class="edge">
<title>Node1&#45;&gt;Node4</title>
<path fill="none" stroke="#63b8ff" d="M352.97,-211.09C322.86,-202.44 290.33,-187.57 270,-162 246.31,-132.21 245.49,-85.96 247.75,-57.55"/>
<polygon fill="#63b8ff" stroke="#63b8ff" points="352.07,-214.47 362.64,-213.68 353.89,-207.71 352.07,-214.47"/>
</g>
<!-- Node5 -->
<g id="node5" class="node">
<title>Node5</title>
<g id="a_node5"><a xlink:href="_symmetry_functions_8hpp.html" target="_top" xlink:title=" ">
<polygon fill="white" stroke="#666666" points="416.5,-162 279.5,-162 279.5,-99 416.5,-99 416.5,-162"/>
<text text-anchor="start" x="287.5" y="-150" font-family="Helvetica,sans-Serif" font-size="10.00">/home/amit/Projects</text>
<text text-anchor="start" x="287.5" y="-139" font-family="Helvetica,sans-Serif" font-size="10.00">/COLABFIT/colabfit&#45;kim</text>
<text text-anchor="start" x="287.5" y="-128" font-family="Helvetica,sans-Serif" font-size="10.00">&#45;model/colabfit&#45;descriptor</text>
<text text-anchor="start" x="287.5" y="-117" font-family="Helvetica,sans-Serif" font-size="10.00">&#45;library/SymmetryFunctions</text>
<text text-anchor="middle" x="348" y="-106" font-family="Helvetica,sans-Serif" font-size="10.00">/SymmetryFunctions.hpp</text>
</a>
</g>
</g>
<!-- Node1&#45;&gt;Node5 -->
<g id="edge5" class="edge">
<title>Node1&#45;&gt;Node5</title>
<path fill="none" stroke="#63b8ff" d="M398.01,-190.17C390.19,-180.99 381.72,-171.05 374.01,-162.02"/>
<polygon fill="#63b8ff" stroke="#63b8ff" points="395.54,-192.66 404.69,-198 400.86,-188.12 395.54,-192.66"/>
</g>
<!-- Node7 -->
<g id="node7" class="node">
<title>Node7</title>
<g id="a_node7"><a xlink:href="python__bindings_8cpp.html" target="_top" xlink:title=" ">
<polygon fill="white" stroke="#666666" points="573,-156.5 435,-156.5 435,-104.5 573,-104.5 573,-156.5"/>
<text text-anchor="start" x="443" y="-144.5" font-family="Helvetica,sans-Serif" font-size="10.00">/home/amit/Projects</text>
<text text-anchor="start" x="443" y="-133.5" font-family="Helvetica,sans-Serif" font-size="10.00">/COLABFIT/colabfit&#45;kim</text>
<text text-anchor="start" x="443" y="-122.5" font-family="Helvetica,sans-Serif" font-size="10.00">&#45;model/colabfit&#45;descriptor</text>
<text text-anchor="middle" x="504" y="-111.5" font-family="Helvetica,sans-Serif" font-size="10.00">&#45;library/python_bindings.cpp</text>
</a>
</g>
</g>
<!-- Node1&#45;&gt;Node7 -->
<g id="edge8" class="edge">
<title>Node1&#45;&gt;Node7</title>
<path fill="none" stroke="#63b8ff" d="M453.94,-190.22C463.32,-179.22 473.63,-167.13 482.44,-156.79"/>
<polygon fill="#63b8ff" stroke="#63b8ff" points="451.14,-188.12 447.31,-198 456.46,-192.66 451.14,-188.12"/>
</g>
<!-- Node8 -->
<g id="node8" class="node">
<title>Node8</title>
<g id="a_node8"><a xlink:href="bispectrum__test_8cpp.html" target="_top" xlink:title=" ">
<polygon fill="white" stroke="#666666" points="717,-162 591,-162 591,-99 717,-99 717,-162"/>
<text text-anchor="start" x="599" y="-150" font-family="Helvetica,sans-Serif" font-size="10.00">/home/amit/Projects</text>
<text text-anchor="start" x="599" y="-139" font-family="Helvetica,sans-Serif" font-size="10.00">/COLABFIT/colabfit&#45;kim</text>
<text text-anchor="start" x="599" y="-128" font-family="Helvetica,sans-Serif" font-size="10.00">&#45;model/colabfit&#45;descriptor</text>
<text text-anchor="start" x="599" y="-117" font-family="Helvetica,sans-Serif" font-size="10.00">&#45;library/test/bispectrum</text>
<text text-anchor="middle" x="654" y="-106" font-family="Helvetica,sans-Serif" font-size="10.00">/bispectrum_test.cpp</text>
</a>
</g>
</g>
<!-- Node1&#45;&gt;Node8 -->
<g id="edge9" class="edge">
<title>Node1&#45;&gt;Node8</title>
<path fill="none" stroke="#63b8ff" d="M498.68,-195.07C524.99,-184.82 554.89,-173.04 582,-162 584.89,-160.82 587.85,-159.61 590.83,-158.38"/>
<polygon fill="#63b8ff" stroke="#63b8ff" points="497.21,-191.88 489.16,-198.76 499.75,-198.41 497.21,-191.88"/>
</g>
<!-- Node9 -->
<g id="node9" class="node">
<title>Node9</title>
<g id="a_node9"><a xlink:href="symmetry__test_8cpp.html" target="_top" xlink:title=" ">
<polygon fill="white" stroke="#666666" points="887,-162 735,-162 735,-99 887,-99 887,-162"/>
<text text-anchor="start" x="743" y="-150" font-family="Helvetica,sans-Serif" font-size="10.00">/home/amit/Projects</text>
<text text-anchor="start" x="743" y="-139" font-family="Helvetica,sans-Serif" font-size="10.00">/COLABFIT/colabfit&#45;kim</text>
<text text-anchor="start" x="743" y="-128" font-family="Helvetica,sans-Serif" font-size="10.00">&#45;model/colabfit&#45;descriptor</text>
<text text-anchor="start" x="743" y="-117" font-family="Helvetica,sans-Serif" font-size="10.00">&#45;library/test/symmetry_function</text>
<text text-anchor="middle" x="811" y="-106" font-family="Helvetica,sans-Serif" font-size="10.00">/symmetry_test.cpp</text>
</a>
</g>
</g>
<!-- Node1&#45;&gt;Node9 -->
<g id="edge10" class="edge">
<title>Node1&#45;&gt;Node9</title>
<path fill="none" stroke="#63b8ff" d="M499.21,-211.15C560.38,-200.53 649.63,-183.35 726,-162 728.87,-161.2 731.78,-160.35 734.71,-159.46"/>
<polygon fill="#63b8ff" stroke="#63b8ff" points="498.52,-207.72 489.26,-212.87 499.71,-214.62 498.52,-207.72"/>
</g>
<!-- Node3 -->
<g id="node3" class="node">
<title>Node3</title>
<g id="a_node3"><a xlink:href="_bispectrum_8cpp.html" target="_top" xlink:title="The current implementation is based on the SNAP potential implemented in LAMMPS by Aidan Thompson,...">
<polygon fill="white" stroke="#666666" points="170,-57.5 0,-57.5 0,-5.5 170,-5.5 170,-57.5"/>
<text text-anchor="start" x="8" y="-45.5" font-family="Helvetica,sans-Serif" font-size="10.00">/home/amit/Projects</text>
<text text-anchor="start" x="8" y="-34.5" font-family="Helvetica,sans-Serif" font-size="10.00">/COLABFIT/colabfit&#45;kim</text>
<text text-anchor="start" x="8" y="-23.5" font-family="Helvetica,sans-Serif" font-size="10.00">&#45;model/colabfit&#45;descriptor</text>
<text text-anchor="middle" x="85" y="-12.5" font-family="Helvetica,sans-Serif" font-size="10.00">&#45;library/Bispectrum/Bispectrum.cpp</text>
</a>
</g>
</g>
<!-- Node2&#45;&gt;Node3 -->
<g id="edge2" class="edge">
<title>Node2&#45;&gt;Node3</title>
<path fill="none" stroke="#63b8ff" d="M119.22,-95.13C112.46,-82.76 104.97,-69.04 98.72,-57.61"/>
<polygon fill="#63b8ff" stroke="#63b8ff" points="116.35,-97.17 124.21,-104.27 122.49,-93.81 116.35,-97.17"/>
</g>
<!-- Node2&#45;&gt;Node4 -->
<g id="edge3" class="edge">
<title>Node2&#45;&gt;Node4</title>
<path fill="none" stroke="#63b8ff" d="M175.1,-97.66C190.25,-84.65 207.52,-69.83 221.75,-57.61"/>
<polygon fill="#63b8ff" stroke="#63b8ff" points="172.7,-95.1 167.39,-104.27 177.26,-100.41 172.7,-95.1"/>
</g>
<!-- Node5&#45;&gt;Node4 -->
<g id="edge6" class="edge">
<title>Node5&#45;&gt;Node4</title>
<path fill="none" stroke="#63b8ff" d="M310.02,-91.52C298.7,-80.2 286.59,-68.09 276.3,-57.8"/>
<polygon fill="#63b8ff" stroke="#63b8ff" points="307.76,-94.21 317.31,-98.81 312.71,-89.26 307.76,-94.21"/>
</g>
<!-- Node6 -->
<g id="node6" class="node">
<title>Node6</title>
<g id="a_node6"><a xlink:href="_symmetry_functions_8cpp.html" target="_top" xlink:title=" ">
<polygon fill="white" stroke="#666666" points="469.5,-63 332.5,-63 332.5,0 469.5,0 469.5,-63"/>
<text text-anchor="start" x="340.5" y="-51" font-family="Helvetica,sans-Serif" font-size="10.00">/home/amit/Projects</text>
<text text-anchor="start" x="340.5" y="-40" font-family="Helvetica,sans-Serif" font-size="10.00">/COLABFIT/colabfit&#45;kim</text>
<text text-anchor="start" x="340.5" y="-29" font-family="Helvetica,sans-Serif" font-size="10.00">&#45;model/colabfit&#45;descriptor</text>
<text text-anchor="start" x="340.5" y="-18" font-family="Helvetica,sans-Serif" font-size="10.00">&#45;library/SymmetryFunctions</text>
<text text-anchor="middle" x="401" y="-7" font-family="Helvetica,sans-Serif" font-size="10.00">/SymmetryFunctions.cpp</text>
</a>
</g>
</g>
<!-- Node5&#45;&gt;Node6 -->
<g id="edge7" class="edge">
<title>Node5&#45;&gt;Node6</title>
<path fill="none" stroke="#63b8ff" d="M369.69,-89.8C374.52,-80.97 379.56,-71.74 384.16,-63.32"/>
<polygon fill="#63b8ff" stroke="#63b8ff" points="366.49,-88.35 364.77,-98.81 372.64,-91.71 366.49,-88.35"/>
</g>
</g>
</svg>
