<?xml version="1.0" encoding="UTF-8" standalone="no"?>
<!DOCTYPE svg PUBLIC "-//W3C//DTD SVG 1.1//EN"
 "http://www.w3.org/Graphics/SVG/1.1/DTD/svg11.dtd">
<!-- Generated by graphviz version 2.43.0 (0)
 -->
<!-- Title: /home/amit/Projects/COLABFIT/colabfit&#45;kim&#45;model/colabfit&#45;descriptor&#45;library/Descriptors.cpp Pages: 1 -->
<svg width="655pt" height="236pt"
 viewBox="0.00 0.00 654.50 236.00" xmlns="http://www.w3.org/2000/svg" xmlns:xlink="http://www.w3.org/1999/xlink">
<g id="graph0" class="graph" transform="scale(1 1) rotate(0) translate(4 232)">
<title>/home/amit/Projects/COLABFIT/colabfit&#45;kim&#45;model/colabfit&#45;descriptor&#45;library/Descriptors.cpp</title>
<!-- Node1 -->
<g id="node1" class="node">
<title>Node1</title>
<g id="a_node1"><a xlink:title=" ">
<polygon fill="#999999" stroke="#666666" points="330.5,-228 204.5,-228 204.5,-176 330.5,-176 330.5,-228"/>
<text text-anchor="start" x="212.5" y="-216" font-family="Helvetica,sans-Serif" font-size="10.00">/home/amit/Projects</text>
<text text-anchor="start" x="212.5" y="-205" font-family="Helvetica,sans-Serif" font-size="10.00">/COLABFIT/colabfit&#45;kim</text>
<text text-anchor="start" x="212.5" y="-194" font-family="Helvetica,sans-Serif" font-size="10.00">&#45;model/colabfit&#45;descriptor</text>
<text text-anchor="middle" x="267.5" y="-183" font-family="Helvetica,sans-Serif" font-size="10.00">&#45;library/Descriptors.cpp</text>
</a>
</g>
</g>
<!-- Node2 -->
<g id="node2" class="node">
<title>Node2</title>
<g id="a_node2"><a xlink:href="_descriptors_8hpp.html" target="_top" xlink:title=" ">
<polygon fill="white" stroke="#666666" points="179.5,-134.5 93.5,-134.5 93.5,-115.5 179.5,-115.5 179.5,-134.5"/>
<text text-anchor="middle" x="136.5" y="-122.5" font-family="Helvetica,sans-Serif" font-size="10.00">Descriptors.hpp</text>
</a>
</g>
</g>
<!-- Node1&#45;&gt;Node2 -->
<g id="edge1" class="edge">
<title>Node1&#45;&gt;Node2</title>
<path fill="none" stroke="#63b8ff" d="M223.51,-175.82C202.44,-163.75 178.03,-149.78 160.43,-139.7"/>
<polygon fill="#63b8ff" stroke="#63b8ff" points="161.84,-136.48 151.42,-134.54 158.36,-142.55 161.84,-136.48"/>
</g>
<!-- Node4 -->
<g id="node4" class="node">
<title>Node4</title>
<g id="a_node4"><a xlink:title=" ">
<polygon fill="#e0e0e0" stroke="#999999" points="157,-74 116,-74 116,-55 157,-55 157,-74"/>
<text text-anchor="middle" x="136.5" y="-62" font-family="Helvetica,sans-Serif" font-size="10.00">string</text>
</a>
</g>
</g>
<!-- Node1&#45;&gt;Node4 -->
<g id="edge23" class="edge">
<title>Node1&#45;&gt;Node4</title>
<path fill="none" stroke="#63b8ff" d="M247.32,-175.78C231.89,-157 209.73,-131.08 188.5,-110 178.09,-99.67 165.63,-88.95 155.52,-80.63"/>
<polygon fill="#63b8ff" stroke="#63b8ff" points="157.64,-77.84 147.67,-74.26 153.23,-83.28 157.64,-77.84"/>
</g>
<!-- Node5 -->
<g id="node5" class="node">
<title>Node5</title>
<g id="a_node5"><a xlink:title=" ">
<polygon fill="#e0e0e0" stroke="#999999" points="646.5,-19 602.5,-19 602.5,0 646.5,0 646.5,-19"/>
<text text-anchor="middle" x="624.5" y="-7" font-family="Helvetica,sans-Serif" font-size="10.00">vector</text>
</a>
</g>
</g>
<!-- Node1&#45;&gt;Node5 -->
<g id="edge22" class="edge">
<title>Node1&#45;&gt;Node5</title>
<path fill="none" stroke="#63b8ff" d="M330.69,-197.03C415.22,-190.47 558.96,-174.47 597.5,-140 628.8,-112.01 629.16,-57.96 626.81,-29.34"/>
<polygon fill="#63b8ff" stroke="#63b8ff" points="630.27,-28.68 625.76,-19.09 623.3,-29.4 630.27,-28.68"/>
</g>
<!-- Node6 -->
<g id="node6" class="node">
<title>Node6</title>
<g id="a_node6"><a xlink:title=" ">
<polygon fill="#e0e0e0" stroke="#999999" points="59,-74 0,-74 0,-55 59,-55 59,-74"/>
<text text-anchor="middle" x="29.5" y="-62" font-family="Helvetica,sans-Serif" font-size="10.00">stdexcept</text>
</a>
</g>
</g>
<!-- Node1&#45;&gt;Node6 -->
<g id="edge24" class="edge">
<title>Node1&#45;&gt;Node6</title>
<path fill="none" stroke="#63b8ff" d="M204.17,-189.91C166.72,-181.04 119.86,-165.69 84.5,-140 63.84,-124.99 47.65,-99.93 38.33,-83.07"/>
<polygon fill="#63b8ff" stroke="#63b8ff" points="41.42,-81.43 33.65,-74.22 35.23,-84.7 41.42,-81.43"/>
</g>
<!-- Node7 -->
<g id="node7" class="node">
<title>Node7</title>
<g id="a_node7"><a xlink:href="_symmetry_functions_8hpp.html" target="_top" xlink:title=" ">
<polygon fill="white" stroke="#666666" points="393.5,-140 241.5,-140 241.5,-110 393.5,-110 393.5,-140"/>
<text text-anchor="start" x="249.5" y="-128" font-family="Helvetica,sans-Serif" font-size="10.00">SymmetryFunctions/Symmetry</text>
<text text-anchor="middle" x="317.5" y="-117" font-family="Helvetica,sans-Serif" font-size="10.00">Functions.hpp</text>
</a>
</g>
</g>
<!-- Node1&#45;&gt;Node7 -->
<g id="edge6" class="edge">
<title>Node1&#45;&gt;Node7</title>
<path fill="none" stroke="#63b8ff" d="M284.43,-175.61C290.17,-166.99 296.55,-157.43 302.16,-149.01"/>
<polygon fill="#63b8ff" stroke="#63b8ff" points="305.25,-150.69 307.88,-140.43 299.42,-146.81 305.25,-150.69"/>
</g>
<!-- Node16 -->
<g id="node16" class="node">
<title>Node16</title>
<g id="a_node16"><a xlink:href="_bispectrum_8hpp.html" target="_top" xlink:title=" ">
<polygon fill="white" stroke="#666666" points="588,-134.5 451,-134.5 451,-115.5 588,-115.5 588,-134.5"/>
<text text-anchor="middle" x="519.5" y="-122.5" font-family="Helvetica,sans-Serif" font-size="10.00">Bispectrum/Bispectrum.hpp</text>
</a>
</g>
</g>
<!-- Node1&#45;&gt;Node16 -->
<g id="edge18" class="edge">
<title>Node1&#45;&gt;Node16</title>
<path fill="none" stroke="#63b8ff" d="M330.76,-182.17C378.08,-168.09 441.23,-149.29 481.14,-137.42"/>
<polygon fill="#63b8ff" stroke="#63b8ff" points="482.18,-140.76 490.76,-134.55 480.18,-134.05 482.18,-140.76"/>
</g>
<!-- Node3 -->
<g id="node3" class="node">
<title>Node3</title>
<g id="a_node3"><a xlink:title=" ">
<polygon fill="#e0e0e0" stroke="#999999" points="210,-74 175,-74 175,-55 210,-55 210,-74"/>
<text text-anchor="middle" x="192.5" y="-62" font-family="Helvetica,sans-Serif" font-size="10.00">map</text>
</a>
</g>
</g>
<!-- Node2&#45;&gt;Node3 -->
<g id="edge2" class="edge">
<title>Node2&#45;&gt;Node3</title>
<path fill="none" stroke="#63b8ff" d="M144.76,-115.37C153.28,-106.47 166.76,-92.39 177.23,-81.45"/>
<polygon fill="#63b8ff" stroke="#63b8ff" points="179.82,-83.81 184.2,-74.17 174.76,-78.97 179.82,-83.81"/>
</g>
<!-- Node2&#45;&gt;Node4 -->
<g id="edge3" class="edge">
<title>Node2&#45;&gt;Node4</title>
<path fill="none" stroke="#63b8ff" d="M136.5,-115.37C136.5,-107.25 136.5,-94.81 136.5,-84.39"/>
<polygon fill="#63b8ff" stroke="#63b8ff" points="140,-84.17 136.5,-74.17 133,-84.17 140,-84.17"/>
</g>
<!-- Node2&#45;&gt;Node5 -->
<g id="edge4" class="edge">
<title>Node2&#45;&gt;Node5</title>
<path fill="none" stroke="#63b8ff" d="M127.29,-115.34C113.29,-101.16 89.97,-72.8 106.5,-55 141.8,-16.99 505.87,-27.18 592.18,-18.48"/>
<polygon fill="#63b8ff" stroke="#63b8ff" points="592.81,-21.93 602.27,-17.15 591.89,-14.99 592.81,-21.93"/>
</g>
<!-- Node2&#45;&gt;Node6 -->
<g id="edge5" class="edge">
<title>Node2&#45;&gt;Node6</title>
<path fill="none" stroke="#63b8ff" d="M120.71,-115.37C103.17,-105.78 74.62,-90.17 54.13,-78.97"/>
<polygon fill="#63b8ff" stroke="#63b8ff" points="55.81,-75.89 45.35,-74.17 52.45,-82.04 55.81,-75.89"/>
</g>
<!-- Node7&#45;&gt;Node3 -->
<g id="edge16" class="edge">
<title>Node7&#45;&gt;Node3</title>
<path fill="none" stroke="#63b8ff" d="M287.56,-109.99C266.83,-100.29 239.47,-87.48 219.42,-78.1"/>
<polygon fill="#63b8ff" stroke="#63b8ff" points="220.77,-74.87 210.23,-73.8 217.81,-81.21 220.77,-74.87"/>
</g>
<!-- Node7&#45;&gt;Node4 -->
<g id="edge17" class="edge">
<title>Node7&#45;&gt;Node4</title>
<path fill="none" stroke="#63b8ff" d="M274.15,-109.99C241.03,-99.28 196.22,-84.8 166.86,-75.31"/>
<polygon fill="#63b8ff" stroke="#63b8ff" points="167.75,-71.92 157.16,-72.18 165.6,-78.58 167.75,-71.92"/>
</g>
<!-- Node8 -->
<g id="node8" class="node">
<title>Node8</title>
<g id="a_node8"><a xlink:href="helper_8hpp.html" target="_top" xlink:title=" ">
<polygon fill="white" stroke="#666666" points="589,-74 528,-74 528,-55 589,-55 589,-74"/>
<text text-anchor="middle" x="558.5" y="-62" font-family="Helvetica,sans-Serif" font-size="10.00">helper.hpp</text>
</a>
</g>
</g>
<!-- Node7&#45;&gt;Node8 -->
<g id="edge7" class="edge">
<title>Node7&#45;&gt;Node8</title>
<path fill="none" stroke="#63b8ff" d="M375.23,-109.99C419.29,-99.29 478.9,-84.82 518,-75.33"/>
<polygon fill="#63b8ff" stroke="#63b8ff" points="518.83,-78.73 527.72,-72.97 517.18,-71.93 518.83,-78.73"/>
</g>
<!-- Node12 -->
<g id="node12" class="node">
<title>Node12</title>
<g id="a_node12"><a xlink:title=" ">
<polygon fill="#e0e0e0" stroke="#999999" points="509.5,-74 423.5,-74 423.5,-55 509.5,-55 509.5,-74"/>
<text text-anchor="middle" x="466.5" y="-62" font-family="Helvetica,sans-Serif" font-size="10.00">Descriptors.hpp</text>
</a>
</g>
</g>
<!-- Node7&#45;&gt;Node12 -->
<g id="edge12" class="edge">
<title>Node7&#45;&gt;Node12</title>
<path fill="none" stroke="#63b8ff" d="M353.19,-109.99C378.16,-100.18 411.2,-87.21 435.16,-77.81"/>
<polygon fill="#63b8ff" stroke="#63b8ff" points="436.47,-81.05 444.5,-74.14 433.91,-74.54 436.47,-81.05"/>
</g>
<!-- Node13 -->
<g id="node13" class="node">
<title>Node13</title>
<g id="a_node13"><a xlink:title=" ">
<polygon fill="#e0e0e0" stroke="#999999" points="279,-74 228,-74 228,-55 279,-55 279,-74"/>
<text text-anchor="middle" x="253.5" y="-62" font-family="Helvetica,sans-Serif" font-size="10.00">numeric</text>
</a>
</g>
</g>
<!-- Node7&#45;&gt;Node13 -->
<g id="edge13" class="edge">
<title>Node7&#45;&gt;Node13</title>
<path fill="none" stroke="#63b8ff" d="M302.01,-109.84C292.53,-101.17 280.39,-90.08 270.62,-81.15"/>
<polygon fill="#63b8ff" stroke="#63b8ff" points="272.83,-78.43 263.09,-74.27 268.11,-83.6 272.83,-78.43"/>
</g>
<!-- Node14 -->
<g id="node14" class="node">
<title>Node14</title>
<g id="a_node14"><a xlink:title=" ">
<polygon fill="#e0e0e0" stroke="#999999" points="341.5,-74 297.5,-74 297.5,-55 341.5,-55 341.5,-74"/>
<text text-anchor="middle" x="319.5" y="-62" font-family="Helvetica,sans-Serif" font-size="10.00">cmath</text>
</a>
</g>
</g>
<!-- Node7&#45;&gt;Node14 -->
<g id="edge14" class="edge">
<title>Node7&#45;&gt;Node14</title>
<path fill="none" stroke="#63b8ff" d="M317.98,-109.84C318.24,-102.21 318.57,-92.7 318.85,-84.45"/>
<polygon fill="#63b8ff" stroke="#63b8ff" points="322.36,-84.38 319.2,-74.27 315.36,-84.14 322.36,-84.38"/>
</g>
<!-- Node15 -->
<g id="node15" class="node">
<title>Node15</title>
<g id="a_node15"><a xlink:title=" ">
<polygon fill="#e0e0e0" stroke="#999999" points="405.5,-74 359.5,-74 359.5,-55 405.5,-55 405.5,-74"/>
<text text-anchor="middle" x="382.5" y="-62" font-family="Helvetica,sans-Serif" font-size="10.00">cstring</text>
</a>
</g>
</g>
<!-- Node7&#45;&gt;Node15 -->
<g id="edge15" class="edge">
<title>Node7&#45;&gt;Node15</title>
<path fill="none" stroke="#63b8ff" d="M333.23,-109.84C342.86,-101.17 355.19,-90.08 365.11,-81.15"/>
<polygon fill="#63b8ff" stroke="#63b8ff" points="367.67,-83.56 372.76,-74.27 362.99,-78.35 367.67,-83.56"/>
</g>
<!-- Node8&#45;&gt;Node5 -->
<g id="edge11" class="edge">
<title>Node8&#45;&gt;Node5</title>
<path fill="none" stroke="#63b8ff" d="M569.1,-54.98C578.96,-47.07 593.85,-35.11 605.72,-25.58"/>
<polygon fill="#63b8ff" stroke="#63b8ff" points="608.1,-28.16 613.7,-19.17 603.71,-22.7 608.1,-28.16"/>
</g>
<!-- Node9 -->
<g id="node9" class="node">
<title>Node9</title>
<g id="a_node9"><a xlink:title=" ">
<polygon fill="#e0e0e0" stroke="#999999" points="442.5,-19 386.5,-19 386.5,0 442.5,0 442.5,-19"/>
<text text-anchor="middle" x="414.5" y="-7" font-family="Helvetica,sans-Serif" font-size="10.00">algorithm</text>
</a>
</g>
</g>
<!-- Node8&#45;&gt;Node9 -->
<g id="edge8" class="edge">
<title>Node8&#45;&gt;Node9</title>
<path fill="none" stroke="#63b8ff" d="M535.36,-54.98C511.68,-46.27 474.63,-32.63 447.79,-22.75"/>
<polygon fill="#63b8ff" stroke="#63b8ff" points="448.65,-19.34 438.06,-19.17 446.23,-25.91 448.65,-19.34"/>
</g>
<!-- Node10 -->
<g id="node10" class="node">
<title>Node10</title>
<g id="a_node10"><a xlink:title=" ">
<polygon fill="#e0e0e0" stroke="#999999" points="514.5,-19 460.5,-19 460.5,0 514.5,0 514.5,-19"/>
<text text-anchor="middle" x="487.5" y="-7" font-family="Helvetica,sans-Serif" font-size="10.00">iostream</text>
</a>
</g>
</g>
<!-- Node8&#45;&gt;Node10 -->
<g id="edge9" class="edge">
<title>Node8&#45;&gt;Node10</title>
<path fill="none" stroke="#63b8ff" d="M547.09,-54.98C536.39,-47 520.16,-34.88 507.34,-25.31"/>
<polygon fill="#63b8ff" stroke="#63b8ff" points="509.22,-22.35 499.11,-19.17 505.03,-27.96 509.22,-22.35"/>
</g>
<!-- Node11 -->
<g id="node11" class="node">
<title>Node11</title>
<g id="a_node11"><a xlink:title=" ">
<polygon fill="#e0e0e0" stroke="#999999" points="584.5,-19 532.5,-19 532.5,0 584.5,0 584.5,-19"/>
<text text-anchor="middle" x="558.5" y="-7" font-family="Helvetica,sans-Serif" font-size="10.00">sstream</text>
</a>
</g>
</g>
<!-- Node8&#45;&gt;Node11 -->
<g id="edge10" class="edge">
<title>Node8&#45;&gt;Node11</title>
<path fill="none" stroke="#63b8ff" d="M558.5,-54.75C558.5,-47.8 558.5,-37.85 558.5,-29.13"/>
<polygon fill="#63b8ff" stroke="#63b8ff" points="562,-29.09 558.5,-19.09 555,-29.09 562,-29.09"/>
</g>
<!-- Node16&#45;&gt;Node5 -->
<g id="edge21" class="edge">
<title>Node16&#45;&gt;Node5</title>
<path fill="none" stroke="#63b8ff" d="M539.83,-115.47C557.44,-107.18 582.55,-93.03 598.5,-74 609.49,-60.89 616.33,-42.5 620.22,-28.89"/>
<polygon fill="#63b8ff" stroke="#63b8ff" points="623.62,-29.74 622.73,-19.18 616.84,-27.99 623.62,-29.74"/>
</g>
<!-- Node16&#45;&gt;Node8 -->
<g id="edge19" class="edge">
<title>Node16&#45;&gt;Node8</title>
<path fill="none" stroke="#63b8ff" d="M525.25,-115.37C530.96,-106.81 539.85,-93.47 547.01,-82.74"/>
<polygon fill="#63b8ff" stroke="#63b8ff" points="550.09,-84.43 552.72,-74.17 544.26,-80.55 550.09,-84.43"/>
</g>
<!-- Node16&#45;&gt;Node12 -->
<g id="edge20" class="edge">
<title>Node16&#45;&gt;Node12</title>
<path fill="none" stroke="#63b8ff" d="M511.68,-115.37C503.69,-106.55 491.11,-92.66 481.24,-81.77"/>
<polygon fill="#63b8ff" stroke="#63b8ff" points="483.66,-79.23 474.35,-74.17 478.47,-83.93 483.66,-79.23"/>
</g>
</g>
</svg>
