<?xml version="1.0" encoding="UTF-8" standalone="no"?>
<!DOCTYPE svg PUBLIC "-//W3C//DTD SVG 1.1//EN"
 "http://www.w3.org/Graphics/SVG/1.1/DTD/svg11.dtd">
<!-- Generated by graphviz version 2.43.0 (0)
 -->
<!-- Title: /home/amit/Projects/COLABFIT/colabfit&#45;kim&#45;model/colabfit&#45;descriptor&#45;library/Descriptors.hpp Pages: 1 -->
<svg width="242pt" height="115pt"
 viewBox="0.00 0.00 242.00 115.00" xmlns="http://www.w3.org/2000/svg" xmlns:xlink="http://www.w3.org/1999/xlink">
<g id="graph0" class="graph" transform="scale(1 1) rotate(0) translate(4 111)">
<title>/home/amit/Projects/COLABFIT/colabfit&#45;kim&#45;model/colabfit&#45;descriptor&#45;library/Descriptors.hpp</title>
<!-- Node1 -->
<g id="node1" class="node">
<title>Node1</title>
<g id="a_node1"><a xlink:title=" ">
<polygon fill="#999999" stroke="#666666" points="166.5,-107 40.5,-107 40.5,-55 166.5,-55 166.5,-107"/>
<text text-anchor="start" x="48.5" y="-95" font-family="Helvetica,sans-Serif" font-size="10.00">/home/amit/Projects</text>
<text text-anchor="start" x="48.5" y="-84" font-family="Helvetica,sans-Serif" font-size="10.00">/COLABFIT/colabfit&#45;kim</text>
<text text-anchor="start" x="48.5" y="-73" font-family="Helvetica,sans-Serif" font-size="10.00">&#45;model/colabfit&#45;descriptor</text>
<text text-anchor="middle" x="103.5" y="-62" font-family="Helvetica,sans-Serif" font-size="10.00">&#45;library/Descriptors.hpp</text>
</a>
</g>
</g>
<!-- Node2 -->
<g id="node2" class="node">
<title>Node2</title>
<g id="a_node2"><a xlink:title=" ">
<polygon fill="#e0e0e0" stroke="#999999" points="35,-19 0,-19 0,0 35,0 35,-19"/>
<text text-anchor="middle" x="17.5" y="-7" font-family="Helvetica,sans-Serif" font-size="10.00">map</text>
</a>
</g>
</g>
<!-- Node1&#45;&gt;Node2 -->
<g id="edge1" class="edge">
<title>Node1&#45;&gt;Node2</title>
<path fill="none" stroke="#63b8ff" d="M72.45,-54.91C60.3,-45.09 46.77,-34.16 36.18,-25.59"/>
<polygon fill="#63b8ff" stroke="#63b8ff" points="38.37,-22.87 28.39,-19.3 33.97,-28.31 38.37,-22.87"/>
</g>
<!-- Node3 -->
<g id="node3" class="node">
<title>Node3</title>
<g id="a_node3"><a xlink:title=" ">
<polygon fill="#e0e0e0" stroke="#999999" points="94,-19 53,-19 53,0 94,0 94,-19"/>
<text text-anchor="middle" x="73.5" y="-7" font-family="Helvetica,sans-Serif" font-size="10.00">string</text>
</a>
</g>
</g>
<!-- Node1&#45;&gt;Node3 -->
<g id="edge2" class="edge">
<title>Node1&#45;&gt;Node3</title>
<path fill="none" stroke="#63b8ff" d="M92.67,-54.91C88.93,-46.26 84.83,-36.74 81.37,-28.74"/>
<polygon fill="#63b8ff" stroke="#63b8ff" points="84.48,-27.1 77.3,-19.3 78.05,-29.87 84.48,-27.1"/>
</g>
<!-- Node4 -->
<g id="node4" class="node">
<title>Node4</title>
<g id="a_node4"><a xlink:title=" ">
<polygon fill="#e0e0e0" stroke="#999999" points="156.5,-19 112.5,-19 112.5,0 156.5,0 156.5,-19"/>
<text text-anchor="middle" x="134.5" y="-7" font-family="Helvetica,sans-Serif" font-size="10.00">vector</text>
</a>
</g>
</g>
<!-- Node1&#45;&gt;Node4 -->
<g id="edge3" class="edge">
<title>Node1&#45;&gt;Node4</title>
<path fill="none" stroke="#63b8ff" d="M114.69,-54.91C118.59,-46.16 122.89,-36.52 126.48,-28.47"/>
<polygon fill="#63b8ff" stroke="#63b8ff" points="129.7,-29.86 130.57,-19.3 123.3,-27.01 129.7,-29.86"/>
</g>
<!-- Node5 -->
<g id="node5" class="node">
<title>Node5</title>
<g id="a_node5"><a xlink:title=" ">
<polygon fill="#e0e0e0" stroke="#999999" points="234,-19 175,-19 175,0 234,0 234,-19"/>
<text text-anchor="middle" x="204.5" y="-7" font-family="Helvetica,sans-Serif" font-size="10.00">stdexcept</text>
</a>
</g>
</g>
<!-- Node1&#45;&gt;Node5 -->
<g id="edge4" class="edge">
<title>Node1&#45;&gt;Node5</title>
<path fill="none" stroke="#63b8ff" d="M139.96,-54.91C154.51,-44.9 170.75,-33.72 183.3,-25.09"/>
<polygon fill="#63b8ff" stroke="#63b8ff" points="185.45,-27.85 191.71,-19.3 181.49,-22.09 185.45,-27.85"/>
</g>
</g>
</svg>
