<?xml version="1.0" encoding="UTF-8" standalone="no"?>
<!DOCTYPE svg PUBLIC "-//W3C//DTD SVG 1.1//EN"
 "http://www.w3.org/Graphics/SVG/1.1/DTD/svg11.dtd">
<!-- Generated by graphviz version 2.43.0 (0)
 -->
<!-- Title: /home/amit/Projects/COLABFIT/colabfit&#45;kim&#45;model/colabfit&#45;descriptor&#45;library/Descriptors.cpp Pages: 1 -->
<svg width="577pt" height="236pt"
 viewBox="0.00 0.00 576.51 236.00" xmlns="http://www.w3.org/2000/svg" xmlns:xlink="http://www.w3.org/1999/xlink">
<g id="graph0" class="graph" transform="scale(1 1) rotate(0) translate(4 232)">
<title>/home/amit/Projects/COLABFIT/colabfit&#45;kim&#45;model/colabfit&#45;descriptor&#45;library/Descriptors.cpp</title>
<!-- Node1 -->
<g id="node1" class="node">
<title>Node1</title>
<g id="a_node1"><a xlink:title=" ">
<polygon fill="#999999" stroke="#666666" points="285,-228 159,-228 159,-176 285,-176 285,-228"/>
<text text-anchor="start" x="167" y="-216" font-family="Helvetica,sans-Serif" font-size="10.00">/home/amit/Projects</text>
<text text-anchor="start" x="167" y="-205" font-family="Helvetica,sans-Serif" font-size="10.00">/COLABFIT/colabfit&#45;kim</text>
<text text-anchor="start" x="167" y="-194" font-family="Helvetica,sans-Serif" font-size="10.00">&#45;model/colabfit&#45;descriptor</text>
<text text-anchor="middle" x="222" y="-183" font-family="Helvetica,sans-Serif" font-size="10.00">&#45;library/Descriptors.cpp</text>
</a>
</g>
</g>
<!-- Node2 -->
<g id="node2" class="node">
<title>Node2</title>
<g id="a_node2"><a xlink:href="_descriptors_8hpp.html" target="_top" xlink:title=" ">
<polygon fill="white" stroke="#666666" points="284,-74 198,-74 198,-55 284,-55 284,-74"/>
<text text-anchor="middle" x="241" y="-62" font-family="Helvetica,sans-Serif" font-size="10.00">Descriptors.hpp</text>
</a>
</g>
</g>
<!-- Node1&#45;&gt;Node2 -->
<g id="edge1" class="edge">
<title>Node1&#45;&gt;Node2</title>
<path fill="none" stroke="#63b8ff" d="M225.53,-175.83C229.26,-149.26 235.04,-107.99 238.38,-84.18"/>
<polygon fill="#63b8ff" stroke="#63b8ff" points="241.88,-84.42 239.8,-74.03 234.95,-83.45 241.88,-84.42"/>
</g>
<!-- Node4 -->
<g id="node4" class="node">
<title>Node4</title>
<g id="a_node4"><a xlink:title=" ">
<polygon fill="#e0e0e0" stroke="#999999" points="319.5,-19 278.5,-19 278.5,0 319.5,0 319.5,-19"/>
<text text-anchor="middle" x="299" y="-7" font-family="Helvetica,sans-Serif" font-size="10.00">string</text>
</a>
</g>
</g>
<!-- Node1&#45;&gt;Node4 -->
<g id="edge23" class="edge">
<title>Node1&#45;&gt;Node4</title>
<path fill="none" stroke="#63b8ff" d="M211.78,-175.77C197.79,-139.41 175.85,-74.5 189,-55 193.73,-47.99 237.66,-31.66 268.55,-20.85"/>
<polygon fill="#63b8ff" stroke="#63b8ff" points="269.75,-24.14 278.05,-17.56 267.46,-17.53 269.75,-24.14"/>
</g>
<!-- Node5 -->
<g id="node5" class="node">
<title>Node5</title>
<g id="a_node5"><a xlink:title=" ">
<polygon fill="#e0e0e0" stroke="#999999" points="44,-19 0,-19 0,0 44,0 44,-19"/>
<text text-anchor="middle" x="22" y="-7" font-family="Helvetica,sans-Serif" font-size="10.00">vector</text>
</a>
</g>
</g>
<!-- Node1&#45;&gt;Node5 -->
<g id="edge22" class="edge">
<title>Node1&#45;&gt;Node5</title>
<path fill="none" stroke="#63b8ff" d="M158.58,-199.06C114.54,-194.04 58.48,-179.58 28,-140 3.14,-107.71 10.44,-56.32 16.85,-29"/>
<polygon fill="#63b8ff" stroke="#63b8ff" points="20.27,-29.74 19.36,-19.19 13.49,-28.01 20.27,-29.74"/>
</g>
<!-- Node6 -->
<g id="node6" class="node">
<title>Node6</title>
<g id="a_node6"><a xlink:title=" ">
<polygon fill="#e0e0e0" stroke="#999999" points="547.5,-19 488.5,-19 488.5,0 547.5,0 547.5,-19"/>
<text text-anchor="middle" x="518" y="-7" font-family="Helvetica,sans-Serif" font-size="10.00">stdexcept</text>
</a>
</g>
</g>
<!-- Node1&#45;&gt;Node6 -->
<g id="edge24" class="edge">
<title>Node1&#45;&gt;Node6</title>
<path fill="none" stroke="#63b8ff" d="M285.05,-199.59C367.32,-193.84 507.54,-169.67 565,-74 575.58,-56.38 557.67,-37.62 540.99,-25.1"/>
<polygon fill="#63b8ff" stroke="#63b8ff" points="542.74,-22.05 532.54,-19.17 538.71,-27.78 542.74,-22.05"/>
</g>
<!-- Node7 -->
<g id="node7" class="node">
<title>Node7</title>
<g id="a_node7"><a xlink:href="_symmetry_functions_8hpp.html" target="_top" xlink:title=" ">
<polygon fill="white" stroke="#666666" points="432,-140 280,-140 280,-110 432,-110 432,-140"/>
<text text-anchor="start" x="288" y="-128" font-family="Helvetica,sans-Serif" font-size="10.00">SymmetryFunctions/Symmetry</text>
<text text-anchor="middle" x="356" y="-117" font-family="Helvetica,sans-Serif" font-size="10.00">Functions.hpp</text>
</a>
</g>
</g>
<!-- Node1&#45;&gt;Node7 -->
<g id="edge6" class="edge">
<title>Node1&#45;&gt;Node7</title>
<path fill="none" stroke="#63b8ff" d="M266.99,-175.82C284.96,-165.76 305.29,-154.38 321.99,-145.04"/>
<polygon fill="#63b8ff" stroke="#63b8ff" points="323.83,-148.01 330.85,-140.08 320.41,-141.91 323.83,-148.01"/>
</g>
<!-- Node15 -->
<g id="node15" class="node">
<title>Node15</title>
<g id="a_node15"><a xlink:href="_bispectrum_8hpp.html" target="_top" xlink:title=" ">
<polygon fill="white" stroke="#666666" points="174.5,-134.5 37.5,-134.5 37.5,-115.5 174.5,-115.5 174.5,-134.5"/>
<text text-anchor="middle" x="106" y="-122.5" font-family="Helvetica,sans-Serif" font-size="10.00">Bispectrum/Bispectrum.hpp</text>
</a>
</g>
</g>
<!-- Node1&#45;&gt;Node15 -->
<g id="edge18" class="edge">
<title>Node1&#45;&gt;Node15</title>
<path fill="none" stroke="#63b8ff" d="M183.05,-175.82C164.56,-163.86 143.17,-150.03 127.63,-139.98"/>
<polygon fill="#63b8ff" stroke="#63b8ff" points="129.51,-137.03 119.21,-134.54 125.71,-142.91 129.51,-137.03"/>
</g>
<!-- Node3 -->
<g id="node3" class="node">
<title>Node3</title>
<g id="a_node3"><a xlink:title=" ">
<polygon fill="#e0e0e0" stroke="#999999" points="404.5,-19 369.5,-19 369.5,0 404.5,0 404.5,-19"/>
<text text-anchor="middle" x="387" y="-7" font-family="Helvetica,sans-Serif" font-size="10.00">map</text>
</a>
</g>
</g>
<!-- Node2&#45;&gt;Node3 -->
<g id="edge2" class="edge">
<title>Node2&#45;&gt;Node3</title>
<path fill="none" stroke="#63b8ff" d="M264.46,-54.98C290.33,-45.59 331.93,-30.49 359.36,-20.53"/>
<polygon fill="#63b8ff" stroke="#63b8ff" points="360.92,-23.69 369.12,-16.99 358.53,-17.11 360.92,-23.69"/>
</g>
<!-- Node2&#45;&gt;Node4 -->
<g id="edge3" class="edge">
<title>Node2&#45;&gt;Node4</title>
<path fill="none" stroke="#63b8ff" d="M250.32,-54.98C258.81,-47.23 271.56,-35.58 281.88,-26.14"/>
<polygon fill="#63b8ff" stroke="#63b8ff" points="284.49,-28.5 289.51,-19.17 279.77,-23.33 284.49,-28.5"/>
</g>
<!-- Node2&#45;&gt;Node5 -->
<g id="edge4" class="edge">
<title>Node2&#45;&gt;Node5</title>
<path fill="none" stroke="#63b8ff" d="M203.09,-54.94C167.14,-46.73 111.35,-33.75 54.25,-19.25"/>
<polygon fill="#63b8ff" stroke="#63b8ff" points="54.88,-15.8 44.33,-16.72 53.15,-22.59 54.88,-15.8"/>
</g>
<!-- Node2&#45;&gt;Node6 -->
<g id="edge5" class="edge">
<title>Node2&#45;&gt;Node6</title>
<path fill="none" stroke="#63b8ff" d="M284.28,-55.22C337.38,-45.06 426.67,-27.98 478.15,-18.13"/>
<polygon fill="#63b8ff" stroke="#63b8ff" points="479.06,-21.51 488.22,-16.2 477.75,-14.64 479.06,-21.51"/>
</g>
<!-- Node7&#45;&gt;Node2 -->
<g id="edge12" class="edge">
<title>Node7&#45;&gt;Node2</title>
<path fill="none" stroke="#63b8ff" d="M328.45,-109.99C309.78,-100.49 285.26,-88.02 266.94,-78.69"/>
<polygon fill="#63b8ff" stroke="#63b8ff" points="268.48,-75.55 257.98,-74.14 265.31,-81.79 268.48,-75.55"/>
</g>
<!-- Node7&#45;&gt;Node3 -->
<g id="edge16" class="edge">
<title>Node7&#45;&gt;Node3</title>
<path fill="none" stroke="#63b8ff" d="M373.63,-109.81C383.43,-100.74 394.69,-88.06 400,-74 405.58,-59.21 401.12,-41.54 395.96,-28.59"/>
<polygon fill="#63b8ff" stroke="#63b8ff" points="399.12,-27.08 391.85,-19.37 392.73,-29.93 399.12,-27.08"/>
</g>
<!-- Node7&#45;&gt;Node4 -->
<g id="edge17" class="edge">
<title>Node7&#45;&gt;Node4</title>
<path fill="none" stroke="#63b8ff" d="M348.78,-109.63C338.39,-88.93 319.23,-50.78 307.95,-28.32"/>
<polygon fill="#63b8ff" stroke="#63b8ff" points="311,-26.6 303.38,-19.23 304.74,-29.74 311,-26.6"/>
</g>
<!-- Node8 -->
<g id="node8" class="node">
<title>Node8</title>
<g id="a_node8"><a xlink:href="helper_8hpp.html" target="_top" xlink:title=" ">
<polygon fill="white" stroke="#666666" points="138.5,-74 77.5,-74 77.5,-55 138.5,-55 138.5,-74"/>
<text text-anchor="middle" x="108" y="-62" font-family="Helvetica,sans-Serif" font-size="10.00">helper.hpp</text>
</a>
</g>
</g>
<!-- Node7&#45;&gt;Node8 -->
<g id="edge7" class="edge">
<title>Node7&#45;&gt;Node8</title>
<path fill="none" stroke="#63b8ff" d="M296.6,-109.99C250.86,-99.2 188.84,-84.57 148.63,-75.08"/>
<polygon fill="#63b8ff" stroke="#63b8ff" points="149.18,-71.62 138.64,-72.73 147.57,-78.43 149.18,-71.62"/>
</g>
<!-- Node12 -->
<g id="node12" class="node">
<title>Node12</title>
<g id="a_node12"><a xlink:title=" ">
<polygon fill="#e0e0e0" stroke="#999999" points="391.5,-74 340.5,-74 340.5,-55 391.5,-55 391.5,-74"/>
<text text-anchor="middle" x="366" y="-62" font-family="Helvetica,sans-Serif" font-size="10.00">numeric</text>
</a>
</g>
</g>
<!-- Node7&#45;&gt;Node12 -->
<g id="edge13" class="edge">
<title>Node7&#45;&gt;Node12</title>
<path fill="none" stroke="#63b8ff" d="M358.42,-109.84C359.74,-102.13 361.39,-92.49 362.81,-84.17"/>
<polygon fill="#63b8ff" stroke="#63b8ff" points="366.27,-84.71 364.5,-74.27 359.37,-83.53 366.27,-84.71"/>
</g>
<!-- Node13 -->
<g id="node13" class="node">
<title>Node13</title>
<g id="a_node13"><a xlink:title=" ">
<polygon fill="#e0e0e0" stroke="#999999" points="492,-74 448,-74 448,-55 492,-55 492,-74"/>
<text text-anchor="middle" x="470" y="-62" font-family="Helvetica,sans-Serif" font-size="10.00">cmath</text>
</a>
</g>
</g>
<!-- Node7&#45;&gt;Node13 -->
<g id="edge14" class="edge">
<title>Node7&#45;&gt;Node13</title>
<path fill="none" stroke="#63b8ff" d="M383.31,-109.99C401.65,-100.58 425.68,-88.24 443.79,-78.95"/>
<polygon fill="#63b8ff" stroke="#63b8ff" points="445.87,-81.82 453.16,-74.14 442.67,-75.59 445.87,-81.82"/>
</g>
<!-- Node14 -->
<g id="node14" class="node">
<title>Node14</title>
<g id="a_node14"><a xlink:title=" ">
<polygon fill="#e0e0e0" stroke="#999999" points="556,-74 510,-74 510,-55 556,-55 556,-74"/>
<text text-anchor="middle" x="533" y="-62" font-family="Helvetica,sans-Serif" font-size="10.00">cstring</text>
</a>
</g>
</g>
<!-- Node7&#45;&gt;Node14 -->
<g id="edge15" class="edge">
<title>Node7&#45;&gt;Node14</title>
<path fill="none" stroke="#63b8ff" d="M398.4,-109.99C429.68,-99.65 471.64,-85.78 500.34,-76.29"/>
<polygon fill="#63b8ff" stroke="#63b8ff" points="501.51,-79.59 509.9,-73.13 499.31,-72.95 501.51,-79.59"/>
</g>
<!-- Node8&#45;&gt;Node5 -->
<g id="edge11" class="edge">
<title>Node8&#45;&gt;Node5</title>
<path fill="none" stroke="#63b8ff" d="M94.18,-54.98C80.85,-46.77 60.42,-34.18 44.69,-24.49"/>
<polygon fill="#63b8ff" stroke="#63b8ff" points="46.42,-21.44 36.07,-19.17 42.75,-27.4 46.42,-21.44"/>
</g>
<!-- Node9 -->
<g id="node9" class="node">
<title>Node9</title>
<g id="a_node9"><a xlink:title=" ">
<polygon fill="#e0e0e0" stroke="#999999" points="188,-19 132,-19 132,0 188,0 188,-19"/>
<text text-anchor="middle" x="160" y="-7" font-family="Helvetica,sans-Serif" font-size="10.00">algorithm</text>
</a>
</g>
</g>
<!-- Node8&#45;&gt;Node9 -->
<g id="edge8" class="edge">
<title>Node8&#45;&gt;Node9</title>
<path fill="none" stroke="#63b8ff" d="M116.59,-54.75C124.16,-47.03 135.38,-35.6 144.51,-26.28"/>
<polygon fill="#63b8ff" stroke="#63b8ff" points="147.07,-28.68 151.57,-19.09 142.07,-23.78 147.07,-28.68"/>
</g>
<!-- Node10 -->
<g id="node10" class="node">
<title>Node10</title>
<g id="a_node10"><a xlink:title=" ">
<polygon fill="#e0e0e0" stroke="#999999" points="260,-19 206,-19 206,0 260,0 260,-19"/>
<text text-anchor="middle" x="233" y="-7" font-family="Helvetica,sans-Serif" font-size="10.00">iostream</text>
</a>
</g>
</g>
<!-- Node8&#45;&gt;Node10 -->
<g id="edge9" class="edge">
<title>Node8&#45;&gt;Node10</title>
<path fill="none" stroke="#63b8ff" d="M128.08,-54.98C148.37,-46.38 179.96,-32.99 203.17,-23.15"/>
<polygon fill="#63b8ff" stroke="#63b8ff" points="204.71,-26.3 212.55,-19.17 201.98,-19.85 204.71,-26.3"/>
</g>
<!-- Node11 -->
<g id="node11" class="node">
<title>Node11</title>
<g id="a_node11"><a xlink:title=" ">
<polygon fill="#e0e0e0" stroke="#999999" points="114,-19 62,-19 62,0 114,0 114,-19"/>
<text text-anchor="middle" x="88" y="-7" font-family="Helvetica,sans-Serif" font-size="10.00">sstream</text>
</a>
</g>
</g>
<!-- Node8&#45;&gt;Node11 -->
<g id="edge10" class="edge">
<title>Node8&#45;&gt;Node11</title>
<path fill="none" stroke="#63b8ff" d="M104.7,-54.75C102.02,-47.65 98.15,-37.4 94.81,-28.56"/>
<polygon fill="#63b8ff" stroke="#63b8ff" points="98.05,-27.21 91.24,-19.09 91.5,-29.68 98.05,-27.21"/>
</g>
<!-- Node15&#45;&gt;Node2 -->
<g id="edge20" class="edge">
<title>Node15&#45;&gt;Node2</title>
<path fill="none" stroke="#63b8ff" d="M125.63,-115.49C148.33,-105.66 185.9,-89.38 211.97,-78.08"/>
<polygon fill="#63b8ff" stroke="#63b8ff" points="213.56,-81.2 221.35,-74.02 210.78,-74.78 213.56,-81.2"/>
</g>
<!-- Node15&#45;&gt;Node5 -->
<g id="edge21" class="edge">
<title>Node15&#45;&gt;Node5</title>
<path fill="none" stroke="#63b8ff" d="M99.21,-115.19C91.56,-105.24 78.79,-88.53 68,-74 56.38,-58.34 43.36,-40.33 34.15,-27.49"/>
<polygon fill="#63b8ff" stroke="#63b8ff" points="36.86,-25.26 28.19,-19.17 31.17,-29.34 36.86,-25.26"/>
</g>
<!-- Node15&#45;&gt;Node8 -->
<g id="edge19" class="edge">
<title>Node15&#45;&gt;Node8</title>
<path fill="none" stroke="#63b8ff" d="M106.3,-115.37C106.57,-107.25 107,-94.81 107.35,-84.39"/>
<polygon fill="#63b8ff" stroke="#63b8ff" points="110.86,-84.28 107.7,-74.17 103.86,-84.04 110.86,-84.28"/>
</g>
</g>
</svg>
