<?xml version="1.0" encoding="UTF-8" standalone="no"?>
<!DOCTYPE svg PUBLIC "-//W3C//DTD SVG 1.1//EN"
 "http://www.w3.org/Graphics/SVG/1.1/DTD/svg11.dtd">
<!-- Generated by graphviz version 2.43.0 (0)
 -->
<!-- Title: Descriptor::DescriptorKind Pages: 1 -->
<svg width="196pt" height="82pt"
 viewBox="0.00 0.00 196.00 82.00" xmlns="http://www.w3.org/2000/svg" xmlns:xlink="http://www.w3.org/1999/xlink">
<g id="graph0" class="graph" transform="scale(1 1) rotate(0) translate(4 78)">
<title>Descriptor::DescriptorKind</title>
<!-- Node1 -->
<g id="node1" class="node">
<title>Node1</title>
<g id="a_node1"><a xlink:title="Base class for all descriptors.">
<polygon fill="#999999" stroke="#666666" points="150,-74 18,-74 18,-55 150,-55 150,-74"/>
<text text-anchor="middle" x="84" y="-62" font-family="Helvetica,sans-Serif" font-size="10.00">Descriptor::DescriptorKind</text>
</a>
</g>
</g>
<!-- Node2 -->
<g id="node2" class="node">
<title>Node2</title>
<g id="a_node2"><a xlink:href="class_bispectrum.html" target="_top" xlink:title="This implementation is based on the method outlined in Bartok[1], using formulae from VMK[2].">
<polygon fill="white" stroke="#666666" points="66,-19 0,-19 0,0 66,0 66,-19"/>
<text text-anchor="middle" x="33" y="-7" font-family="Helvetica,sans-Serif" font-size="10.00">Bispectrum</text>
</a>
</g>
</g>
<!-- Node1&#45;&gt;Node2 -->
<g id="edge1" class="edge">
<title>Node1&#45;&gt;Node2</title>
<path fill="none" stroke="#63b8ff" d="M68.62,-47.52C59.63,-38.18 48.64,-26.75 41.26,-19.09"/>
<polygon fill="#63b8ff" stroke="#63b8ff" points="66.12,-49.97 75.58,-54.75 71.17,-45.12 66.12,-49.97"/>
</g>
<!-- Node3 -->
<g id="node3" class="node">
<title>Node3</title>
<g id="a_node3"><a xlink:href="class_symmetry_functions.html" target="_top" xlink:title=" ">
<polygon fill="white" stroke="#666666" points="188,-19 84,-19 84,0 188,0 188,-19"/>
<text text-anchor="middle" x="136" y="-7" font-family="Helvetica,sans-Serif" font-size="10.00">SymmetryFunctions</text>
</a>
</g>
</g>
<!-- Node1&#45;&gt;Node3 -->
<g id="edge2" class="edge">
<title>Node1&#45;&gt;Node3</title>
<path fill="none" stroke="#63b8ff" d="M99.68,-47.52C108.84,-38.18 120.05,-26.75 127.57,-19.09"/>
<polygon fill="#63b8ff" stroke="#63b8ff" points="97.09,-45.16 92.59,-54.75 102.09,-50.06 97.09,-45.16"/>
</g>
</g>
</svg>
