<?xml version="1.0" encoding="UTF-8" standalone="no"?>
<!DOCTYPE svg PUBLIC "-//W3C//DTD SVG 1.1//EN"
 "http://www.w3.org/Graphics/SVG/1.1/DTD/svg11.dtd">
<!-- Generated by graphviz version 2.43.0 (0)
 -->
<!-- Title: Descriptor::DescriptorKind Pages: 1 -->
<svg width="308pt" height="82pt"
 viewBox="0.00 0.00 308.00 82.00" xmlns="http://www.w3.org/2000/svg" xmlns:xlink="http://www.w3.org/1999/xlink">
<g id="graph0" class="graph" transform="scale(1 1) rotate(0) translate(4 78)">
<title>Descriptor::DescriptorKind</title>
<!-- Node1 -->
<g id="node1" class="node">
<title>Node1</title>
<g id="a_node1"><a xlink:title="Base class for all descriptors.">
<polygon fill="#999999" stroke="#666666" points="197,-74 65,-74 65,-55 197,-55 197,-74"/>
<text text-anchor="middle" x="131" y="-62" font-family="Helvetica,sans-Serif" font-size="10.00">Descriptor::DescriptorKind</text>
</a>
</g>
</g>
<!-- Node2 -->
<g id="node2" class="node">
<title>Node2</title>
<g id="a_node2"><a xlink:href="class_bispectrum.html" target="_top" xlink:title="This implementation is based on the method outlined in Bartok[1], using formulae from VMK[2].">
<polygon fill="white" stroke="#666666" points="66,-19 0,-19 0,0 66,0 66,-19"/>
<text text-anchor="middle" x="33" y="-7" font-family="Helvetica,sans-Serif" font-size="10.00">Bispectrum</text>
</a>
</g>
</g>
<!-- Node1&#45;&gt;Node2 -->
<g id="edge1" class="edge">
<title>Node1&#45;&gt;Node2</title>
<path fill="none" stroke="#63b8ff" d="M105.97,-49.97C88.06,-40.28 64.47,-27.52 49.03,-19.17"/>
<polygon fill="#63b8ff" stroke="#63b8ff" points="104.79,-53.31 115.25,-54.98 108.12,-47.15 104.79,-53.31"/>
</g>
<!-- Node3 -->
<g id="node3" class="node">
<title>Node3</title>
<g id="a_node3"><a xlink:href="class_py_descriptor_kind.html" target="_top" xlink:title=" ">
<polygon fill="white" stroke="#666666" points="177.5,-19 84.5,-19 84.5,0 177.5,0 177.5,-19"/>
<text text-anchor="middle" x="131" y="-7" font-family="Helvetica,sans-Serif" font-size="10.00">PyDescriptorKind</text>
</a>
</g>
</g>
<!-- Node1&#45;&gt;Node3 -->
<g id="edge2" class="edge">
<title>Node1&#45;&gt;Node3</title>
<path fill="none" stroke="#63b8ff" d="M131,-44.66C131,-35.93 131,-25.99 131,-19.09"/>
<polygon fill="#63b8ff" stroke="#63b8ff" points="127.5,-44.75 131,-54.75 134.5,-44.75 127.5,-44.75"/>
</g>
<!-- Node4 -->
<g id="node4" class="node">
<title>Node4</title>
<g id="a_node4"><a xlink:href="class_symmetry_functions.html" target="_top" xlink:title=" ">
<polygon fill="white" stroke="#666666" points="300,-19 196,-19 196,0 300,0 300,-19"/>
<text text-anchor="middle" x="248" y="-7" font-family="Helvetica,sans-Serif" font-size="10.00">SymmetryFunctions</text>
</a>
</g>
</g>
<!-- Node1&#45;&gt;Node4 -->
<g id="edge3" class="edge">
<title>Node1&#45;&gt;Node4</title>
<path fill="none" stroke="#63b8ff" d="M159.11,-50.77C180.69,-40.99 209.91,-27.75 228.86,-19.17"/>
<polygon fill="#63b8ff" stroke="#63b8ff" points="157.46,-47.67 149.8,-54.98 160.35,-54.05 157.46,-47.67"/>
</g>
</g>
</svg>
