<?xml version="1.0" encoding="UTF-8" standalone="no"?>
<!DOCTYPE svg PUBLIC "-//W3C//DTD SVG 1.1//EN"
 "http://www.w3.org/Graphics/SVG/1.1/DTD/svg11.dtd">
<!-- Generated by graphviz version 2.43.0 (0)
 -->
<!-- Title: /home/amit/Projects/COLABFIT/colabfit&#45;kim&#45;model/colabfit&#45;descriptor&#45;library/helper.hpp Pages: 1 -->
<svg width="550pt" height="258pt"
 viewBox="0.00 0.00 550.00 258.00" xmlns="http://www.w3.org/2000/svg" xmlns:xlink="http://www.w3.org/1999/xlink">
<g id="graph0" class="graph" transform="scale(1 1) rotate(0) translate(4 254)">
<title>/home/amit/Projects/COLABFIT/colabfit&#45;kim&#45;model/colabfit&#45;descriptor&#45;library/helper.hpp</title>
<!-- Node1 -->
<g id="node1" class="node">
<title>Node1</title>
<g id="a_node1"><a xlink:title=" ">
<polygon fill="#999999" stroke="#666666" points="392,-250 266,-250 266,-198 392,-198 392,-250"/>
<text text-anchor="start" x="274" y="-238" font-family="Helvetica,sans-Serif" font-size="10.00">/home/amit/Projects</text>
<text text-anchor="start" x="274" y="-227" font-family="Helvetica,sans-Serif" font-size="10.00">/COLABFIT/colabfit&#45;kim</text>
<text text-anchor="start" x="274" y="-216" font-family="Helvetica,sans-Serif" font-size="10.00">&#45;model/colabfit&#45;descriptor</text>
<text text-anchor="middle" x="329" y="-205" font-family="Helvetica,sans-Serif" font-size="10.00">&#45;library/helper.hpp</text>
</a>
</g>
</g>
<!-- Node2 -->
<g id="node2" class="node">
<title>Node2</title>
<g id="a_node2"><a xlink:href="_bispectrum_8hpp.html" target="_top" xlink:title=" ">
<polygon fill="white" stroke="#666666" points="242,-156.5 72,-156.5 72,-104.5 242,-104.5 242,-156.5"/>
<text text-anchor="start" x="80" y="-144.5" font-family="Helvetica,sans-Serif" font-size="10.00">/home/amit/Projects</text>
<text text-anchor="start" x="80" y="-133.5" font-family="Helvetica,sans-Serif" font-size="10.00">/COLABFIT/colabfit&#45;kim</text>
<text text-anchor="start" x="80" y="-122.5" font-family="Helvetica,sans-Serif" font-size="10.00">&#45;model/colabfit&#45;descriptor</text>
<text text-anchor="middle" x="157" y="-111.5" font-family="Helvetica,sans-Serif" font-size="10.00">&#45;library/Bispectrum/Bispectrum.hpp</text>
</a>
</g>
</g>
<!-- Node1&#45;&gt;Node2 -->
<g id="edge1" class="edge">
<title>Node1&#45;&gt;Node2</title>
<path fill="none" stroke="#63b8ff" d="M273.01,-193.21C250.79,-181.39 225.52,-167.95 204.24,-156.63"/>
<polygon fill="#63b8ff" stroke="#63b8ff" points="271.53,-196.39 282,-198 274.82,-190.21 271.53,-196.39"/>
</g>
<!-- Node5 -->
<g id="node5" class="node">
<title>Node5</title>
<g id="a_node5"><a xlink:href="_symmetry_functions_8hpp.html" target="_top" xlink:title=" ">
<polygon fill="white" stroke="#666666" points="397.5,-162 260.5,-162 260.5,-99 397.5,-99 397.5,-162"/>
<text text-anchor="start" x="268.5" y="-150" font-family="Helvetica,sans-Serif" font-size="10.00">/home/amit/Projects</text>
<text text-anchor="start" x="268.5" y="-139" font-family="Helvetica,sans-Serif" font-size="10.00">/COLABFIT/colabfit&#45;kim</text>
<text text-anchor="start" x="268.5" y="-128" font-family="Helvetica,sans-Serif" font-size="10.00">&#45;model/colabfit&#45;descriptor</text>
<text text-anchor="start" x="268.5" y="-117" font-family="Helvetica,sans-Serif" font-size="10.00">&#45;library/SymmetryFunctions</text>
<text text-anchor="middle" x="329" y="-106" font-family="Helvetica,sans-Serif" font-size="10.00">/SymmetryFunctions.hpp</text>
</a>
</g>
</g>
<!-- Node1&#45;&gt;Node5 -->
<g id="edge4" class="edge">
<title>Node1&#45;&gt;Node5</title>
<path fill="none" stroke="#63b8ff" d="M329,-187.93C329,-179.39 329,-170.32 329,-162.02"/>
<polygon fill="#63b8ff" stroke="#63b8ff" points="325.5,-188 329,-198 332.5,-188 325.5,-188"/>
</g>
<!-- Node7 -->
<g id="node7" class="node">
<title>Node7</title>
<g id="a_node7"><a xlink:href="helper_8cpp.html" target="_top" xlink:title=" ">
<polygon fill="white" stroke="#666666" points="542,-156.5 416,-156.5 416,-104.5 542,-104.5 542,-156.5"/>
<text text-anchor="start" x="424" y="-144.5" font-family="Helvetica,sans-Serif" font-size="10.00">/home/amit/Projects</text>
<text text-anchor="start" x="424" y="-133.5" font-family="Helvetica,sans-Serif" font-size="10.00">/COLABFIT/colabfit&#45;kim</text>
<text text-anchor="start" x="424" y="-122.5" font-family="Helvetica,sans-Serif" font-size="10.00">&#45;model/colabfit&#45;descriptor</text>
<text text-anchor="middle" x="479" y="-111.5" font-family="Helvetica,sans-Serif" font-size="10.00">&#45;library/helper.cpp</text>
</a>
</g>
</g>
<!-- Node1&#45;&gt;Node7 -->
<g id="edge7" class="edge">
<title>Node1&#45;&gt;Node7</title>
<path fill="none" stroke="#63b8ff" d="M378.61,-192.74C397.79,-181.04 419.5,-167.8 437.8,-156.63"/>
<polygon fill="#63b8ff" stroke="#63b8ff" points="376.7,-189.8 369.99,-198 380.35,-195.78 376.7,-189.8"/>
</g>
<!-- Node3 -->
<g id="node3" class="node">
<title>Node3</title>
<g id="a_node3"><a xlink:href="_bispectrum_8cpp.html" target="_top" xlink:title="The current implementation is based on the SNAP potential implemented in LAMMPS by Aidan Thompson,...">
<polygon fill="white" stroke="#666666" points="170,-57.5 0,-57.5 0,-5.5 170,-5.5 170,-57.5"/>
<text text-anchor="start" x="8" y="-45.5" font-family="Helvetica,sans-Serif" font-size="10.00">/home/amit/Projects</text>
<text text-anchor="start" x="8" y="-34.5" font-family="Helvetica,sans-Serif" font-size="10.00">/COLABFIT/colabfit&#45;kim</text>
<text text-anchor="start" x="8" y="-23.5" font-family="Helvetica,sans-Serif" font-size="10.00">&#45;model/colabfit&#45;descriptor</text>
<text text-anchor="middle" x="85" y="-12.5" font-family="Helvetica,sans-Serif" font-size="10.00">&#45;library/Bispectrum/Bispectrum.cpp</text>
</a>
</g>
</g>
<!-- Node2&#45;&gt;Node3 -->
<g id="edge2" class="edge">
<title>Node2&#45;&gt;Node3</title>
<path fill="none" stroke="#63b8ff" d="M132.29,-96.22C122.9,-83.57 112.37,-69.38 103.64,-57.61"/>
<polygon fill="#63b8ff" stroke="#63b8ff" points="129.5,-98.32 138.27,-104.27 135.12,-94.15 129.5,-98.32"/>
</g>
<!-- Node4 -->
<g id="node4" class="node">
<title>Node4</title>
<g id="a_node4"><a xlink:href="_descriptors_8cpp.html" target="_top" xlink:title=" ">
<polygon fill="white" stroke="#666666" points="314,-57.5 188,-57.5 188,-5.5 314,-5.5 314,-57.5"/>
<text text-anchor="start" x="196" y="-45.5" font-family="Helvetica,sans-Serif" font-size="10.00">/home/amit/Projects</text>
<text text-anchor="start" x="196" y="-34.5" font-family="Helvetica,sans-Serif" font-size="10.00">/COLABFIT/colabfit&#45;kim</text>
<text text-anchor="start" x="196" y="-23.5" font-family="Helvetica,sans-Serif" font-size="10.00">&#45;model/colabfit&#45;descriptor</text>
<text text-anchor="middle" x="251" y="-12.5" font-family="Helvetica,sans-Serif" font-size="10.00">&#45;library/Descriptors.cpp</text>
</a>
</g>
</g>
<!-- Node2&#45;&gt;Node4 -->
<g id="edge3" class="edge">
<title>Node2&#45;&gt;Node4</title>
<path fill="none" stroke="#63b8ff" d="M188.55,-96.94C200.99,-84.11 215.05,-69.6 226.67,-57.61"/>
<polygon fill="#63b8ff" stroke="#63b8ff" points="185.9,-94.65 181.45,-104.27 190.92,-99.52 185.9,-94.65"/>
</g>
<!-- Node5&#45;&gt;Node4 -->
<g id="edge5" class="edge">
<title>Node5&#45;&gt;Node4</title>
<path fill="none" stroke="#63b8ff" d="M297.94,-90.87C288.99,-79.74 279.46,-67.89 271.34,-57.8"/>
<polygon fill="#63b8ff" stroke="#63b8ff" points="295.33,-93.21 304.32,-98.81 300.78,-88.82 295.33,-93.21"/>
</g>
<!-- Node6 -->
<g id="node6" class="node">
<title>Node6</title>
<g id="a_node6"><a xlink:href="_symmetry_functions_8cpp.html" target="_top" xlink:title=" ">
<polygon fill="white" stroke="#666666" points="469.5,-63 332.5,-63 332.5,0 469.5,0 469.5,-63"/>
<text text-anchor="start" x="340.5" y="-51" font-family="Helvetica,sans-Serif" font-size="10.00">/home/amit/Projects</text>
<text text-anchor="start" x="340.5" y="-40" font-family="Helvetica,sans-Serif" font-size="10.00">/COLABFIT/colabfit&#45;kim</text>
<text text-anchor="start" x="340.5" y="-29" font-family="Helvetica,sans-Serif" font-size="10.00">&#45;model/colabfit&#45;descriptor</text>
<text text-anchor="start" x="340.5" y="-18" font-family="Helvetica,sans-Serif" font-size="10.00">&#45;library/SymmetryFunctions</text>
<text text-anchor="middle" x="401" y="-7" font-family="Helvetica,sans-Serif" font-size="10.00">/SymmetryFunctions.cpp</text>
</a>
</g>
</g>
<!-- Node5&#45;&gt;Node6 -->
<g id="edge6" class="edge">
<title>Node5&#45;&gt;Node6</title>
<path fill="none" stroke="#63b8ff" d="M357.85,-90.64C364.59,-81.56 371.68,-72 378.12,-63.32"/>
<polygon fill="#63b8ff" stroke="#63b8ff" points="354.93,-88.69 351.78,-98.81 360.55,-92.86 354.93,-88.69"/>
</g>
</g>
</svg>
