<?xml version="1.0" encoding="UTF-8" standalone="no"?>
<!DOCTYPE svg PUBLIC "-//W3C//DTD SVG 1.1//EN"
 "http://www.w3.org/Graphics/SVG/1.1/DTD/svg11.dtd">
<!-- Generated by graphviz version 2.43.0 (0)
 -->
<!-- Title: Graphical Class Hierarchy Pages: 1 -->
<svg width="292pt" height="286pt"
 viewBox="0.00 0.00 292.00 286.00" xmlns="http://www.w3.org/2000/svg" xmlns:xlink="http://www.w3.org/1999/xlink">
<g id="graph0" class="graph" transform="scale(1 1) rotate(0) translate(4 282)">
<title>Graphical Class Hierarchy</title>
<!-- Node0 -->
<g id="node1" class="node">
<title>Node0</title>
<g id="a_node1"><a xlink:href="class___array___basic.html" target="_top" xlink:title="An STL like container similar to std::vector that encapsulates dynamic size arrays in a sequence cont...">
<polygon fill="white" stroke="#666666" points="135,-148 0,-148 0,-129 135,-129 135,-148"/>
<text text-anchor="middle" x="67.5" y="-136" font-family="Helvetica,sans-Serif" font-size="10.00">_Array_Basic&lt; DataType &gt;</text>
</a>
</g>
</g>
<!-- Node1 -->
<g id="node2" class="node">
<title>Node1</title>
<g id="a_node2"><a xlink:href="class_array2_d.html" target="_top" xlink:title=" ">
<polygon fill="white" stroke="#666666" points="277,-278 178,-278 178,-259 277,-259 277,-278"/>
<text text-anchor="middle" x="227.5" y="-266" font-family="Helvetica,sans-Serif" font-size="10.00">Array2D&lt; double &gt;</text>
</a>
</g>
</g>
<!-- Node0&#45;&gt;Node1 -->
<g id="edge1" class="edge">
<title>Node0&#45;&gt;Node1</title>
<path fill="none" stroke="#63b8ff" d="M80.45,-156.56C97.65,-181.21 131.69,-225.21 171,-250.5 176.2,-253.84 182.07,-256.61 188,-258.9"/>
<polygon fill="#63b8ff" stroke="#63b8ff" points="83.23,-154.43 74.7,-148.14 77.45,-158.37 83.23,-154.43"/>
</g>
<!-- Node2 -->
<g id="node3" class="node">
<title>Node2</title>
<g id="a_node3"><a xlink:href="class_array3_d.html" target="_top" xlink:title=" ">
<polygon fill="white" stroke="#666666" points="277,-241 178,-241 178,-222 277,-222 277,-241"/>
<text text-anchor="middle" x="227.5" y="-229" font-family="Helvetica,sans-Serif" font-size="10.00">Array3D&lt; double &gt;</text>
</a>
</g>
</g>
<!-- Node0&#45;&gt;Node2 -->
<g id="edge2" class="edge">
<title>Node0&#45;&gt;Node2</title>
<path fill="none" stroke="#63b8ff" d="M86.94,-154.83C106.59,-171.52 139.19,-197.24 171,-213.5 177.31,-216.73 184.32,-219.54 191.18,-221.91"/>
<polygon fill="#63b8ff" stroke="#63b8ff" points="88.97,-151.95 79.11,-148.07 84.39,-157.25 88.97,-151.95"/>
</g>
<!-- Node3 -->
<g id="node4" class="node">
<title>Node3</title>
<g id="a_node4"><a xlink:href="class_array4_d.html" target="_top" xlink:title=" ">
<polygon fill="white" stroke="#666666" points="277,-204 178,-204 178,-185 277,-185 277,-204"/>
<text text-anchor="middle" x="227.5" y="-192" font-family="Helvetica,sans-Serif" font-size="10.00">Array4D&lt; double &gt;</text>
</a>
</g>
</g>
<!-- Node0&#45;&gt;Node3 -->
<g id="edge3" class="edge">
<title>Node0&#45;&gt;Node3</title>
<path fill="none" stroke="#63b8ff" d="M102.79,-151.62C122.64,-159.11 148.15,-168.56 171,-176.5 179.13,-179.33 187.98,-182.26 196.18,-184.92"/>
<polygon fill="#63b8ff" stroke="#63b8ff" points="103.84,-148.27 93.25,-148 101.36,-154.82 103.84,-148.27"/>
</g>
<!-- Node4 -->
<g id="node5" class="node">
<title>Node4</title>
<g id="a_node5"><a xlink:href="class_array5_d.html" target="_top" xlink:title=" ">
<polygon fill="white" stroke="#666666" points="277,-167 178,-167 178,-148 277,-148 277,-167"/>
<text text-anchor="middle" x="227.5" y="-155" font-family="Helvetica,sans-Serif" font-size="10.00">Array5D&lt; double &gt;</text>
</a>
</g>
</g>
<!-- Node0&#45;&gt;Node4 -->
<g id="edge4" class="edge">
<title>Node0&#45;&gt;Node4</title>
<path fill="none" stroke="#63b8ff" d="M145.2,-147.72C156.29,-149.06 167.45,-150.4 177.79,-151.64"/>
<polygon fill="#63b8ff" stroke="#63b8ff" points="145.39,-144.22 135.05,-146.5 144.56,-151.17 145.39,-144.22"/>
</g>
<!-- Node5 -->
<g id="node6" class="node">
<title>Node5</title>
<g id="a_node6"><a xlink:href="class_array2_d.html" target="_top" xlink:title="A 2&#45;dimensional STL like container that encapsulates dynamic size arrays with a 2&#45;dimensional shape i...">
<polygon fill="white" stroke="#666666" points="284,-130 171,-130 171,-111 284,-111 284,-130"/>
<text text-anchor="middle" x="227.5" y="-118" font-family="Helvetica,sans-Serif" font-size="10.00">Array2D&lt; DataType &gt;</text>
</a>
</g>
</g>
<!-- Node0&#45;&gt;Node5 -->
<g id="edge5" class="edge">
<title>Node0&#45;&gt;Node5</title>
<path fill="none" stroke="#63b8ff" d="M145.08,-129.78C153.65,-128.8 162.27,-127.82 170.52,-126.88"/>
<polygon fill="#63b8ff" stroke="#63b8ff" points="144.59,-126.31 135.05,-130.92 145.38,-133.26 144.59,-126.31"/>
</g>
<!-- Node6 -->
<g id="node7" class="node">
<title>Node6</title>
<g id="a_node7"><a xlink:href="class_array3_d.html" target="_top" xlink:title=" ">
<polygon fill="white" stroke="#666666" points="284,-93 171,-93 171,-74 284,-74 284,-93"/>
<text text-anchor="middle" x="227.5" y="-81" font-family="Helvetica,sans-Serif" font-size="10.00">Array3D&lt; DataType &gt;</text>
</a>
</g>
</g>
<!-- Node0&#45;&gt;Node6 -->
<g id="edge6" class="edge">
<title>Node0&#45;&gt;Node6</title>
<path fill="none" stroke="#63b8ff" d="M104.91,-125.63C124.49,-118.73 149.05,-110.11 171,-102.5 179.95,-99.4 189.72,-96.04 198.54,-93.03"/>
<polygon fill="#63b8ff" stroke="#63b8ff" points="103.72,-122.34 95.46,-128.97 106.05,-128.94 103.72,-122.34"/>
</g>
<!-- Node7 -->
<g id="node8" class="node">
<title>Node7</title>
<g id="a_node8"><a xlink:href="class_array4_d.html" target="_top" xlink:title=" ">
<polygon fill="white" stroke="#666666" points="284,-56 171,-56 171,-37 284,-37 284,-56"/>
<text text-anchor="middle" x="227.5" y="-44" font-family="Helvetica,sans-Serif" font-size="10.00">Array4D&lt; DataType &gt;</text>
</a>
</g>
</g>
<!-- Node0&#45;&gt;Node7 -->
<g id="edge7" class="edge">
<title>Node0&#45;&gt;Node7</title>
<path fill="none" stroke="#63b8ff" d="M87.71,-122.22C107.53,-106.08 139.85,-81.49 171,-65.5 178.07,-61.87 185.98,-58.69 193.57,-56.02"/>
<polygon fill="#63b8ff" stroke="#63b8ff" points="85.25,-119.71 79.78,-128.78 89.71,-125.11 85.25,-119.71"/>
</g>
<!-- Node8 -->
<g id="node9" class="node">
<title>Node8</title>
<g id="a_node9"><a xlink:href="class_array5_d.html" target="_top" xlink:title=" ">
<polygon fill="white" stroke="#666666" points="284,-19 171,-19 171,0 284,0 284,-19"/>
<text text-anchor="middle" x="227.5" y="-7" font-family="Helvetica,sans-Serif" font-size="10.00">Array5D&lt; DataType &gt;</text>
</a>
</g>
</g>
<!-- Node0&#45;&gt;Node8 -->
<g id="edge8" class="edge">
<title>Node0&#45;&gt;Node8</title>
<path fill="none" stroke="#63b8ff" d="M80.84,-120.5C98.28,-96.34 132.35,-53.56 171,-28.5 176.81,-24.73 183.45,-21.63 190.07,-19.09"/>
<polygon fill="#63b8ff" stroke="#63b8ff" points="77.91,-118.58 75,-128.77 83.63,-122.62 77.91,-118.58"/>
</g>
</g>
</svg>
