<?xml version="1.0" encoding="UTF-8" standalone="no"?>
<!DOCTYPE svg PUBLIC "-//W3C//DTD SVG 1.1//EN"
 "http://www.w3.org/Graphics/SVG/1.1/DTD/svg11.dtd">
<!-- Generated by graphviz version 2.43.0 (0)
 -->
<!-- Title: Graphical Class Hierarchy Pages: 1 -->
<svg width="292pt" height="138pt"
 viewBox="0.00 0.00 292.00 138.00" xmlns="http://www.w3.org/2000/svg" xmlns:xlink="http://www.w3.org/1999/xlink">
<g id="graph0" class="graph" transform="scale(1 1) rotate(0) translate(4 134)">
<title>Graphical Class Hierarchy</title>
<!-- Node0 -->
<g id="node1" class="node">
<title>Node0</title>
<g id="a_node1"><a xlink:href="class___array___basic.html" target="_top" xlink:title=" ">
<polygon fill="white" stroke="#666666" points="135,-74 0,-74 0,-55 135,-55 135,-74"/>
<text text-anchor="middle" x="67.5" y="-62" font-family="Helvetica,sans-Serif" font-size="10.00">_Array_Basic&lt; DataType &gt;</text>
</a>
</g>
</g>
<!-- Node1 -->
<g id="node2" class="node">
<title>Node1</title>
<g id="a_node2"><a xlink:href="class_array2_d.html" target="_top" xlink:title=" ">
<polygon fill="white" stroke="#666666" points="284,-130 171,-130 171,-111 284,-111 284,-130"/>
<text text-anchor="middle" x="227.5" y="-118" font-family="Helvetica,sans-Serif" font-size="10.00">Array2D&lt; DataType &gt;</text>
</a>
</g>
</g>
<!-- Node0&#45;&gt;Node1 -->
<g id="edge1" class="edge">
<title>Node0&#45;&gt;Node1</title>
<path fill="none" stroke="#63b8ff" d="M102.79,-77.62C122.64,-85.11 148.15,-94.56 171,-102.5 179.13,-105.33 187.98,-108.26 196.18,-110.92"/>
<polygon fill="#63b8ff" stroke="#63b8ff" points="103.84,-74.27 93.25,-74 101.36,-80.82 103.84,-74.27"/>
</g>
<!-- Node2 -->
<g id="node3" class="node">
<title>Node2</title>
<g id="a_node3"><a xlink:href="class_array3_d.html" target="_top" xlink:title=" ">
<polygon fill="white" stroke="#666666" points="284,-93 171,-93 171,-74 284,-74 284,-93"/>
<text text-anchor="middle" x="227.5" y="-81" font-family="Helvetica,sans-Serif" font-size="10.00">Array3D&lt; DataType &gt;</text>
</a>
</g>
</g>
<!-- Node0&#45;&gt;Node2 -->
<g id="edge2" class="edge">
<title>Node0&#45;&gt;Node2</title>
<path fill="none" stroke="#63b8ff" d="M145.08,-73.71C153.65,-74.74 162.27,-75.78 170.52,-76.77"/>
<polygon fill="#63b8ff" stroke="#63b8ff" points="145.39,-70.22 135.05,-72.5 144.56,-77.17 145.39,-70.22"/>
</g>
<!-- Node3 -->
<g id="node4" class="node">
<title>Node3</title>
<g id="a_node4"><a xlink:href="class_array4_d.html" target="_top" xlink:title=" ">
<polygon fill="white" stroke="#666666" points="284,-56 171,-56 171,-37 284,-37 284,-56"/>
<text text-anchor="middle" x="227.5" y="-44" font-family="Helvetica,sans-Serif" font-size="10.00">Array4D&lt; DataType &gt;</text>
</a>
</g>
</g>
<!-- Node0&#45;&gt;Node3 -->
<g id="edge3" class="edge">
<title>Node0&#45;&gt;Node3</title>
<path fill="none" stroke="#63b8ff" d="M145.08,-55.78C153.65,-54.8 162.27,-53.82 170.52,-52.88"/>
<polygon fill="#63b8ff" stroke="#63b8ff" points="144.59,-52.31 135.05,-56.92 145.38,-59.26 144.59,-52.31"/>
</g>
<!-- Node4 -->
<g id="node5" class="node">
<title>Node4</title>
<g id="a_node5"><a xlink:href="class_array5_d.html" target="_top" xlink:title=" ">
<polygon fill="white" stroke="#666666" points="284,-19 171,-19 171,0 284,0 284,-19"/>
<text text-anchor="middle" x="227.5" y="-7" font-family="Helvetica,sans-Serif" font-size="10.00">Array5D&lt; DataType &gt;</text>
</a>
</g>
</g>
<!-- Node0&#45;&gt;Node4 -->
<g id="edge4" class="edge">
<title>Node0&#45;&gt;Node4</title>
<path fill="none" stroke="#63b8ff" d="M104.91,-51.63C124.49,-44.73 149.05,-36.11 171,-28.5 179.95,-25.4 189.72,-22.04 198.54,-19.03"/>
<polygon fill="#63b8ff" stroke="#63b8ff" points="103.72,-48.34 95.46,-54.97 106.05,-54.94 103.72,-48.34"/>
</g>
</g>
</svg>
