<?xml version="1.0" encoding="UTF-8" standalone="no"?>
<!DOCTYPE svg PUBLIC "-//W3C//DTD SVG 1.1//EN"
 "http://www.w3.org/Graphics/SVG/1.1/DTD/svg11.dtd">
<!-- Generated by graphviz version 2.43.0 (0)
 -->
<!-- Title: Graphical Class Hierarchy Pages: 1 -->
<svg width="280pt" height="64pt"
 viewBox="0.00 0.00 280.00 64.00" xmlns="http://www.w3.org/2000/svg" xmlns:xlink="http://www.w3.org/1999/xlink">
<g id="graph0" class="graph" transform="scale(1 1) rotate(0) translate(4 60)">
<title>Graphical Class Hierarchy</title>
<!-- Node0 -->
<g id="node1" class="node">
<title>Node0</title>
<g id="a_node1"><a xlink:href="class_descriptor_1_1_descriptor_kind.html" target="_top" xlink:title="Base class for all descriptors.">
<polygon fill="white" stroke="#666666" points="132,-37 0,-37 0,-18 132,-18 132,-37"/>
<text text-anchor="middle" x="66" y="-25" font-family="Helvetica,sans-Serif" font-size="10.00">Descriptor::DescriptorKind</text>
</a>
</g>
</g>
<!-- Node1 -->
<g id="node2" class="node">
<title>Node1</title>
<g id="a_node2"><a xlink:href="class_bispectrum.html" target="_top" xlink:title="This implementation is based on the method outlined in Bartok[1], using formulae from VMK[2].">
<polygon fill="white" stroke="#666666" points="253,-56 187,-56 187,-37 253,-37 253,-56"/>
<text text-anchor="middle" x="220" y="-44" font-family="Helvetica,sans-Serif" font-size="10.00">Bispectrum</text>
</a>
</g>
</g>
<!-- Node0&#45;&gt;Node1 -->
<g id="edge1" class="edge">
<title>Node0&#45;&gt;Node1</title>
<path fill="none" stroke="#63b8ff" d="M142.55,-36.94C158.13,-38.89 173.74,-40.84 186.75,-42.47"/>
<polygon fill="#63b8ff" stroke="#63b8ff" points="142.7,-33.44 132.34,-35.67 141.83,-40.38 142.7,-33.44"/>
</g>
<!-- Node2 -->
<g id="node3" class="node">
<title>Node2</title>
<g id="a_node3"><a xlink:href="class_symmetry_functions.html" target="_top" xlink:title=" ">
<polygon fill="white" stroke="#666666" points="272,-19 168,-19 168,0 272,0 272,-19"/>
<text text-anchor="middle" x="220" y="-7" font-family="Helvetica,sans-Serif" font-size="10.00">SymmetryFunctions</text>
</a>
</g>
</g>
<!-- Node0&#45;&gt;Node2 -->
<g id="edge2" class="edge">
<title>Node0&#45;&gt;Node2</title>
<path fill="none" stroke="#63b8ff" d="M142.45,-18.57C151.08,-17.54 159.73,-16.52 167.94,-15.55"/>
<polygon fill="#63b8ff" stroke="#63b8ff" points="141.86,-15.11 132.34,-19.76 142.69,-22.06 141.86,-15.11"/>
</g>
</g>
</svg>
