<?xml version="1.0" encoding="UTF-8" standalone="no"?>
<!DOCTYPE svg PUBLIC "-//W3C//DTD SVG 1.1//EN"
 "http://www.w3.org/Graphics/SVG/1.1/DTD/svg11.dtd">
<!-- Generated by graphviz version 2.43.0 (0)
 -->
<!-- Title: /home/amit/Projects/COLABFIT/colabfit&#45;kim&#45;model/colabfit&#45;descriptor&#45;library/Bispectrum/Bispectrum.cpp Pages: 1 -->
<svg width="540pt" height="229pt"
 viewBox="0.00 0.00 540.00 229.00" xmlns="http://www.w3.org/2000/svg" xmlns:xlink="http://www.w3.org/1999/xlink">
<g id="graph0" class="graph" transform="scale(1 1) rotate(0) translate(4 225)">
<title>/home/amit/Projects/COLABFIT/colabfit&#45;kim&#45;model/colabfit&#45;descriptor&#45;library/Bispectrum/Bispectrum.cpp</title>
<!-- Node1 -->
<g id="node1" class="node">
<title>Node1</title>
<g id="a_node1"><a xlink:title=" ">
<polygon fill="#bfbfbf" stroke="black" points="294,-168.5 294,-220.5 464,-220.5 464,-168.5 294,-168.5"/>
<text text-anchor="start" x="302" y="-208.5" font-family="Helvetica,sans-Serif" font-size="10.00">/home/amit/Projects</text>
<text text-anchor="start" x="302" y="-197.5" font-family="Helvetica,sans-Serif" font-size="10.00">/COLABFIT/colabfit&#45;kim</text>
<text text-anchor="start" x="302" y="-186.5" font-family="Helvetica,sans-Serif" font-size="10.00">&#45;model/colabfit&#45;descriptor</text>
<text text-anchor="middle" x="379" y="-175.5" font-family="Helvetica,sans-Serif" font-size="10.00">&#45;library/Bispectrum/Bispectrum.cpp</text>
</a>
</g>
</g>
<!-- Node2 -->
<g id="node2" class="node">
<title>Node2</title>
<g id="a_node2"><a xlink:href="_bispectrum_8hpp.html" target="_top" xlink:title=" ">
<polygon fill="none" stroke="black" points="186.5,-112.5 186.5,-131.5 271.5,-131.5 271.5,-112.5 186.5,-112.5"/>
<text text-anchor="middle" x="229" y="-119.5" font-family="Helvetica,sans-Serif" font-size="10.00">Bispectrum.hpp</text>
</a>
</g>
</g>
<!-- Node1&#45;&gt;Node2 -->
<g id="edge1" class="edge">
<title>Node1&#45;&gt;Node2</title>
<path fill="none" stroke="midnightblue" d="M325.69,-168.45C302.21,-157.41 275.62,-144.91 256.28,-135.82"/>
<polygon fill="midnightblue" stroke="midnightblue" points="257.68,-132.61 247.14,-131.53 254.7,-138.95 257.68,-132.61"/>
</g>
<!-- Node11 -->
<g id="node11" class="node">
<title>Node11</title>
<g id="a_node11"><a xlink:title=" ">
<polygon fill="none" stroke="#bfbfbf" points="290,-112.5 290,-131.5 334,-131.5 334,-112.5 290,-112.5"/>
<text text-anchor="middle" x="312" y="-119.5" font-family="Helvetica,sans-Serif" font-size="10.00">cmath</text>
</a>
</g>
</g>
<!-- Node1&#45;&gt;Node11 -->
<g id="edge12" class="edge">
<title>Node1&#45;&gt;Node11</title>
<path fill="none" stroke="midnightblue" d="M355.19,-168.45C345.86,-158.63 335.43,-147.66 327.16,-138.95"/>
<polygon fill="midnightblue" stroke="midnightblue" points="329.69,-136.53 320.26,-131.7 324.62,-141.36 329.69,-136.53"/>
</g>
<!-- Node12 -->
<g id="node12" class="node">
<title>Node12</title>
<g id="a_node12"><a xlink:title=" ">
<polygon fill="none" stroke="#bfbfbf" points="352.5,-112.5 352.5,-131.5 405.5,-131.5 405.5,-112.5 352.5,-112.5"/>
<text text-anchor="middle" x="379" y="-119.5" font-family="Helvetica,sans-Serif" font-size="10.00">complex</text>
</a>
</g>
</g>
<!-- Node1&#45;&gt;Node12 -->
<g id="edge13" class="edge">
<title>Node1&#45;&gt;Node12</title>
<path fill="none" stroke="midnightblue" d="M379,-168.45C379,-159.73 379,-150.1 379,-141.96"/>
<polygon fill="midnightblue" stroke="midnightblue" points="382.5,-141.7 379,-131.7 375.5,-141.7 382.5,-141.7"/>
</g>
<!-- Node13 -->
<g id="node13" class="node">
<title>Node13</title>
<g id="a_node13"><a xlink:title=" ">
<polygon fill="none" stroke="#bfbfbf" points="424,-112.5 424,-131.5 464,-131.5 464,-112.5 424,-112.5"/>
<text text-anchor="middle" x="444" y="-119.5" font-family="Helvetica,sans-Serif" font-size="10.00">limits</text>
</a>
</g>
</g>
<!-- Node1&#45;&gt;Node13 -->
<g id="edge14" class="edge">
<title>Node1&#45;&gt;Node13</title>
<path fill="none" stroke="midnightblue" d="M402.1,-168.45C411.06,-158.73 421.06,-147.88 429.05,-139.22"/>
<polygon fill="midnightblue" stroke="midnightblue" points="431.78,-141.42 435.98,-131.7 426.63,-136.68 431.78,-141.42"/>
</g>
<!-- Node14 -->
<g id="node14" class="node">
<title>Node14</title>
<g id="a_node14"><a xlink:title=" ">
<polygon fill="none" stroke="#bfbfbf" points="482,-112.5 482,-131.5 532,-131.5 532,-112.5 482,-112.5"/>
<text text-anchor="middle" x="507" y="-119.5" font-family="Helvetica,sans-Serif" font-size="10.00">fstream</text>
</a>
</g>
</g>
<!-- Node1&#45;&gt;Node14 -->
<g id="edge15" class="edge">
<title>Node1&#45;&gt;Node14</title>
<path fill="none" stroke="midnightblue" d="M424.49,-168.45C444.07,-157.66 466.18,-145.48 482.58,-136.45"/>
<polygon fill="midnightblue" stroke="midnightblue" points="484.45,-139.42 491.52,-131.53 481.07,-133.29 484.45,-139.42"/>
</g>
<!-- Node3 -->
<g id="node3" class="node">
<title>Node3</title>
<g id="a_node3"><a xlink:href="helper_8hpp.html" target="_top" xlink:title=" ">
<polygon fill="none" stroke="black" points="139.5,-56.5 139.5,-75.5 200.5,-75.5 200.5,-56.5 139.5,-56.5"/>
<text text-anchor="middle" x="170" y="-63.5" font-family="Helvetica,sans-Serif" font-size="10.00">helper.hpp</text>
</a>
</g>
</g>
<!-- Node2&#45;&gt;Node3 -->
<g id="edge2" class="edge">
<title>Node2&#45;&gt;Node3</title>
<path fill="none" stroke="midnightblue" d="M219.52,-112.32C210.8,-104.34 197.66,-92.31 187.1,-82.65"/>
<polygon fill="midnightblue" stroke="midnightblue" points="189.39,-80 179.65,-75.83 184.67,-85.17 189.39,-80"/>
</g>
<!-- Node7 -->
<g id="node7" class="node">
<title>Node7</title>
<g id="a_node7"><a xlink:title=" ">
<polygon fill="none" stroke="#bfbfbf" points="216,-0.5 216,-19.5 260,-19.5 260,-0.5 216,-0.5"/>
<text text-anchor="middle" x="238" y="-7.5" font-family="Helvetica,sans-Serif" font-size="10.00">vector</text>
</a>
</g>
</g>
<!-- Node2&#45;&gt;Node7 -->
<g id="edge11" class="edge">
<title>Node2&#45;&gt;Node7</title>
<path fill="none" stroke="midnightblue" d="M229.71,-112.37C231.16,-94.62 234.51,-53.67 236.48,-29.6"/>
<polygon fill="midnightblue" stroke="midnightblue" points="239.97,-29.84 237.3,-19.59 232.99,-29.27 239.97,-29.84"/>
</g>
<!-- Node8 -->
<g id="node8" class="node">
<title>Node8</title>
<g id="a_node8"><a xlink:href="_descriptors_8hpp.html" target="_top" xlink:title=" ">
<polygon fill="none" stroke="black" points="257,-56.5 257,-75.5 343,-75.5 343,-56.5 257,-56.5"/>
<text text-anchor="middle" x="300" y="-63.5" font-family="Helvetica,sans-Serif" font-size="10.00">Descriptors.hpp</text>
</a>
</g>
</g>
<!-- Node2&#45;&gt;Node8 -->
<g id="edge7" class="edge">
<title>Node2&#45;&gt;Node8</title>
<path fill="none" stroke="midnightblue" d="M240.41,-112.32C251.11,-104.18 267.34,-91.84 280.16,-82.09"/>
<polygon fill="midnightblue" stroke="midnightblue" points="282.54,-84.67 288.39,-75.83 278.31,-79.1 282.54,-84.67"/>
</g>
<!-- Node4 -->
<g id="node4" class="node">
<title>Node4</title>
<g id="a_node4"><a xlink:title=" ">
<polygon fill="none" stroke="#bfbfbf" points="0,-0.5 0,-19.5 56,-19.5 56,-0.5 0,-0.5"/>
<text text-anchor="middle" x="28" y="-7.5" font-family="Helvetica,sans-Serif" font-size="10.00">algorithm</text>
</a>
</g>
</g>
<!-- Node3&#45;&gt;Node4 -->
<g id="edge3" class="edge">
<title>Node3&#45;&gt;Node4</title>
<path fill="none" stroke="midnightblue" d="M147.5,-56.44C123.92,-47.48 86.68,-33.31 60.04,-23.18"/>
<polygon fill="midnightblue" stroke="midnightblue" points="60.99,-19.8 50.4,-19.52 58.5,-26.34 60.99,-19.8"/>
</g>
<!-- Node5 -->
<g id="node5" class="node">
<title>Node5</title>
<g id="a_node5"><a xlink:title=" ">
<polygon fill="none" stroke="#bfbfbf" points="74,-0.5 74,-19.5 128,-19.5 128,-0.5 74,-0.5"/>
<text text-anchor="middle" x="101" y="-7.5" font-family="Helvetica,sans-Serif" font-size="10.00">iostream</text>
</a>
</g>
</g>
<!-- Node3&#45;&gt;Node5 -->
<g id="edge4" class="edge">
<title>Node3&#45;&gt;Node5</title>
<path fill="none" stroke="midnightblue" d="M158.91,-56.32C148.51,-48.18 132.74,-35.84 120.28,-26.09"/>
<polygon fill="midnightblue" stroke="midnightblue" points="122.32,-23.24 112.29,-19.83 118.01,-28.75 122.32,-23.24"/>
</g>
<!-- Node6 -->
<g id="node6" class="node">
<title>Node6</title>
<g id="a_node6"><a xlink:title=" ">
<polygon fill="none" stroke="#bfbfbf" points="146,-0.5 146,-19.5 198,-19.5 198,-0.5 146,-0.5"/>
<text text-anchor="middle" x="172" y="-7.5" font-family="Helvetica,sans-Serif" font-size="10.00">sstream</text>
</a>
</g>
</g>
<!-- Node3&#45;&gt;Node6 -->
<g id="edge5" class="edge">
<title>Node3&#45;&gt;Node6</title>
<path fill="none" stroke="midnightblue" d="M170.33,-56.08C170.59,-49.01 170.97,-38.86 171.3,-29.99"/>
<polygon fill="midnightblue" stroke="midnightblue" points="174.8,-29.87 171.68,-19.75 167.81,-29.61 174.8,-29.87"/>
</g>
<!-- Node3&#45;&gt;Node7 -->
<g id="edge6" class="edge">
<title>Node3&#45;&gt;Node7</title>
<path fill="none" stroke="midnightblue" d="M180.93,-56.32C191.17,-48.18 206.72,-35.84 219,-26.09"/>
<polygon fill="midnightblue" stroke="midnightblue" points="221.22,-28.79 226.88,-19.83 216.87,-23.31 221.22,-28.79"/>
</g>
<!-- Node8&#45;&gt;Node7 -->
<g id="edge10" class="edge">
<title>Node8&#45;&gt;Node7</title>
<path fill="none" stroke="midnightblue" d="M290.04,-56.32C280.87,-48.34 267.06,-36.31 255.97,-26.65"/>
<polygon fill="midnightblue" stroke="midnightblue" points="257.98,-23.76 248.14,-19.83 253.38,-29.04 257.98,-23.76"/>
</g>
<!-- Node9 -->
<g id="node9" class="node">
<title>Node9</title>
<g id="a_node9"><a xlink:title=" ">
<polygon fill="none" stroke="#bfbfbf" points="281.5,-0.5 281.5,-19.5 316.5,-19.5 316.5,-0.5 281.5,-0.5"/>
<text text-anchor="middle" x="299" y="-7.5" font-family="Helvetica,sans-Serif" font-size="10.00">map</text>
</a>
</g>
</g>
<!-- Node8&#45;&gt;Node9 -->
<g id="edge8" class="edge">
<title>Node8&#45;&gt;Node9</title>
<path fill="none" stroke="midnightblue" d="M299.83,-56.08C299.7,-49.01 299.52,-38.86 299.35,-29.99"/>
<polygon fill="midnightblue" stroke="midnightblue" points="302.85,-29.68 299.16,-19.75 295.85,-29.81 302.85,-29.68"/>
</g>
<!-- Node10 -->
<g id="node10" class="node">
<title>Node10</title>
<g id="a_node10"><a xlink:title=" ">
<polygon fill="none" stroke="#bfbfbf" points="334.5,-0.5 334.5,-19.5 375.5,-19.5 375.5,-0.5 334.5,-0.5"/>
<text text-anchor="middle" x="355" y="-7.5" font-family="Helvetica,sans-Serif" font-size="10.00">string</text>
</a>
</g>
</g>
<!-- Node8&#45;&gt;Node10 -->
<g id="edge9" class="edge">
<title>Node8&#45;&gt;Node10</title>
<path fill="none" stroke="midnightblue" d="M309.08,-56.08C317.17,-48.14 329.2,-36.34 338.91,-26.8"/>
<polygon fill="midnightblue" stroke="midnightblue" points="341.4,-29.25 346.09,-19.75 336.5,-24.26 341.4,-29.25"/>
</g>
</g>
</svg>
