<?xml version="1.0" encoding="UTF-8" standalone="no"?>
<!DOCTYPE svg PUBLIC "-//W3C//DTD SVG 1.1//EN"
 "http://www.w3.org/Graphics/SVG/1.1/DTD/svg11.dtd">
<!-- Generated by graphviz version 2.43.0 (0)
 -->
<!-- Title: /home/amit/Projects/COLABFIT/colabfit&#45;kim&#45;model/colabfit&#45;descriptor&#45;library/Descriptors.hpp Pages: 1 -->
<svg width="774pt" height="159pt"
 viewBox="0.00 0.00 774.00 159.00" xmlns="http://www.w3.org/2000/svg" xmlns:xlink="http://www.w3.org/1999/xlink">
<g id="graph0" class="graph" transform="scale(1 1) rotate(0) translate(4 155)">
<title>/home/amit/Projects/COLABFIT/colabfit&#45;kim&#45;model/colabfit&#45;descriptor&#45;library/Descriptors.hpp</title>
<!-- Node1 -->
<g id="node1" class="node">
<title>Node1</title>
<g id="a_node1"><a xlink:title=" ">
<polygon fill="#999999" stroke="#666666" points="426,-151 300,-151 300,-99 426,-99 426,-151"/>
<text text-anchor="start" x="308" y="-139" font-family="Helvetica,sans-Serif" font-size="10.00">/home/amit/Projects</text>
<text text-anchor="start" x="308" y="-128" font-family="Helvetica,sans-Serif" font-size="10.00">/COLABFIT/colabfit&#45;kim</text>
<text text-anchor="start" x="308" y="-117" font-family="Helvetica,sans-Serif" font-size="10.00">&#45;model/colabfit&#45;descriptor</text>
<text text-anchor="middle" x="363" y="-106" font-family="Helvetica,sans-Serif" font-size="10.00">&#45;library/Descriptors.hpp</text>
</a>
</g>
</g>
<!-- Node2 -->
<g id="node2" class="node">
<title>Node2</title>
<g id="a_node2"><a xlink:href="_descriptors_8cpp.html" target="_top" xlink:title=" ">
<polygon fill="white" stroke="#666666" points="126,-57.5 0,-57.5 0,-5.5 126,-5.5 126,-57.5"/>
<text text-anchor="start" x="8" y="-45.5" font-family="Helvetica,sans-Serif" font-size="10.00">/home/amit/Projects</text>
<text text-anchor="start" x="8" y="-34.5" font-family="Helvetica,sans-Serif" font-size="10.00">/COLABFIT/colabfit&#45;kim</text>
<text text-anchor="start" x="8" y="-23.5" font-family="Helvetica,sans-Serif" font-size="10.00">&#45;model/colabfit&#45;descriptor</text>
<text text-anchor="middle" x="63" y="-12.5" font-family="Helvetica,sans-Serif" font-size="10.00">&#45;library/Descriptors.cpp</text>
</a>
</g>
</g>
<!-- Node1&#45;&gt;Node2 -->
<g id="edge1" class="edge">
<title>Node1&#45;&gt;Node2</title>
<path fill="none" stroke="#63b8ff" d="M289.88,-107.19C244.77,-96.14 185.98,-80.52 135,-63 130.12,-61.32 125.1,-59.47 120.1,-57.54"/>
<polygon fill="#63b8ff" stroke="#63b8ff" points="289.33,-110.66 299.88,-109.62 290.98,-103.86 289.33,-110.66"/>
</g>
<!-- Node3 -->
<g id="node3" class="node">
<title>Node3</title>
<g id="a_node3"><a xlink:href="python__bindings_8cpp.html" target="_top" xlink:title=" ">
<polygon fill="white" stroke="#666666" points="282,-57.5 144,-57.5 144,-5.5 282,-5.5 282,-57.5"/>
<text text-anchor="start" x="152" y="-45.5" font-family="Helvetica,sans-Serif" font-size="10.00">/home/amit/Projects</text>
<text text-anchor="start" x="152" y="-34.5" font-family="Helvetica,sans-Serif" font-size="10.00">/COLABFIT/colabfit&#45;kim</text>
<text text-anchor="start" x="152" y="-23.5" font-family="Helvetica,sans-Serif" font-size="10.00">&#45;model/colabfit&#45;descriptor</text>
<text text-anchor="middle" x="213" y="-12.5" font-family="Helvetica,sans-Serif" font-size="10.00">&#45;library/python_bindings.cpp</text>
</a>
</g>
</g>
<!-- Node1&#45;&gt;Node3 -->
<g id="edge2" class="edge">
<title>Node1&#45;&gt;Node3</title>
<path fill="none" stroke="#63b8ff" d="M313.39,-93.74C294.21,-82.04 272.5,-68.8 254.2,-57.63"/>
<polygon fill="#63b8ff" stroke="#63b8ff" points="311.65,-96.78 322.01,-99 315.3,-90.8 311.65,-96.78"/>
</g>
<!-- Node4 -->
<g id="node4" class="node">
<title>Node4</title>
<g id="a_node4"><a xlink:href="bispectrum__test_8cpp.html" target="_top" xlink:title=" ">
<polygon fill="white" stroke="#666666" points="426,-63 300,-63 300,0 426,0 426,-63"/>
<text text-anchor="start" x="308" y="-51" font-family="Helvetica,sans-Serif" font-size="10.00">/home/amit/Projects</text>
<text text-anchor="start" x="308" y="-40" font-family="Helvetica,sans-Serif" font-size="10.00">/COLABFIT/colabfit&#45;kim</text>
<text text-anchor="start" x="308" y="-29" font-family="Helvetica,sans-Serif" font-size="10.00">&#45;model/colabfit&#45;descriptor</text>
<text text-anchor="start" x="308" y="-18" font-family="Helvetica,sans-Serif" font-size="10.00">&#45;library/test/bispectrum</text>
<text text-anchor="middle" x="363" y="-7" font-family="Helvetica,sans-Serif" font-size="10.00">/bispectrum_test.cpp</text>
</a>
</g>
</g>
<!-- Node1&#45;&gt;Node4 -->
<g id="edge3" class="edge">
<title>Node1&#45;&gt;Node4</title>
<path fill="none" stroke="#63b8ff" d="M363,-88.93C363,-80.39 363,-71.32 363,-63.02"/>
<polygon fill="#63b8ff" stroke="#63b8ff" points="359.5,-89 363,-99 366.5,-89 359.5,-89"/>
</g>
<!-- Node5 -->
<g id="node5" class="node">
<title>Node5</title>
<g id="a_node5"><a xlink:href="symmetry__test_8cpp.html" target="_top" xlink:title=" ">
<polygon fill="white" stroke="#666666" points="596,-63 444,-63 444,0 596,0 596,-63"/>
<text text-anchor="start" x="452" y="-51" font-family="Helvetica,sans-Serif" font-size="10.00">/home/amit/Projects</text>
<text text-anchor="start" x="452" y="-40" font-family="Helvetica,sans-Serif" font-size="10.00">/COLABFIT/colabfit&#45;kim</text>
<text text-anchor="start" x="452" y="-29" font-family="Helvetica,sans-Serif" font-size="10.00">&#45;model/colabfit&#45;descriptor</text>
<text text-anchor="start" x="452" y="-18" font-family="Helvetica,sans-Serif" font-size="10.00">&#45;library/test/symmetry_function</text>
<text text-anchor="middle" x="520" y="-7" font-family="Helvetica,sans-Serif" font-size="10.00">/symmetry_test.cpp</text>
</a>
</g>
</g>
<!-- Node1&#45;&gt;Node5 -->
<g id="edge4" class="edge">
<title>Node1&#45;&gt;Node5</title>
<path fill="none" stroke="#63b8ff" d="M414.61,-93.92C431.63,-84 450.56,-72.97 467.64,-63.02"/>
<polygon fill="#63b8ff" stroke="#63b8ff" points="412.78,-90.94 405.9,-99 416.3,-96.99 412.78,-90.94"/>
</g>
<!-- Node6 -->
<g id="node6" class="node">
<title>Node6</title>
<g id="a_node6"><a xlink:href="symmetry__test__tmp_8cpp.html" target="_top" xlink:title=" ">
<polygon fill="white" stroke="#666666" points="766,-63 614,-63 614,0 766,0 766,-63"/>
<text text-anchor="start" x="622" y="-51" font-family="Helvetica,sans-Serif" font-size="10.00">/home/amit/Projects</text>
<text text-anchor="start" x="622" y="-40" font-family="Helvetica,sans-Serif" font-size="10.00">/COLABFIT/colabfit&#45;kim</text>
<text text-anchor="start" x="622" y="-29" font-family="Helvetica,sans-Serif" font-size="10.00">&#45;model/colabfit&#45;descriptor</text>
<text text-anchor="start" x="622" y="-18" font-family="Helvetica,sans-Serif" font-size="10.00">&#45;library/test/symmetry_function</text>
<text text-anchor="middle" x="690" y="-7" font-family="Helvetica,sans-Serif" font-size="10.00">/symmetry_test_tmp.cpp</text>
</a>
</g>
</g>
<!-- Node1&#45;&gt;Node6 -->
<g id="edge5" class="edge">
<title>Node1&#45;&gt;Node6</title>
<path fill="none" stroke="#63b8ff" d="M435.88,-107.59C484.19,-96.23 548.77,-80.13 605,-63 607.85,-62.13 610.74,-61.22 613.66,-60.29"/>
<polygon fill="#63b8ff" stroke="#63b8ff" points="435.08,-104.18 426.14,-109.87 436.67,-111 435.08,-104.18"/>
</g>
</g>
</svg>
