<?xml version="1.0" encoding="UTF-8" standalone="no"?>
<!DOCTYPE svg PUBLIC "-//W3C//DTD SVG 1.1//EN"
 "http://www.w3.org/Graphics/SVG/1.1/DTD/svg11.dtd">
<!-- Generated by graphviz version 2.43.0 (0)
 -->
<!-- Title: /home/amit/Projects/COLABFIT/colabfit&#45;kim&#45;model/colabfit&#45;descriptor&#45;library/Descriptors.cpp Pages: 1 -->
<svg width="610pt" height="240pt"
 viewBox="0.00 0.00 610.00 240.00" xmlns="http://www.w3.org/2000/svg" xmlns:xlink="http://www.w3.org/1999/xlink">
<g id="graph0" class="graph" transform="scale(1 1) rotate(0) translate(4 236)">
<title>/home/amit/Projects/COLABFIT/colabfit&#45;kim&#45;model/colabfit&#45;descriptor&#45;library/Descriptors.cpp</title>
<!-- Node1 -->
<g id="node1" class="node">
<title>Node1</title>
<g id="a_node1"><a xlink:title=" ">
<polygon fill="#bfbfbf" stroke="black" points="305.5,-179.5 305.5,-231.5 431.5,-231.5 431.5,-179.5 305.5,-179.5"/>
<text text-anchor="start" x="313.5" y="-219.5" font-family="Helvetica,sans-Serif" font-size="10.00">/home/amit/Projects</text>
<text text-anchor="start" x="313.5" y="-208.5" font-family="Helvetica,sans-Serif" font-size="10.00">/COLABFIT/colabfit&#45;kim</text>
<text text-anchor="start" x="313.5" y="-197.5" font-family="Helvetica,sans-Serif" font-size="10.00">&#45;model/colabfit&#45;descriptor</text>
<text text-anchor="middle" x="368.5" y="-186.5" font-family="Helvetica,sans-Serif" font-size="10.00">&#45;library/Descriptors.cpp</text>
</a>
</g>
</g>
<!-- Node2 -->
<g id="node2" class="node">
<title>Node2</title>
<g id="a_node2"><a xlink:href="_descriptors_8hpp.html" target="_top" xlink:title=" ">
<polygon fill="none" stroke="black" points="282.5,-56.5 282.5,-75.5 368.5,-75.5 368.5,-56.5 282.5,-56.5"/>
<text text-anchor="middle" x="325.5" y="-63.5" font-family="Helvetica,sans-Serif" font-size="10.00">Descriptors.hpp</text>
</a>
</g>
</g>
<!-- Node1&#45;&gt;Node2 -->
<g id="edge1" class="edge">
<title>Node1&#45;&gt;Node2</title>
<path fill="none" stroke="midnightblue" d="M354.84,-179.37C349.39,-168.45 343.48,-155.36 339.5,-143 333.35,-123.89 329.6,-101.14 327.56,-85.55"/>
<polygon fill="midnightblue" stroke="midnightblue" points="331.03,-85.12 326.35,-75.61 324.08,-85.96 331.03,-85.12"/>
</g>
<!-- Node4 -->
<g id="node4" class="node">
<title>Node4</title>
<g id="a_node4"><a xlink:title=" ">
<polygon fill="none" stroke="#bfbfbf" points="0,-0.5 0,-19.5 41,-19.5 41,-0.5 0,-0.5"/>
<text text-anchor="middle" x="20.5" y="-7.5" font-family="Helvetica,sans-Serif" font-size="10.00">string</text>
</a>
</g>
</g>
<!-- Node1&#45;&gt;Node4 -->
<g id="edge22" class="edge">
<title>Node1&#45;&gt;Node4</title>
<path fill="none" stroke="midnightblue" d="M305.37,-196.26C252.74,-187.75 176.74,-171.57 115.5,-143 69.99,-121.76 48.53,-120.1 24.5,-76 16.81,-61.88 16.43,-43.4 17.61,-29.75"/>
<polygon fill="midnightblue" stroke="midnightblue" points="21.11,-29.97 18.84,-19.62 14.16,-29.13 21.11,-29.97"/>
</g>
<!-- Node5 -->
<g id="node5" class="node">
<title>Node5</title>
<g id="a_node5"><a xlink:title=" ">
<polygon fill="none" stroke="#bfbfbf" points="461.5,-0.5 461.5,-19.5 505.5,-19.5 505.5,-0.5 461.5,-0.5"/>
<text text-anchor="middle" x="483.5" y="-7.5" font-family="Helvetica,sans-Serif" font-size="10.00">vector</text>
</a>
</g>
</g>
<!-- Node1&#45;&gt;Node5 -->
<g id="edge21" class="edge">
<title>Node1&#45;&gt;Node5</title>
<path fill="none" stroke="midnightblue" d="M431.67,-189.46C455.96,-180.27 481.25,-165.73 495.5,-143 517.73,-107.54 502.32,-55.85 491.53,-28.88"/>
<polygon fill="midnightblue" stroke="midnightblue" points="494.7,-27.39 487.58,-19.54 488.25,-30.12 494.7,-27.39"/>
</g>
<!-- Node6 -->
<g id="node6" class="node">
<title>Node6</title>
<g id="a_node6"><a xlink:href="_symmetry_functions_8hpp.html" target="_top" xlink:title=" ">
<polygon fill="none" stroke="black" points="124.5,-112.5 124.5,-142.5 276.5,-142.5 276.5,-112.5 124.5,-112.5"/>
<text text-anchor="start" x="132.5" y="-130.5" font-family="Helvetica,sans-Serif" font-size="10.00">SymmetryFunctions/Symmetry</text>
<text text-anchor="middle" x="200.5" y="-119.5" font-family="Helvetica,sans-Serif" font-size="10.00">Functions.hpp</text>
</a>
</g>
</g>
<!-- Node1&#45;&gt;Node6 -->
<g id="edge5" class="edge">
<title>Node1&#45;&gt;Node6</title>
<path fill="none" stroke="midnightblue" d="M313.02,-179.4C289.55,-168.78 262.7,-156.64 241.11,-146.87"/>
<polygon fill="midnightblue" stroke="midnightblue" points="242.46,-143.64 231.9,-142.71 239.57,-150.02 242.46,-143.64"/>
</g>
<!-- Node14 -->
<g id="node14" class="node">
<title>Node14</title>
<g id="a_node14"><a xlink:href="_bispectrum_8hpp.html" target="_top" xlink:title=" ">
<polygon fill="none" stroke="black" points="349,-118 349,-137 486,-137 486,-118 349,-118"/>
<text text-anchor="middle" x="417.5" y="-125" font-family="Helvetica,sans-Serif" font-size="10.00">Bispectrum/Bispectrum.hpp</text>
</a>
</g>
</g>
<!-- Node1&#45;&gt;Node14 -->
<g id="edge17" class="edge">
<title>Node1&#45;&gt;Node14</title>
<path fill="none" stroke="midnightblue" d="M384.82,-179.19C391.91,-168.2 400.03,-155.6 406.4,-145.72"/>
<polygon fill="midnightblue" stroke="midnightblue" points="409.41,-147.51 411.89,-137.21 403.52,-143.72 409.41,-147.51"/>
</g>
<!-- Node15 -->
<g id="node15" class="node">
<title>Node15</title>
<g id="a_node15"><a xlink:title=" ">
<polygon fill="none" stroke="#bfbfbf" points="543,-118 543,-137 602,-137 602,-118 543,-118"/>
<text text-anchor="middle" x="572.5" y="-125" font-family="Helvetica,sans-Serif" font-size="10.00">stdexcept</text>
</a>
</g>
</g>
<!-- Node1&#45;&gt;Node15 -->
<g id="edge23" class="edge">
<title>Node1&#45;&gt;Node15</title>
<path fill="none" stroke="midnightblue" d="M431.65,-180.97C467.45,-167.64 510.75,-151.5 539.81,-140.68"/>
<polygon fill="midnightblue" stroke="midnightblue" points="541.31,-143.85 549.46,-137.08 538.87,-137.29 541.31,-143.85"/>
</g>
<!-- Node3 -->
<g id="node3" class="node">
<title>Node3</title>
<g id="a_node3"><a xlink:title=" ">
<polygon fill="none" stroke="#bfbfbf" points="179,-0.5 179,-19.5 214,-19.5 214,-0.5 179,-0.5"/>
<text text-anchor="middle" x="196.5" y="-7.5" font-family="Helvetica,sans-Serif" font-size="10.00">map</text>
</a>
</g>
</g>
<!-- Node2&#45;&gt;Node3 -->
<g id="edge2" class="edge">
<title>Node2&#45;&gt;Node3</title>
<path fill="none" stroke="midnightblue" d="M305.06,-56.44C283.08,-47.24 248.03,-32.57 223.72,-22.4"/>
<polygon fill="midnightblue" stroke="midnightblue" points="224.93,-19.11 214.35,-18.47 222.23,-25.56 224.93,-19.11"/>
</g>
<!-- Node2&#45;&gt;Node4 -->
<g id="edge3" class="edge">
<title>Node2&#45;&gt;Node4</title>
<path fill="none" stroke="midnightblue" d="M282.45,-57.38C220.1,-46.34 106.17,-26.17 51.45,-16.48"/>
<polygon fill="midnightblue" stroke="midnightblue" points="51.78,-12.98 41.33,-14.69 50.56,-19.88 51.78,-12.98"/>
</g>
<!-- Node2&#45;&gt;Node5 -->
<g id="edge4" class="edge">
<title>Node2&#45;&gt;Node5</title>
<path fill="none" stroke="midnightblue" d="M350.54,-56.44C377.98,-47.07 422.06,-32 451.87,-21.81"/>
<polygon fill="midnightblue" stroke="midnightblue" points="453.06,-25.1 461.39,-18.56 450.79,-18.48 453.06,-25.1"/>
</g>
<!-- Node6&#45;&gt;Node2 -->
<g id="edge11" class="edge">
<title>Node6&#45;&gt;Node2</title>
<path fill="none" stroke="midnightblue" d="M230.12,-112.4C250.72,-102.59 277.98,-89.62 298.08,-80.05"/>
<polygon fill="midnightblue" stroke="midnightblue" points="299.79,-83.12 307.31,-75.66 296.78,-76.8 299.79,-83.12"/>
</g>
<!-- Node6&#45;&gt;Node3 -->
<g id="edge15" class="edge">
<title>Node6&#45;&gt;Node3</title>
<path fill="none" stroke="midnightblue" d="M200.01,-112.34C199.29,-91.62 197.96,-53.02 197.15,-29.9"/>
<polygon fill="midnightblue" stroke="midnightblue" points="200.64,-29.54 196.8,-19.67 193.65,-29.78 200.64,-29.54"/>
</g>
<!-- Node6&#45;&gt;Node4 -->
<g id="edge16" class="edge">
<title>Node6&#45;&gt;Node4</title>
<path fill="none" stroke="midnightblue" d="M124.32,-118.22C94.36,-111.34 61.86,-98.8 39.5,-76 27.55,-63.81 23.04,-44.54 21.38,-30.14"/>
<polygon fill="midnightblue" stroke="midnightblue" points="24.85,-29.56 20.57,-19.87 17.87,-30.11 24.85,-29.56"/>
</g>
<!-- Node7 -->
<g id="node7" class="node">
<title>Node7</title>
<g id="a_node7"><a xlink:href="helper_8hpp.html" target="_top" xlink:title=" ">
<polygon fill="none" stroke="black" points="387,-56.5 387,-75.5 448,-75.5 448,-56.5 387,-56.5"/>
<text text-anchor="middle" x="417.5" y="-63.5" font-family="Helvetica,sans-Serif" font-size="10.00">helper.hpp</text>
</a>
</g>
</g>
<!-- Node6&#45;&gt;Node7 -->
<g id="edge6" class="edge">
<title>Node6&#45;&gt;Node7</title>
<path fill="none" stroke="midnightblue" d="M251.65,-112.47C289.86,-102 341.37,-87.87 376.8,-78.16"/>
<polygon fill="midnightblue" stroke="midnightblue" points="378.07,-81.44 386.79,-75.42 376.22,-74.69 378.07,-81.44"/>
</g>
<!-- Node11 -->
<g id="node11" class="node">
<title>Node11</title>
<g id="a_node11"><a xlink:title=" ">
<polygon fill="none" stroke="#bfbfbf" points="213,-56.5 213,-75.5 264,-75.5 264,-56.5 213,-56.5"/>
<text text-anchor="middle" x="238.5" y="-63.5" font-family="Helvetica,sans-Serif" font-size="10.00">numeric</text>
</a>
</g>
</g>
<!-- Node6&#45;&gt;Node11 -->
<g id="edge12" class="edge">
<title>Node6&#45;&gt;Node11</title>
<path fill="none" stroke="midnightblue" d="M209.51,-112.4C214.91,-103.93 221.83,-93.1 227.55,-84.14"/>
<polygon fill="midnightblue" stroke="midnightblue" points="230.54,-85.97 232.97,-75.66 224.64,-82.2 230.54,-85.97"/>
</g>
<!-- Node12 -->
<g id="node12" class="node">
<title>Node12</title>
<g id="a_node12"><a xlink:title=" ">
<polygon fill="none" stroke="#bfbfbf" points="48.5,-56.5 48.5,-75.5 92.5,-75.5 92.5,-56.5 48.5,-56.5"/>
<text text-anchor="middle" x="70.5" y="-63.5" font-family="Helvetica,sans-Serif" font-size="10.00">cmath</text>
</a>
</g>
</g>
<!-- Node6&#45;&gt;Node12 -->
<g id="edge13" class="edge">
<title>Node6&#45;&gt;Node12</title>
<path fill="none" stroke="midnightblue" d="M169.69,-112.4C148.17,-102.55 119.66,-89.5 98.73,-79.92"/>
<polygon fill="midnightblue" stroke="midnightblue" points="99.97,-76.64 89.42,-75.66 97.05,-83 99.97,-76.64"/>
</g>
<!-- Node13 -->
<g id="node13" class="node">
<title>Node13</title>
<g id="a_node13"><a xlink:title=" ">
<polygon fill="none" stroke="#bfbfbf" points="110.5,-56.5 110.5,-75.5 156.5,-75.5 156.5,-56.5 110.5,-56.5"/>
<text text-anchor="middle" x="133.5" y="-63.5" font-family="Helvetica,sans-Serif" font-size="10.00">cstring</text>
</a>
</g>
</g>
<!-- Node6&#45;&gt;Node13 -->
<g id="edge14" class="edge">
<title>Node6&#45;&gt;Node13</title>
<path fill="none" stroke="midnightblue" d="M184.62,-112.4C174.48,-103.4 161.34,-91.72 150.91,-82.47"/>
<polygon fill="midnightblue" stroke="midnightblue" points="153.05,-79.68 143.25,-75.66 148.4,-84.92 153.05,-79.68"/>
</g>
<!-- Node7&#45;&gt;Node5 -->
<g id="edge10" class="edge">
<title>Node7&#45;&gt;Node5</title>
<path fill="none" stroke="midnightblue" d="M428.1,-56.32C437.96,-48.26 452.85,-36.08 464.72,-26.37"/>
<polygon fill="midnightblue" stroke="midnightblue" points="467.18,-28.88 472.7,-19.83 462.75,-23.46 467.18,-28.88"/>
</g>
<!-- Node8 -->
<g id="node8" class="node">
<title>Node8</title>
<g id="a_node8"><a xlink:title=" ">
<polygon fill="none" stroke="#bfbfbf" points="245.5,-0.5 245.5,-19.5 301.5,-19.5 301.5,-0.5 245.5,-0.5"/>
<text text-anchor="middle" x="273.5" y="-7.5" font-family="Helvetica,sans-Serif" font-size="10.00">algorithm</text>
</a>
</g>
</g>
<!-- Node7&#45;&gt;Node8 -->
<g id="edge7" class="edge">
<title>Node7&#45;&gt;Node8</title>
<path fill="none" stroke="midnightblue" d="M394.68,-56.44C370.67,-47.44 332.67,-33.19 305.63,-23.05"/>
<polygon fill="midnightblue" stroke="midnightblue" points="306.8,-19.75 296.21,-19.52 304.34,-26.3 306.8,-19.75"/>
</g>
<!-- Node9 -->
<g id="node9" class="node">
<title>Node9</title>
<g id="a_node9"><a xlink:title=" ">
<polygon fill="none" stroke="#bfbfbf" points="319.5,-0.5 319.5,-19.5 373.5,-19.5 373.5,-0.5 319.5,-0.5"/>
<text text-anchor="middle" x="346.5" y="-7.5" font-family="Helvetica,sans-Serif" font-size="10.00">iostream</text>
</a>
</g>
</g>
<!-- Node7&#45;&gt;Node9 -->
<g id="edge8" class="edge">
<title>Node7&#45;&gt;Node9</title>
<path fill="none" stroke="midnightblue" d="M406.09,-56.32C395.39,-48.18 379.16,-35.84 366.34,-26.09"/>
<polygon fill="midnightblue" stroke="midnightblue" points="368.19,-23.1 358.11,-19.83 363.96,-28.67 368.19,-23.1"/>
</g>
<!-- Node10 -->
<g id="node10" class="node">
<title>Node10</title>
<g id="a_node10"><a xlink:title=" ">
<polygon fill="none" stroke="#bfbfbf" points="391.5,-0.5 391.5,-19.5 443.5,-19.5 443.5,-0.5 391.5,-0.5"/>
<text text-anchor="middle" x="417.5" y="-7.5" font-family="Helvetica,sans-Serif" font-size="10.00">sstream</text>
</a>
</g>
</g>
<!-- Node7&#45;&gt;Node10 -->
<g id="edge9" class="edge">
<title>Node7&#45;&gt;Node10</title>
<path fill="none" stroke="midnightblue" d="M417.5,-56.08C417.5,-49.01 417.5,-38.86 417.5,-29.99"/>
<polygon fill="midnightblue" stroke="midnightblue" points="421,-29.75 417.5,-19.75 414,-29.75 421,-29.75"/>
</g>
<!-- Node14&#45;&gt;Node2 -->
<g id="edge19" class="edge">
<title>Node14&#45;&gt;Node2</title>
<path fill="none" stroke="midnightblue" d="M404.32,-117.98C389.43,-108.34 364.96,-92.52 347.23,-81.05"/>
<polygon fill="midnightblue" stroke="midnightblue" points="348.95,-78 338.66,-75.51 345.15,-83.88 348.95,-78"/>
</g>
<!-- Node14&#45;&gt;Node5 -->
<g id="edge20" class="edge">
<title>Node14&#45;&gt;Node5</title>
<path fill="none" stroke="midnightblue" d="M425.72,-117.77C434.47,-108.13 448.3,-91.87 457.5,-76 466.16,-61.06 473.21,-42.69 477.78,-29.3"/>
<polygon fill="midnightblue" stroke="midnightblue" points="481.11,-30.37 480.89,-19.78 474.45,-28.2 481.11,-30.37"/>
</g>
<!-- Node14&#45;&gt;Node7 -->
<g id="edge18" class="edge">
<title>Node14&#45;&gt;Node7</title>
<path fill="none" stroke="midnightblue" d="M417.5,-117.98C417.5,-109.58 417.5,-96.48 417.5,-85.66"/>
<polygon fill="midnightblue" stroke="midnightblue" points="421,-85.51 417.5,-75.51 414,-85.51 421,-85.51"/>
</g>
</g>
</svg>
