<?xml version="1.0" encoding="UTF-8" standalone="no"?>
<!DOCTYPE svg PUBLIC "-//W3C//DTD SVG 1.1//EN"
 "http://www.w3.org/Graphics/SVG/1.1/DTD/svg11.dtd">
<!-- Generated by graphviz version 2.43.0 (0)
 -->
<!-- Title: /home/amit/Projects/COLABFIT/colabfit&#45;kim&#45;model/colabfit&#45;descriptor&#45;library/Descriptors.hpp Pages: 1 -->
<svg width="165pt" height="117pt"
 viewBox="0.00 0.00 164.50 117.00" xmlns="http://www.w3.org/2000/svg" xmlns:xlink="http://www.w3.org/1999/xlink">
<g id="graph0" class="graph" transform="scale(1 1) rotate(0) translate(4 113)">
<title>/home/amit/Projects/COLABFIT/colabfit&#45;kim&#45;model/colabfit&#45;descriptor&#45;library/Descriptors.hpp</title>
<!-- Node1 -->
<g id="node1" class="node">
<title>Node1</title>
<g id="a_node1"><a xlink:title=" ">
<polygon fill="#bfbfbf" stroke="black" points="10.5,-56.5 10.5,-108.5 136.5,-108.5 136.5,-56.5 10.5,-56.5"/>
<text text-anchor="start" x="18.5" y="-96.5" font-family="Helvetica,sans-Serif" font-size="10.00">/home/amit/Projects</text>
<text text-anchor="start" x="18.5" y="-85.5" font-family="Helvetica,sans-Serif" font-size="10.00">/COLABFIT/colabfit&#45;kim</text>
<text text-anchor="start" x="18.5" y="-74.5" font-family="Helvetica,sans-Serif" font-size="10.00">&#45;model/colabfit&#45;descriptor</text>
<text text-anchor="middle" x="73.5" y="-63.5" font-family="Helvetica,sans-Serif" font-size="10.00">&#45;library/Descriptors.hpp</text>
</a>
</g>
</g>
<!-- Node2 -->
<g id="node2" class="node">
<title>Node2</title>
<g id="a_node2"><a xlink:title=" ">
<polygon fill="none" stroke="#bfbfbf" points="0,-0.5 0,-19.5 35,-19.5 35,-0.5 0,-0.5"/>
<text text-anchor="middle" x="17.5" y="-7.5" font-family="Helvetica,sans-Serif" font-size="10.00">map</text>
</a>
</g>
</g>
<!-- Node1&#45;&gt;Node2 -->
<g id="edge1" class="edge">
<title>Node1&#45;&gt;Node2</title>
<path fill="none" stroke="midnightblue" d="M53.6,-56.45C46.04,-46.93 37.62,-36.33 30.81,-27.76"/>
<polygon fill="midnightblue" stroke="midnightblue" points="33.37,-25.35 24.41,-19.7 27.89,-29.7 33.37,-25.35"/>
</g>
<!-- Node3 -->
<g id="node3" class="node">
<title>Node3</title>
<g id="a_node3"><a xlink:title=" ">
<polygon fill="none" stroke="#bfbfbf" points="53,-0.5 53,-19.5 94,-19.5 94,-0.5 53,-0.5"/>
<text text-anchor="middle" x="73.5" y="-7.5" font-family="Helvetica,sans-Serif" font-size="10.00">string</text>
</a>
</g>
</g>
<!-- Node1&#45;&gt;Node3 -->
<g id="edge2" class="edge">
<title>Node1&#45;&gt;Node3</title>
<path fill="none" stroke="midnightblue" d="M73.5,-56.45C73.5,-47.73 73.5,-38.1 73.5,-29.96"/>
<polygon fill="midnightblue" stroke="midnightblue" points="77,-29.7 73.5,-19.7 70,-29.7 77,-29.7"/>
</g>
<!-- Node4 -->
<g id="node4" class="node">
<title>Node4</title>
<g id="a_node4"><a xlink:title=" ">
<polygon fill="none" stroke="#bfbfbf" points="112.5,-0.5 112.5,-19.5 156.5,-19.5 156.5,-0.5 112.5,-0.5"/>
<text text-anchor="middle" x="134.5" y="-7.5" font-family="Helvetica,sans-Serif" font-size="10.00">vector</text>
</a>
</g>
</g>
<!-- Node1&#45;&gt;Node4 -->
<g id="edge3" class="edge">
<title>Node1&#45;&gt;Node4</title>
<path fill="none" stroke="midnightblue" d="M95.18,-56.45C103.5,-46.83 112.78,-36.1 120.23,-27.49"/>
<polygon fill="midnightblue" stroke="midnightblue" points="123.08,-29.55 126.98,-19.7 117.79,-24.97 123.08,-29.55"/>
</g>
</g>
</svg>
