<?xml version="1.0" encoding="UTF-8" standalone="no"?>
<!DOCTYPE svg PUBLIC "-//W3C//DTD SVG 1.1//EN"
 "http://www.w3.org/Graphics/SVG/1.1/DTD/svg11.dtd">
<!-- Generated by graphviz version 2.43.0 (0)
 -->
<!-- Title: /home/amit/Projects/COLABFIT/colabfit&#45;kim&#45;model/colabfit&#45;descriptor&#45;library/Descriptors.hpp Pages: 1 -->
<svg width="581pt" height="261pt"
 viewBox="0.00 0.00 581.00 261.00" xmlns="http://www.w3.org/2000/svg" xmlns:xlink="http://www.w3.org/1999/xlink">
<g id="graph0" class="graph" transform="scale(1 1) rotate(0) translate(4 257)">
<title>/home/amit/Projects/COLABFIT/colabfit&#45;kim&#45;model/colabfit&#45;descriptor&#45;library/Descriptors.hpp</title>
<!-- Node1 -->
<g id="node1" class="node">
<title>Node1</title>
<g id="a_node1"><a xlink:title=" ">
<polygon fill="#bfbfbf" stroke="black" points="236,-200.5 236,-252.5 362,-252.5 362,-200.5 236,-200.5"/>
<text text-anchor="start" x="244" y="-240.5" font-family="Helvetica,sans-Serif" font-size="10.00">/home/amit/Projects</text>
<text text-anchor="start" x="244" y="-229.5" font-family="Helvetica,sans-Serif" font-size="10.00">/COLABFIT/colabfit&#45;kim</text>
<text text-anchor="start" x="244" y="-218.5" font-family="Helvetica,sans-Serif" font-size="10.00">&#45;model/colabfit&#45;descriptor</text>
<text text-anchor="middle" x="299" y="-207.5" font-family="Helvetica,sans-Serif" font-size="10.00">&#45;library/Descriptors.hpp</text>
</a>
</g>
</g>
<!-- Node2 -->
<g id="node2" class="node">
<title>Node2</title>
<g id="a_node2"><a xlink:href="_bispectrum_8hpp.html" target="_top" xlink:title=" ">
<polygon fill="none" stroke="black" points="53,-106 53,-158 223,-158 223,-106 53,-106"/>
<text text-anchor="start" x="61" y="-146" font-family="Helvetica,sans-Serif" font-size="10.00">/home/amit/Projects</text>
<text text-anchor="start" x="61" y="-135" font-family="Helvetica,sans-Serif" font-size="10.00">/COLABFIT/colabfit&#45;kim</text>
<text text-anchor="start" x="61" y="-124" font-family="Helvetica,sans-Serif" font-size="10.00">&#45;model/colabfit&#45;descriptor</text>
<text text-anchor="middle" x="138" y="-113" font-family="Helvetica,sans-Serif" font-size="10.00">&#45;library/Bispectrum/Bispectrum.hpp</text>
</a>
</g>
</g>
<!-- Node1&#45;&gt;Node2 -->
<g id="edge1" class="edge">
<title>Node1&#45;&gt;Node2</title>
<path fill="none" stroke="midnightblue" d="M246.62,-195.41C225.6,-183.33 201.65,-169.57 181.6,-158.05"/>
<polygon fill="midnightblue" stroke="midnightblue" points="245.02,-198.52 255.43,-200.47 248.5,-192.45 245.02,-198.52"/>
</g>
<!-- Node4 -->
<g id="node4" class="node">
<title>Node4</title>
<g id="a_node4"><a xlink:href="_descriptors_8cpp.html" target="_top" xlink:title=" ">
<polygon fill="none" stroke="black" points="188,-6 188,-58 314,-58 314,-6 188,-6"/>
<text text-anchor="start" x="196" y="-46" font-family="Helvetica,sans-Serif" font-size="10.00">/home/amit/Projects</text>
<text text-anchor="start" x="196" y="-35" font-family="Helvetica,sans-Serif" font-size="10.00">/COLABFIT/colabfit&#45;kim</text>
<text text-anchor="start" x="196" y="-24" font-family="Helvetica,sans-Serif" font-size="10.00">&#45;model/colabfit&#45;descriptor</text>
<text text-anchor="middle" x="251" y="-13" font-family="Helvetica,sans-Serif" font-size="10.00">&#45;library/Descriptors.cpp</text>
</a>
</g>
</g>
<!-- Node1&#45;&gt;Node4 -->
<g id="edge4" class="edge">
<title>Node1&#45;&gt;Node4</title>
<path fill="none" stroke="midnightblue" d="M280.7,-191.34C276.65,-182.62 272.75,-173.13 270,-164 259.2,-128.13 254.45,-84.83 252.43,-58.1"/>
<polygon fill="midnightblue" stroke="midnightblue" points="277.6,-192.97 285.11,-200.44 283.9,-189.91 277.6,-192.97"/>
</g>
<!-- Node5 -->
<g id="node5" class="node">
<title>Node5</title>
<g id="a_node5"><a xlink:href="_symmetry_functions_8hpp.html" target="_top" xlink:title=" ">
<polygon fill="none" stroke="black" points="279.5,-100.5 279.5,-163.5 416.5,-163.5 416.5,-100.5 279.5,-100.5"/>
<text text-anchor="start" x="287.5" y="-151.5" font-family="Helvetica,sans-Serif" font-size="10.00">/home/amit/Projects</text>
<text text-anchor="start" x="287.5" y="-140.5" font-family="Helvetica,sans-Serif" font-size="10.00">/COLABFIT/colabfit&#45;kim</text>
<text text-anchor="start" x="287.5" y="-129.5" font-family="Helvetica,sans-Serif" font-size="10.00">&#45;model/colabfit&#45;descriptor</text>
<text text-anchor="start" x="287.5" y="-118.5" font-family="Helvetica,sans-Serif" font-size="10.00">&#45;library/SymmetryFunctions</text>
<text text-anchor="middle" x="348" y="-107.5" font-family="Helvetica,sans-Serif" font-size="10.00">/SymmetryFunctions.hpp</text>
</a>
</g>
</g>
<!-- Node1&#45;&gt;Node5 -->
<g id="edge5" class="edge">
<title>Node1&#45;&gt;Node5</title>
<path fill="none" stroke="midnightblue" d="M317.08,-191.38C321.91,-182.25 327.11,-172.44 331.84,-163.51"/>
<polygon fill="midnightblue" stroke="midnightblue" points="313.98,-189.75 312.39,-200.22 320.16,-193.03 313.98,-189.75"/>
</g>
<!-- Node7 -->
<g id="node7" class="node">
<title>Node7</title>
<g id="a_node7"><a xlink:href="python__bindings_8cpp.html" target="_top" xlink:title=" ">
<polygon fill="none" stroke="black" points="435,-106 435,-158 573,-158 573,-106 435,-106"/>
<text text-anchor="start" x="443" y="-146" font-family="Helvetica,sans-Serif" font-size="10.00">/home/amit/Projects</text>
<text text-anchor="start" x="443" y="-135" font-family="Helvetica,sans-Serif" font-size="10.00">/COLABFIT/colabfit&#45;kim</text>
<text text-anchor="start" x="443" y="-124" font-family="Helvetica,sans-Serif" font-size="10.00">&#45;model/colabfit&#45;descriptor</text>
<text text-anchor="middle" x="504" y="-113" font-family="Helvetica,sans-Serif" font-size="10.00">&#45;library/python_bindings.cpp</text>
</a>
</g>
</g>
<!-- Node1&#45;&gt;Node7 -->
<g id="edge8" class="edge">
<title>Node1&#45;&gt;Node7</title>
<path fill="none" stroke="midnightblue" d="M363.91,-196.21C391.1,-183.94 422.38,-169.83 448.48,-158.05"/>
<polygon fill="midnightblue" stroke="midnightblue" points="362.15,-193.16 354.48,-200.47 365.03,-199.55 362.15,-193.16"/>
</g>
<!-- Node3 -->
<g id="node3" class="node">
<title>Node3</title>
<g id="a_node3"><a xlink:href="_bispectrum_8cpp.html" target="_top" xlink:title=" ">
<polygon fill="none" stroke="black" points="0,-6 0,-58 170,-58 170,-6 0,-6"/>
<text text-anchor="start" x="8" y="-46" font-family="Helvetica,sans-Serif" font-size="10.00">/home/amit/Projects</text>
<text text-anchor="start" x="8" y="-35" font-family="Helvetica,sans-Serif" font-size="10.00">/COLABFIT/colabfit&#45;kim</text>
<text text-anchor="start" x="8" y="-24" font-family="Helvetica,sans-Serif" font-size="10.00">&#45;model/colabfit&#45;descriptor</text>
<text text-anchor="middle" x="85" y="-13" font-family="Helvetica,sans-Serif" font-size="10.00">&#45;library/Bispectrum/Bispectrum.cpp</text>
</a>
</g>
</g>
<!-- Node2&#45;&gt;Node3 -->
<g id="edge2" class="edge">
<title>Node2&#45;&gt;Node3</title>
<path fill="none" stroke="midnightblue" d="M119.51,-96.82C112.64,-84.1 104.96,-69.91 98.6,-58.15"/>
<polygon fill="midnightblue" stroke="midnightblue" points="116.52,-98.63 124.35,-105.76 122.67,-95.3 116.52,-98.63"/>
</g>
<!-- Node2&#45;&gt;Node4 -->
<g id="edge3" class="edge">
<title>Node2&#45;&gt;Node4</title>
<path fill="none" stroke="midnightblue" d="M174.87,-99.02C190.16,-85.76 207.65,-70.6 222,-58.15"/>
<polygon fill="midnightblue" stroke="midnightblue" points="172.36,-96.57 167.1,-105.76 176.95,-101.85 172.36,-96.57"/>
</g>
<!-- Node5&#45;&gt;Node4 -->
<g id="edge6" class="edge">
<title>Node5&#45;&gt;Node4</title>
<path fill="none" stroke="midnightblue" d="M310.48,-93.09C298.85,-81.34 286.33,-68.7 275.8,-58.05"/>
<polygon fill="midnightblue" stroke="midnightblue" points="308.05,-95.62 317.57,-100.26 313.03,-90.69 308.05,-95.62"/>
</g>
<!-- Node6 -->
<g id="node6" class="node">
<title>Node6</title>
<g id="a_node6"><a xlink:href="_symmetry_functions_8cpp.html" target="_top" xlink:title=" ">
<polygon fill="none" stroke="black" points="332.5,-0.5 332.5,-63.5 469.5,-63.5 469.5,-0.5 332.5,-0.5"/>
<text text-anchor="start" x="340.5" y="-51.5" font-family="Helvetica,sans-Serif" font-size="10.00">/home/amit/Projects</text>
<text text-anchor="start" x="340.5" y="-40.5" font-family="Helvetica,sans-Serif" font-size="10.00">/COLABFIT/colabfit&#45;kim</text>
<text text-anchor="start" x="340.5" y="-29.5" font-family="Helvetica,sans-Serif" font-size="10.00">&#45;model/colabfit&#45;descriptor</text>
<text text-anchor="start" x="340.5" y="-18.5" font-family="Helvetica,sans-Serif" font-size="10.00">&#45;library/SymmetryFunctions</text>
<text text-anchor="middle" x="401" y="-7.5" font-family="Helvetica,sans-Serif" font-size="10.00">/SymmetryFunctions.cpp</text>
</a>
</g>
</g>
<!-- Node5&#45;&gt;Node6 -->
<g id="edge7" class="edge">
<title>Node5&#45;&gt;Node6</title>
<path fill="none" stroke="midnightblue" d="M369.5,-91.25C374.48,-82.04 379.7,-72.38 384.43,-63.63"/>
<polygon fill="midnightblue" stroke="midnightblue" points="366.3,-89.8 364.62,-100.26 372.46,-93.13 366.3,-89.8"/>
</g>
</g>
</svg>
