<?xml version="1.0" encoding="UTF-8" standalone="no"?>
<!DOCTYPE svg PUBLIC "-//W3C//DTD SVG 1.1//EN"
 "http://www.w3.org/Graphics/SVG/1.1/DTD/svg11.dtd">
<!-- Generated by graphviz version 2.43.0 (0)
 -->
<!-- Title: /home/amit/Projects/COLABFIT/colabfit&#45;kim&#45;model/colabfit&#45;descriptor&#45;library/SymmetryFunctions/SymmetryFunctions.cpp Pages: 1 -->
<svg width="659pt" height="236pt"
 viewBox="0.00 0.00 659.00 236.00" xmlns="http://www.w3.org/2000/svg" xmlns:xlink="http://www.w3.org/1999/xlink">
<g id="graph0" class="graph" transform="scale(1 1) rotate(0) translate(4 232)">
<title>/home/amit/Projects/COLABFIT/colabfit&#45;kim&#45;model/colabfit&#45;descriptor&#45;library/SymmetryFunctions/SymmetryFunctions.cpp</title>
<!-- Node1 -->
<g id="node1" class="node">
<title>Node1</title>
<g id="a_node1"><a xlink:title=" ">
<polygon fill="#999999" stroke="#666666" points="622.5,-228 485.5,-228 485.5,-165 622.5,-165 622.5,-228"/>
<text text-anchor="start" x="493.5" y="-216" font-family="Helvetica,sans-Serif" font-size="10.00">/home/amit/Projects</text>
<text text-anchor="start" x="493.5" y="-205" font-family="Helvetica,sans-Serif" font-size="10.00">/COLABFIT/colabfit&#45;kim</text>
<text text-anchor="start" x="493.5" y="-194" font-family="Helvetica,sans-Serif" font-size="10.00">&#45;model/colabfit&#45;descriptor</text>
<text text-anchor="start" x="493.5" y="-183" font-family="Helvetica,sans-Serif" font-size="10.00">&#45;library/SymmetryFunctions</text>
<text text-anchor="middle" x="554" y="-172" font-family="Helvetica,sans-Serif" font-size="10.00">/SymmetryFunctions.cpp</text>
</a>
</g>
</g>
<!-- Node2 -->
<g id="node2" class="node">
<title>Node2</title>
<g id="a_node2"><a xlink:href="_symmetry_functions_8hpp.html" target="_top" xlink:title=" ">
<polygon fill="white" stroke="#666666" points="438.5,-129 315.5,-129 315.5,-110 438.5,-110 438.5,-129"/>
<text text-anchor="middle" x="377" y="-117" font-family="Helvetica,sans-Serif" font-size="10.00">SymmetryFunctions.hpp</text>
</a>
</g>
</g>
<!-- Node1&#45;&gt;Node2 -->
<g id="edge1" class="edge">
<title>Node1&#45;&gt;Node2</title>
<path fill="none" stroke="#63b8ff" d="M485.31,-166.4C458.01,-154.83 428.06,-142.13 406.58,-133.03"/>
<polygon fill="#63b8ff" stroke="#63b8ff" points="407.92,-129.8 397.35,-129.12 405.19,-136.25 407.92,-129.8"/>
</g>
<!-- Node7 -->
<g id="node7" class="node">
<title>Node7</title>
<g id="a_node7"><a xlink:title=" ">
<polygon fill="#e0e0e0" stroke="#999999" points="427,-19 383,-19 383,0 427,0 427,-19"/>
<text text-anchor="middle" x="405" y="-7" font-family="Helvetica,sans-Serif" font-size="10.00">vector</text>
</a>
</g>
</g>
<!-- Node1&#45;&gt;Node7 -->
<g id="edge13" class="edge">
<title>Node1&#45;&gt;Node7</title>
<path fill="none" stroke="#63b8ff" d="M563.69,-164.83C571.41,-133.94 577.46,-86.49 554,-55 527.25,-19.1 472.63,-11.04 437.47,-9.81"/>
<polygon fill="#63b8ff" stroke="#63b8ff" points="437.3,-6.31 427.24,-9.63 437.17,-13.31 437.3,-6.31"/>
</g>
<!-- Node10 -->
<g id="node10" class="node">
<title>Node10</title>
<g id="a_node10"><a xlink:title=" ">
<polygon fill="#e0e0e0" stroke="#999999" points="545,-74 501,-74 501,-55 545,-55 545,-74"/>
<text text-anchor="middle" x="523" y="-62" font-family="Helvetica,sans-Serif" font-size="10.00">cmath</text>
</a>
</g>
</g>
<!-- Node1&#45;&gt;Node10 -->
<g id="edge14" class="edge">
<title>Node1&#45;&gt;Node10</title>
<path fill="none" stroke="#63b8ff" d="M546.65,-164.69C540.67,-139.62 532.43,-105.05 527.42,-84.04"/>
<polygon fill="#63b8ff" stroke="#63b8ff" points="530.79,-83.08 525.07,-74.16 523.98,-84.7 530.79,-83.08"/>
</g>
<!-- Node14 -->
<g id="node14" class="node">
<title>Node14</title>
<g id="a_node14"><a xlink:title=" ">
<polygon fill="#e0e0e0" stroke="#999999" points="651,-129 601,-129 601,-110 651,-110 651,-129"/>
<text text-anchor="middle" x="626" y="-117" font-family="Helvetica,sans-Serif" font-size="10.00">fstream</text>
</a>
</g>
</g>
<!-- Node1&#45;&gt;Node14 -->
<g id="edge15" class="edge">
<title>Node1&#45;&gt;Node14</title>
<path fill="none" stroke="#63b8ff" d="M583.29,-164.99C592.73,-155.16 602.81,-144.66 610.8,-136.33"/>
<polygon fill="#63b8ff" stroke="#63b8ff" points="613.34,-138.74 617.74,-129.1 608.29,-133.89 613.34,-138.74"/>
</g>
<!-- Node3 -->
<g id="node3" class="node">
<title>Node3</title>
<g id="a_node3"><a xlink:href="helper_8hpp.html" target="_top" xlink:title=" ">
<polygon fill="white" stroke="#666666" points="131.5,-74 70.5,-74 70.5,-55 131.5,-55 131.5,-74"/>
<text text-anchor="middle" x="101" y="-62" font-family="Helvetica,sans-Serif" font-size="10.00">helper.hpp</text>
</a>
</g>
</g>
<!-- Node2&#45;&gt;Node3 -->
<g id="edge2" class="edge">
<title>Node2&#45;&gt;Node3</title>
<path fill="none" stroke="#63b8ff" d="M329.92,-109.95C284.39,-101.61 213.17,-88.37 141.65,-74.09"/>
<polygon fill="#63b8ff" stroke="#63b8ff" points="142.05,-70.6 131.56,-72.07 140.68,-77.47 142.05,-70.6"/>
</g>
<!-- Node8 -->
<g id="node8" class="node">
<title>Node8</title>
<g id="a_node8"><a xlink:title=" ">
<polygon fill="#e0e0e0" stroke="#999999" points="236,-74 150,-74 150,-55 236,-55 236,-74"/>
<text text-anchor="middle" x="193" y="-62" font-family="Helvetica,sans-Serif" font-size="10.00">Descriptors.hpp</text>
</a>
</g>
</g>
<!-- Node2&#45;&gt;Node8 -->
<g id="edge7" class="edge">
<title>Node2&#45;&gt;Node8</title>
<path fill="none" stroke="#63b8ff" d="M347.44,-109.98C316.28,-101.01 267.03,-86.82 232.54,-76.89"/>
<polygon fill="#63b8ff" stroke="#63b8ff" points="233.37,-73.49 222.79,-74.08 231.43,-80.21 233.37,-73.49"/>
</g>
<!-- Node9 -->
<g id="node9" class="node">
<title>Node9</title>
<g id="a_node9"><a xlink:title=" ">
<polygon fill="#e0e0e0" stroke="#999999" points="305.5,-74 254.5,-74 254.5,-55 305.5,-55 305.5,-74"/>
<text text-anchor="middle" x="280" y="-62" font-family="Helvetica,sans-Serif" font-size="10.00">numeric</text>
</a>
</g>
</g>
<!-- Node2&#45;&gt;Node9 -->
<g id="edge8" class="edge">
<title>Node2&#45;&gt;Node9</title>
<path fill="none" stroke="#63b8ff" d="M361.42,-109.98C346.23,-101.69 322.9,-88.94 305.1,-79.22"/>
<polygon fill="#63b8ff" stroke="#63b8ff" points="306.32,-75.89 295.87,-74.17 302.97,-82.04 306.32,-75.89"/>
</g>
<!-- Node2&#45;&gt;Node10 -->
<g id="edge9" class="edge">
<title>Node2&#45;&gt;Node10</title>
<path fill="none" stroke="#63b8ff" d="M400.46,-109.98C425.01,-101.07 463.72,-87.02 491.05,-77.1"/>
<polygon fill="#63b8ff" stroke="#63b8ff" points="492.35,-80.35 500.56,-73.65 489.97,-73.77 492.35,-80.35"/>
</g>
<!-- Node11 -->
<g id="node11" class="node">
<title>Node11</title>
<g id="a_node11"><a xlink:title=" ">
<polygon fill="#e0e0e0" stroke="#999999" points="370,-74 324,-74 324,-55 370,-55 370,-74"/>
<text text-anchor="middle" x="347" y="-62" font-family="Helvetica,sans-Serif" font-size="10.00">cstring</text>
</a>
</g>
</g>
<!-- Node2&#45;&gt;Node11 -->
<g id="edge10" class="edge">
<title>Node2&#45;&gt;Node11</title>
<path fill="none" stroke="#63b8ff" d="M372.05,-109.75C367.94,-102.49 361.97,-91.95 356.9,-82.98"/>
<polygon fill="#63b8ff" stroke="#63b8ff" points="359.83,-81.07 351.86,-74.09 353.74,-84.52 359.83,-81.07"/>
</g>
<!-- Node12 -->
<g id="node12" class="node">
<title>Node12</title>
<g id="a_node12"><a xlink:title=" ">
<polygon fill="#e0e0e0" stroke="#999999" points="423.5,-74 388.5,-74 388.5,-55 423.5,-55 423.5,-74"/>
<text text-anchor="middle" x="406" y="-62" font-family="Helvetica,sans-Serif" font-size="10.00">map</text>
</a>
</g>
</g>
<!-- Node2&#45;&gt;Node12 -->
<g id="edge11" class="edge">
<title>Node2&#45;&gt;Node12</title>
<path fill="none" stroke="#63b8ff" d="M381.79,-109.75C385.76,-102.49 391.53,-91.95 396.43,-82.98"/>
<polygon fill="#63b8ff" stroke="#63b8ff" points="399.57,-84.54 401.3,-74.09 393.43,-81.18 399.57,-84.54"/>
</g>
<!-- Node13 -->
<g id="node13" class="node">
<title>Node13</title>
<g id="a_node13"><a xlink:title=" ">
<polygon fill="#e0e0e0" stroke="#999999" points="482.5,-74 441.5,-74 441.5,-55 482.5,-55 482.5,-74"/>
<text text-anchor="middle" x="462" y="-62" font-family="Helvetica,sans-Serif" font-size="10.00">string</text>
</a>
</g>
</g>
<!-- Node2&#45;&gt;Node13 -->
<g id="edge12" class="edge">
<title>Node2&#45;&gt;Node13</title>
<path fill="none" stroke="#63b8ff" d="M390.66,-109.98C403.84,-101.77 424.03,-89.18 439.57,-79.49"/>
<polygon fill="#63b8ff" stroke="#63b8ff" points="441.46,-82.43 448.09,-74.17 437.76,-76.49 441.46,-82.43"/>
</g>
<!-- Node4 -->
<g id="node4" class="node">
<title>Node4</title>
<g id="a_node4"><a xlink:title=" ">
<polygon fill="#e0e0e0" stroke="#999999" points="56,-19 0,-19 0,0 56,0 56,-19"/>
<text text-anchor="middle" x="28" y="-7" font-family="Helvetica,sans-Serif" font-size="10.00">algorithm</text>
</a>
</g>
</g>
<!-- Node3&#45;&gt;Node4 -->
<g id="edge3" class="edge">
<title>Node3&#45;&gt;Node4</title>
<path fill="none" stroke="#63b8ff" d="M89.27,-54.98C78.27,-47 61.58,-34.88 48.4,-25.31"/>
<polygon fill="#63b8ff" stroke="#63b8ff" points="50.09,-22.21 39.94,-19.17 45.98,-27.88 50.09,-22.21"/>
</g>
<!-- Node5 -->
<g id="node5" class="node">
<title>Node5</title>
<g id="a_node5"><a xlink:title=" ">
<polygon fill="#e0e0e0" stroke="#999999" points="128,-19 74,-19 74,0 128,0 128,-19"/>
<text text-anchor="middle" x="101" y="-7" font-family="Helvetica,sans-Serif" font-size="10.00">iostream</text>
</a>
</g>
</g>
<!-- Node3&#45;&gt;Node5 -->
<g id="edge4" class="edge">
<title>Node3&#45;&gt;Node5</title>
<path fill="none" stroke="#63b8ff" d="M101,-54.75C101,-47.8 101,-37.85 101,-29.13"/>
<polygon fill="#63b8ff" stroke="#63b8ff" points="104.5,-29.09 101,-19.09 97.5,-29.09 104.5,-29.09"/>
</g>
<!-- Node6 -->
<g id="node6" class="node">
<title>Node6</title>
<g id="a_node6"><a xlink:title=" ">
<polygon fill="#e0e0e0" stroke="#999999" points="198,-19 146,-19 146,0 198,0 198,-19"/>
<text text-anchor="middle" x="172" y="-7" font-family="Helvetica,sans-Serif" font-size="10.00">sstream</text>
</a>
</g>
</g>
<!-- Node3&#45;&gt;Node6 -->
<g id="edge5" class="edge">
<title>Node3&#45;&gt;Node6</title>
<path fill="none" stroke="#63b8ff" d="M112.41,-54.98C123.11,-47 139.34,-34.88 152.16,-25.31"/>
<polygon fill="#63b8ff" stroke="#63b8ff" points="154.47,-27.96 160.39,-19.17 150.28,-22.35 154.47,-27.96"/>
</g>
<!-- Node3&#45;&gt;Node7 -->
<g id="edge6" class="edge">
<title>Node3&#45;&gt;Node7</title>
<path fill="none" stroke="#63b8ff" d="M131.55,-56.87C134.74,-56.22 137.93,-55.58 141,-55 224.16,-39.16 322.62,-23.34 372.52,-15.52"/>
<polygon fill="#63b8ff" stroke="#63b8ff" points="373.35,-18.93 382.69,-13.93 372.27,-12.02 373.35,-18.93"/>
</g>
</g>
</svg>
