<?xml version="1.0" encoding="UTF-8" standalone="no"?>
<!DOCTYPE svg PUBLIC "-//W3C//DTD SVG 1.1//EN"
 "http://www.w3.org/Graphics/SVG/1.1/DTD/svg11.dtd">
<!-- Generated by graphviz version 2.43.0 (0)
 -->
<!-- Title: /home/amit/Projects/COLABFIT/colabfit&#45;kim&#45;model/colabfit&#45;descriptor&#45;library/SymmetryFunctions/SymmetryFunctions.hpp Pages: 1 -->
<svg width="581pt" height="184pt"
 viewBox="0.00 0.00 581.00 184.00" xmlns="http://www.w3.org/2000/svg" xmlns:xlink="http://www.w3.org/1999/xlink">
<g id="graph0" class="graph" transform="scale(1 1) rotate(0) translate(4 180)">
<title>/home/amit/Projects/COLABFIT/colabfit&#45;kim&#45;model/colabfit&#45;descriptor&#45;library/SymmetryFunctions/SymmetryFunctions.hpp</title>
<!-- Node1 -->
<g id="node1" class="node">
<title>Node1</title>
<g id="a_node1"><a xlink:title=" ">
<polygon fill="#bfbfbf" stroke="black" points="298.5,-112.5 298.5,-175.5 435.5,-175.5 435.5,-112.5 298.5,-112.5"/>
<text text-anchor="start" x="306.5" y="-163.5" font-family="Helvetica,sans-Serif" font-size="10.00">/home/amit/Projects</text>
<text text-anchor="start" x="306.5" y="-152.5" font-family="Helvetica,sans-Serif" font-size="10.00">/COLABFIT/colabfit&#45;kim</text>
<text text-anchor="start" x="306.5" y="-141.5" font-family="Helvetica,sans-Serif" font-size="10.00">&#45;model/colabfit&#45;descriptor</text>
<text text-anchor="start" x="306.5" y="-130.5" font-family="Helvetica,sans-Serif" font-size="10.00">&#45;library/SymmetryFunctions</text>
<text text-anchor="middle" x="367" y="-119.5" font-family="Helvetica,sans-Serif" font-size="10.00">/SymmetryFunctions.hpp</text>
</a>
</g>
</g>
<!-- Node2 -->
<g id="node2" class="node">
<title>Node2</title>
<g id="a_node2"><a xlink:href="helper_8hpp.html" target="_top" xlink:title=" ">
<polygon fill="none" stroke="black" points="135.5,-56.5 135.5,-75.5 196.5,-75.5 196.5,-56.5 135.5,-56.5"/>
<text text-anchor="middle" x="166" y="-63.5" font-family="Helvetica,sans-Serif" font-size="10.00">helper.hpp</text>
</a>
</g>
</g>
<!-- Node1&#45;&gt;Node2 -->
<g id="edge1" class="edge">
<title>Node1&#45;&gt;Node2</title>
<path fill="none" stroke="midnightblue" d="M298.39,-117.06C264.51,-104.25 225.23,-89.39 198.31,-79.22"/>
<polygon fill="midnightblue" stroke="midnightblue" points="199.22,-75.82 188.63,-75.56 196.75,-82.37 199.22,-75.82"/>
</g>
<!-- Node7 -->
<g id="node7" class="node">
<title>Node7</title>
<g id="a_node7"><a xlink:href="_descriptors_8hpp.html" target="_top" xlink:title=" ">
<polygon fill="none" stroke="black" points="253,-56.5 253,-75.5 339,-75.5 339,-56.5 253,-56.5"/>
<text text-anchor="middle" x="296" y="-63.5" font-family="Helvetica,sans-Serif" font-size="10.00">Descriptors.hpp</text>
</a>
</g>
</g>
<!-- Node1&#45;&gt;Node7 -->
<g id="edge6" class="edge">
<title>Node1&#45;&gt;Node7</title>
<path fill="none" stroke="midnightblue" d="M338.12,-112.09C328.81,-102.12 318.87,-91.48 310.99,-83.04"/>
<polygon fill="midnightblue" stroke="midnightblue" points="313.53,-80.64 304.14,-75.72 308.41,-85.41 313.53,-80.64"/>
</g>
<!-- Node8 -->
<g id="node8" class="node">
<title>Node8</title>
<g id="a_node8"><a xlink:title=" ">
<polygon fill="none" stroke="#bfbfbf" points="278.5,-0.5 278.5,-19.5 313.5,-19.5 313.5,-0.5 278.5,-0.5"/>
<text text-anchor="middle" x="296" y="-7.5" font-family="Helvetica,sans-Serif" font-size="10.00">map</text>
</a>
</g>
</g>
<!-- Node1&#45;&gt;Node8 -->
<g id="edge13" class="edge">
<title>Node1&#45;&gt;Node8</title>
<path fill="none" stroke="midnightblue" d="M298.18,-121.35C277.05,-111.11 256.17,-96.49 244,-76 232.79,-57.12 253.2,-37.76 271.65,-25.13"/>
<polygon fill="midnightblue" stroke="midnightblue" points="273.62,-28.03 280.13,-19.67 269.83,-22.14 273.62,-28.03"/>
</g>
<!-- Node9 -->
<g id="node9" class="node">
<title>Node9</title>
<g id="a_node9"><a xlink:title=" ">
<polygon fill="none" stroke="#bfbfbf" points="339.5,-0.5 339.5,-19.5 380.5,-19.5 380.5,-0.5 339.5,-0.5"/>
<text text-anchor="middle" x="360" y="-7.5" font-family="Helvetica,sans-Serif" font-size="10.00">string</text>
</a>
</g>
</g>
<!-- Node1&#45;&gt;Node9 -->
<g id="edge14" class="edge">
<title>Node1&#45;&gt;Node9</title>
<path fill="none" stroke="midnightblue" d="M365.38,-112.38C364.02,-86.82 362.13,-51.2 360.99,-29.7"/>
<polygon fill="midnightblue" stroke="midnightblue" points="364.48,-29.41 360.46,-19.61 357.49,-29.78 364.48,-29.41"/>
</g>
<!-- Node10 -->
<g id="node10" class="node">
<title>Node10</title>
<g id="a_node10"><a xlink:title=" ">
<polygon fill="none" stroke="#bfbfbf" points="395.5,-56.5 395.5,-75.5 446.5,-75.5 446.5,-56.5 395.5,-56.5"/>
<text text-anchor="middle" x="421" y="-63.5" font-family="Helvetica,sans-Serif" font-size="10.00">numeric</text>
</a>
</g>
</g>
<!-- Node1&#45;&gt;Node10 -->
<g id="edge10" class="edge">
<title>Node1&#45;&gt;Node10</title>
<path fill="none" stroke="midnightblue" d="M388.96,-112.09C395.75,-102.53 402.98,-92.36 408.85,-84.1"/>
<polygon fill="midnightblue" stroke="midnightblue" points="411.87,-85.9 414.81,-75.72 406.16,-81.84 411.87,-85.9"/>
</g>
<!-- Node11 -->
<g id="node11" class="node">
<title>Node11</title>
<g id="a_node11"><a xlink:title=" ">
<polygon fill="none" stroke="#bfbfbf" points="465,-56.5 465,-75.5 509,-75.5 509,-56.5 465,-56.5"/>
<text text-anchor="middle" x="487" y="-63.5" font-family="Helvetica,sans-Serif" font-size="10.00">cmath</text>
</a>
</g>
</g>
<!-- Node1&#45;&gt;Node11 -->
<g id="edge11" class="edge">
<title>Node1&#45;&gt;Node11</title>
<path fill="none" stroke="midnightblue" d="M415.46,-112.31C432.48,-101.53 450.79,-89.94 464.62,-81.17"/>
<polygon fill="midnightblue" stroke="midnightblue" points="466.83,-83.91 473.41,-75.61 463.09,-78 466.83,-83.91"/>
</g>
<!-- Node12 -->
<g id="node12" class="node">
<title>Node12</title>
<g id="a_node12"><a xlink:title=" ">
<polygon fill="none" stroke="#bfbfbf" points="527,-56.5 527,-75.5 573,-75.5 573,-56.5 527,-56.5"/>
<text text-anchor="middle" x="550" y="-63.5" font-family="Helvetica,sans-Serif" font-size="10.00">cstring</text>
</a>
</g>
</g>
<!-- Node1&#45;&gt;Node12 -->
<g id="edge12" class="edge">
<title>Node1&#45;&gt;Node12</title>
<path fill="none" stroke="midnightblue" d="M435.66,-114.48C464.64,-102.45 496.88,-89.06 519.72,-79.57"/>
<polygon fill="midnightblue" stroke="midnightblue" points="521.31,-82.71 529.2,-75.64 518.62,-76.24 521.31,-82.71"/>
</g>
<!-- Node3 -->
<g id="node3" class="node">
<title>Node3</title>
<g id="a_node3"><a xlink:title=" ">
<polygon fill="none" stroke="#bfbfbf" points="0,-0.5 0,-19.5 56,-19.5 56,-0.5 0,-0.5"/>
<text text-anchor="middle" x="28" y="-7.5" font-family="Helvetica,sans-Serif" font-size="10.00">algorithm</text>
</a>
</g>
</g>
<!-- Node2&#45;&gt;Node3 -->
<g id="edge2" class="edge">
<title>Node2&#45;&gt;Node3</title>
<path fill="none" stroke="midnightblue" d="M144.13,-56.44C121.22,-47.48 85.02,-33.31 59.13,-23.18"/>
<polygon fill="midnightblue" stroke="midnightblue" points="60.35,-19.9 49.76,-19.52 57.8,-26.42 60.35,-19.9"/>
</g>
<!-- Node4 -->
<g id="node4" class="node">
<title>Node4</title>
<g id="a_node4"><a xlink:title=" ">
<polygon fill="none" stroke="#bfbfbf" points="74,-0.5 74,-19.5 128,-19.5 128,-0.5 74,-0.5"/>
<text text-anchor="middle" x="101" y="-7.5" font-family="Helvetica,sans-Serif" font-size="10.00">iostream</text>
</a>
</g>
</g>
<!-- Node2&#45;&gt;Node4 -->
<g id="edge3" class="edge">
<title>Node2&#45;&gt;Node4</title>
<path fill="none" stroke="midnightblue" d="M155.56,-56.32C145.85,-48.26 131.18,-36.08 119.5,-26.37"/>
<polygon fill="midnightblue" stroke="midnightblue" points="121.56,-23.53 111.63,-19.83 117.09,-28.92 121.56,-23.53"/>
</g>
<!-- Node5 -->
<g id="node5" class="node">
<title>Node5</title>
<g id="a_node5"><a xlink:title=" ">
<polygon fill="none" stroke="#bfbfbf" points="146,-0.5 146,-19.5 198,-19.5 198,-0.5 146,-0.5"/>
<text text-anchor="middle" x="172" y="-7.5" font-family="Helvetica,sans-Serif" font-size="10.00">sstream</text>
</a>
</g>
</g>
<!-- Node2&#45;&gt;Node5 -->
<g id="edge4" class="edge">
<title>Node2&#45;&gt;Node5</title>
<path fill="none" stroke="midnightblue" d="M166.99,-56.08C167.79,-48.93 168.93,-38.64 169.92,-29.69"/>
<polygon fill="midnightblue" stroke="midnightblue" points="173.4,-30.08 171.03,-19.75 166.44,-29.3 173.4,-30.08"/>
</g>
<!-- Node6 -->
<g id="node6" class="node">
<title>Node6</title>
<g id="a_node6"><a xlink:title=" ">
<polygon fill="none" stroke="#bfbfbf" points="216,-0.5 216,-19.5 260,-19.5 260,-0.5 216,-0.5"/>
<text text-anchor="middle" x="238" y="-7.5" font-family="Helvetica,sans-Serif" font-size="10.00">vector</text>
</a>
</g>
</g>
<!-- Node2&#45;&gt;Node6 -->
<g id="edge5" class="edge">
<title>Node2&#45;&gt;Node6</title>
<path fill="none" stroke="midnightblue" d="M177.57,-56.32C188.42,-48.18 204.88,-35.84 217.88,-26.09"/>
<polygon fill="midnightblue" stroke="midnightblue" points="220.32,-28.63 226.22,-19.83 216.12,-23.03 220.32,-28.63"/>
</g>
<!-- Node7&#45;&gt;Node6 -->
<g id="edge9" class="edge">
<title>Node7&#45;&gt;Node6</title>
<path fill="none" stroke="midnightblue" d="M286.68,-56.32C278.11,-48.34 265.19,-36.31 254.81,-26.65"/>
<polygon fill="midnightblue" stroke="midnightblue" points="257.19,-24.09 247.49,-19.83 252.42,-29.21 257.19,-24.09"/>
</g>
<!-- Node7&#45;&gt;Node8 -->
<g id="edge7" class="edge">
<title>Node7&#45;&gt;Node8</title>
<path fill="none" stroke="midnightblue" d="M296,-56.08C296,-49.01 296,-38.86 296,-29.99"/>
<polygon fill="midnightblue" stroke="midnightblue" points="299.5,-29.75 296,-19.75 292.5,-29.75 299.5,-29.75"/>
</g>
<!-- Node7&#45;&gt;Node9 -->
<g id="edge8" class="edge">
<title>Node7&#45;&gt;Node9</title>
<path fill="none" stroke="midnightblue" d="M306.28,-56.32C315.84,-48.26 330.28,-36.08 341.78,-26.37"/>
<polygon fill="midnightblue" stroke="midnightblue" points="344.14,-28.96 349.53,-19.83 339.63,-23.61 344.14,-28.96"/>
</g>
</g>
</svg>
