<?xml version="1.0" encoding="UTF-8" standalone="no"?>
<!DOCTYPE svg PUBLIC "-//W3C//DTD SVG 1.1//EN"
 "http://www.w3.org/Graphics/SVG/1.1/DTD/svg11.dtd">
<!-- Generated by graphviz version 2.43.0 (0)
 -->
<!-- Title: /home/amit/Projects/COLABFIT/colabfit&#45;kim&#45;model/colabfit&#45;descriptor&#45;library/SymmetryFunctions/SymmetryFunctions.cpp Pages: 1 -->
<svg width="617pt" height="240pt"
 viewBox="0.00 0.00 617.00 240.00" xmlns="http://www.w3.org/2000/svg" xmlns:xlink="http://www.w3.org/1999/xlink">
<g id="graph0" class="graph" transform="scale(1 1) rotate(0) translate(4 236)">
<title>/home/amit/Projects/COLABFIT/colabfit&#45;kim&#45;model/colabfit&#45;descriptor&#45;library/SymmetryFunctions/SymmetryFunctions.cpp</title>
<!-- Node1 -->
<g id="node1" class="node">
<title>Node1</title>
<g id="a_node1"><a xlink:title=" ">
<polygon fill="#bfbfbf" stroke="black" points="379.5,-168.5 379.5,-231.5 516.5,-231.5 516.5,-168.5 379.5,-168.5"/>
<text text-anchor="start" x="387.5" y="-219.5" font-family="Helvetica,sans-Serif" font-size="10.00">/home/amit/Projects</text>
<text text-anchor="start" x="387.5" y="-208.5" font-family="Helvetica,sans-Serif" font-size="10.00">/COLABFIT/colabfit&#45;kim</text>
<text text-anchor="start" x="387.5" y="-197.5" font-family="Helvetica,sans-Serif" font-size="10.00">&#45;model/colabfit&#45;descriptor</text>
<text text-anchor="start" x="387.5" y="-186.5" font-family="Helvetica,sans-Serif" font-size="10.00">&#45;library/SymmetryFunctions</text>
<text text-anchor="middle" x="448" y="-175.5" font-family="Helvetica,sans-Serif" font-size="10.00">/SymmetryFunctions.cpp</text>
</a>
</g>
</g>
<!-- Node2 -->
<g id="node2" class="node">
<title>Node2</title>
<g id="a_node2"><a xlink:href="_symmetry_functions_8hpp.html" target="_top" xlink:title=" ">
<polygon fill="none" stroke="black" points="341.5,-112.5 341.5,-131.5 464.5,-131.5 464.5,-112.5 341.5,-112.5"/>
<text text-anchor="middle" x="403" y="-119.5" font-family="Helvetica,sans-Serif" font-size="10.00">SymmetryFunctions.hpp</text>
</a>
</g>
</g>
<!-- Node1&#45;&gt;Node2 -->
<g id="edge1" class="edge">
<title>Node1&#45;&gt;Node2</title>
<path fill="none" stroke="midnightblue" d="M429.7,-168.09C424.1,-158.64 418.14,-148.58 413.28,-140.36"/>
<polygon fill="midnightblue" stroke="midnightblue" points="416.27,-138.54 408.16,-131.72 410.25,-142.11 416.27,-138.54"/>
</g>
<!-- Node7 -->
<g id="node7" class="node">
<title>Node7</title>
<g id="a_node7"><a xlink:title=" ">
<polygon fill="none" stroke="#bfbfbf" points="216,-0.5 216,-19.5 260,-19.5 260,-0.5 216,-0.5"/>
<text text-anchor="middle" x="238" y="-7.5" font-family="Helvetica,sans-Serif" font-size="10.00">vector</text>
</a>
</g>
</g>
<!-- Node1&#45;&gt;Node7 -->
<g id="edge16" class="edge">
<title>Node1&#45;&gt;Node7</title>
<path fill="none" stroke="midnightblue" d="M379.35,-177.57C331.95,-158.86 272.19,-126.62 242,-76 233.76,-62.19 233.44,-43.67 234.79,-29.93"/>
<polygon fill="midnightblue" stroke="midnightblue" points="238.29,-30.1 236.17,-19.72 231.36,-29.16 238.29,-30.1"/>
</g>
<!-- Node12 -->
<g id="node12" class="node">
<title>Node12</title>
<g id="a_node12"><a xlink:title=" ">
<polygon fill="none" stroke="#bfbfbf" points="565,-56.5 565,-75.5 609,-75.5 609,-56.5 565,-56.5"/>
<text text-anchor="middle" x="587" y="-63.5" font-family="Helvetica,sans-Serif" font-size="10.00">cmath</text>
</a>
</g>
</g>
<!-- Node1&#45;&gt;Node12 -->
<g id="edge17" class="edge">
<title>Node1&#45;&gt;Node12</title>
<path fill="none" stroke="midnightblue" d="M466.15,-168.44C477.75,-150.59 493.97,-128.41 512,-112 526,-99.25 544.16,-88.25 559.1,-80.31"/>
<polygon fill="midnightblue" stroke="midnightblue" points="561.07,-83.23 568.37,-75.55 557.88,-77 561.07,-83.23"/>
</g>
<!-- Node14 -->
<g id="node14" class="node">
<title>Node14</title>
<g id="a_node14"><a xlink:title=" ">
<polygon fill="none" stroke="#bfbfbf" points="521,-112.5 521,-131.5 571,-131.5 571,-112.5 521,-112.5"/>
<text text-anchor="middle" x="546" y="-119.5" font-family="Helvetica,sans-Serif" font-size="10.00">fstream</text>
</a>
</g>
</g>
<!-- Node1&#45;&gt;Node14 -->
<g id="edge18" class="edge">
<title>Node1&#45;&gt;Node14</title>
<path fill="none" stroke="midnightblue" d="M487.58,-168.31C500.99,-157.9 515.38,-146.74 526.53,-138.1"/>
<polygon fill="midnightblue" stroke="midnightblue" points="528.93,-140.67 534.69,-131.77 524.64,-135.14 528.93,-140.67"/>
</g>
<!-- Node3 -->
<g id="node3" class="node">
<title>Node3</title>
<g id="a_node3"><a xlink:href="helper_8hpp.html" target="_top" xlink:title=" ">
<polygon fill="none" stroke="black" points="133.5,-56.5 133.5,-75.5 194.5,-75.5 194.5,-56.5 133.5,-56.5"/>
<text text-anchor="middle" x="164" y="-63.5" font-family="Helvetica,sans-Serif" font-size="10.00">helper.hpp</text>
</a>
</g>
</g>
<!-- Node2&#45;&gt;Node3 -->
<g id="edge2" class="edge">
<title>Node2&#45;&gt;Node3</title>
<path fill="none" stroke="midnightblue" d="M365.13,-112.44C321.41,-102.57 249.78,-86.38 204.84,-76.23"/>
<polygon fill="midnightblue" stroke="midnightblue" points="205.38,-72.76 194.85,-73.97 203.84,-79.59 205.38,-72.76"/>
</g>
<!-- Node8 -->
<g id="node8" class="node">
<title>Node8</title>
<g id="a_node8"><a xlink:href="_descriptors_8hpp.html" target="_top" xlink:title=" ">
<polygon fill="none" stroke="black" points="251,-56.5 251,-75.5 337,-75.5 337,-56.5 251,-56.5"/>
<text text-anchor="middle" x="294" y="-63.5" font-family="Helvetica,sans-Serif" font-size="10.00">Descriptors.hpp</text>
</a>
</g>
</g>
<!-- Node2&#45;&gt;Node8 -->
<g id="edge7" class="edge">
<title>Node2&#45;&gt;Node8</title>
<path fill="none" stroke="midnightblue" d="M385.49,-112.32C367.93,-103.62 340.67,-90.12 320.47,-80.11"/>
<polygon fill="midnightblue" stroke="midnightblue" points="321.98,-76.96 311.47,-75.65 318.88,-83.23 321.98,-76.96"/>
</g>
<!-- Node9 -->
<g id="node9" class="node">
<title>Node9</title>
<g id="a_node9"><a xlink:title=" ">
<polygon fill="none" stroke="#bfbfbf" points="307.5,-0.5 307.5,-19.5 342.5,-19.5 342.5,-0.5 307.5,-0.5"/>
<text text-anchor="middle" x="325" y="-7.5" font-family="Helvetica,sans-Serif" font-size="10.00">map</text>
</a>
</g>
</g>
<!-- Node2&#45;&gt;Node9 -->
<g id="edge14" class="edge">
<title>Node2&#45;&gt;Node9</title>
<path fill="none" stroke="midnightblue" d="M396.88,-112.37C384.01,-94.22 353.93,-51.8 337.05,-27.99"/>
<polygon fill="midnightblue" stroke="midnightblue" points="339.73,-25.72 331.09,-19.59 334.02,-29.77 339.73,-25.72"/>
</g>
<!-- Node10 -->
<g id="node10" class="node">
<title>Node10</title>
<g id="a_node10"><a xlink:title=" ">
<polygon fill="none" stroke="#bfbfbf" points="375.5,-0.5 375.5,-19.5 416.5,-19.5 416.5,-0.5 375.5,-0.5"/>
<text text-anchor="middle" x="396" y="-7.5" font-family="Helvetica,sans-Serif" font-size="10.00">string</text>
</a>
</g>
</g>
<!-- Node2&#45;&gt;Node10 -->
<g id="edge15" class="edge">
<title>Node2&#45;&gt;Node10</title>
<path fill="none" stroke="midnightblue" d="M402.45,-112.37C401.32,-94.62 398.72,-53.67 397.18,-29.6"/>
<polygon fill="midnightblue" stroke="midnightblue" points="400.67,-29.35 396.55,-19.59 393.69,-29.79 400.67,-29.35"/>
</g>
<!-- Node11 -->
<g id="node11" class="node">
<title>Node11</title>
<g id="a_node11"><a xlink:title=" ">
<polygon fill="none" stroke="#bfbfbf" points="431.5,-56.5 431.5,-75.5 482.5,-75.5 482.5,-56.5 431.5,-56.5"/>
<text text-anchor="middle" x="457" y="-63.5" font-family="Helvetica,sans-Serif" font-size="10.00">numeric</text>
</a>
</g>
</g>
<!-- Node2&#45;&gt;Node11 -->
<g id="edge11" class="edge">
<title>Node2&#45;&gt;Node11</title>
<path fill="none" stroke="midnightblue" d="M411.92,-112.08C419.78,-104.22 431.43,-92.57 440.92,-83.08"/>
<polygon fill="midnightblue" stroke="midnightblue" points="443.65,-85.3 448.25,-75.75 438.7,-80.35 443.65,-85.3"/>
</g>
<!-- Node2&#45;&gt;Node12 -->
<g id="edge12" class="edge">
<title>Node2&#45;&gt;Node12</title>
<path fill="none" stroke="midnightblue" d="M432.16,-112.44C465.73,-102.59 520.68,-86.46 555.3,-76.3"/>
<polygon fill="midnightblue" stroke="midnightblue" points="556.3,-79.66 564.91,-73.48 554.33,-72.94 556.3,-79.66"/>
</g>
<!-- Node13 -->
<g id="node13" class="node">
<title>Node13</title>
<g id="a_node13"><a xlink:title=" ">
<polygon fill="none" stroke="#bfbfbf" points="501,-56.5 501,-75.5 547,-75.5 547,-56.5 501,-56.5"/>
<text text-anchor="middle" x="524" y="-63.5" font-family="Helvetica,sans-Serif" font-size="10.00">cstring</text>
</a>
</g>
</g>
<!-- Node2&#45;&gt;Node13 -->
<g id="edge13" class="edge">
<title>Node2&#45;&gt;Node13</title>
<path fill="none" stroke="midnightblue" d="M422.17,-112.44C441.91,-103.64 472.89,-89.81 495.49,-79.72"/>
<polygon fill="midnightblue" stroke="midnightblue" points="497.21,-82.79 504.92,-75.52 494.36,-76.4 497.21,-82.79"/>
</g>
<!-- Node4 -->
<g id="node4" class="node">
<title>Node4</title>
<g id="a_node4"><a xlink:title=" ">
<polygon fill="none" stroke="#bfbfbf" points="0,-0.5 0,-19.5 56,-19.5 56,-0.5 0,-0.5"/>
<text text-anchor="middle" x="28" y="-7.5" font-family="Helvetica,sans-Serif" font-size="10.00">algorithm</text>
</a>
</g>
</g>
<!-- Node3&#45;&gt;Node4 -->
<g id="edge3" class="edge">
<title>Node3&#45;&gt;Node4</title>
<path fill="none" stroke="midnightblue" d="M142.45,-56.44C119.97,-47.52 84.51,-33.44 59.02,-23.32"/>
<polygon fill="midnightblue" stroke="midnightblue" points="60.03,-19.95 49.45,-19.52 57.45,-26.46 60.03,-19.95"/>
</g>
<!-- Node5 -->
<g id="node5" class="node">
<title>Node5</title>
<g id="a_node5"><a xlink:title=" ">
<polygon fill="none" stroke="#bfbfbf" points="74,-0.5 74,-19.5 128,-19.5 128,-0.5 74,-0.5"/>
<text text-anchor="middle" x="101" y="-7.5" font-family="Helvetica,sans-Serif" font-size="10.00">iostream</text>
</a>
</g>
</g>
<!-- Node3&#45;&gt;Node5 -->
<g id="edge4" class="edge">
<title>Node3&#45;&gt;Node5</title>
<path fill="none" stroke="midnightblue" d="M153.88,-56.32C144.47,-48.26 130.26,-36.08 118.93,-26.37"/>
<polygon fill="midnightblue" stroke="midnightblue" points="121.18,-23.68 111.31,-19.83 116.62,-29 121.18,-23.68"/>
</g>
<!-- Node6 -->
<g id="node6" class="node">
<title>Node6</title>
<g id="a_node6"><a xlink:title=" ">
<polygon fill="none" stroke="#bfbfbf" points="146,-0.5 146,-19.5 198,-19.5 198,-0.5 146,-0.5"/>
<text text-anchor="middle" x="172" y="-7.5" font-family="Helvetica,sans-Serif" font-size="10.00">sstream</text>
</a>
</g>
</g>
<!-- Node3&#45;&gt;Node6 -->
<g id="edge5" class="edge">
<title>Node3&#45;&gt;Node6</title>
<path fill="none" stroke="midnightblue" d="M165.32,-56.08C166.38,-48.93 167.91,-38.64 169.23,-29.69"/>
<polygon fill="midnightblue" stroke="midnightblue" points="172.7,-30.16 170.7,-19.75 165.78,-29.13 172.7,-30.16"/>
</g>
<!-- Node3&#45;&gt;Node7 -->
<g id="edge6" class="edge">
<title>Node3&#45;&gt;Node7</title>
<path fill="none" stroke="midnightblue" d="M175.89,-56.32C187.15,-48.11 204.29,-35.6 217.71,-25.81"/>
<polygon fill="midnightblue" stroke="midnightblue" points="219.88,-28.56 225.89,-19.83 215.75,-22.9 219.88,-28.56"/>
</g>
<!-- Node8&#45;&gt;Node7 -->
<g id="edge10" class="edge">
<title>Node8&#45;&gt;Node7</title>
<path fill="none" stroke="midnightblue" d="M285,-56.32C276.81,-48.42 264.49,-36.55 254.53,-26.94"/>
<polygon fill="midnightblue" stroke="midnightblue" points="256.79,-24.26 247.16,-19.83 251.93,-29.29 256.79,-24.26"/>
</g>
<!-- Node8&#45;&gt;Node9 -->
<g id="edge8" class="edge">
<title>Node8&#45;&gt;Node9</title>
<path fill="none" stroke="midnightblue" d="M299.12,-56.08C303.41,-48.61 309.66,-37.72 314.94,-28.52"/>
<polygon fill="midnightblue" stroke="midnightblue" points="318.03,-30.17 319.98,-19.75 311.96,-26.68 318.03,-30.17"/>
</g>
<!-- Node8&#45;&gt;Node10 -->
<g id="edge9" class="edge">
<title>Node8&#45;&gt;Node10</title>
<path fill="none" stroke="midnightblue" d="M310.39,-56.32C326.67,-47.7 351.87,-34.36 370.72,-24.39"/>
<polygon fill="midnightblue" stroke="midnightblue" points="372.45,-27.43 379.65,-19.65 369.18,-21.24 372.45,-27.43"/>
</g>
</g>
</svg>
