<?xml version="1.0" encoding="UTF-8" standalone="no"?>
<!DOCTYPE svg PUBLIC "-//W3C//DTD SVG 1.1//EN"
 "http://www.w3.org/Graphics/SVG/1.1/DTD/svg11.dtd">
<!-- Generated by graphviz version 2.43.0 (0)
 -->
<!-- Title: /home/amit/Projects/COLABFIT/colabfit&#45;kim&#45;model/colabfit&#45;descriptor&#45;library/test/bispectrum/tmp.cpp Pages: 1 -->
<svg width="134pt" height="126pt"
 viewBox="0.00 0.00 134.00 126.00" xmlns="http://www.w3.org/2000/svg" xmlns:xlink="http://www.w3.org/1999/xlink">
<g id="graph0" class="graph" transform="scale(1 1) rotate(0) translate(4 122)">
<title>/home/amit/Projects/COLABFIT/colabfit&#45;kim&#45;model/colabfit&#45;descriptor&#45;library/test/bispectrum/tmp.cpp</title>
<!-- Node1 -->
<g id="node1" class="node">
<title>Node1</title>
<g id="a_node1"><a xlink:title=" ">
<polygon fill="#999999" stroke="#666666" points="126,-118 0,-118 0,-55 126,-55 126,-118"/>
<text text-anchor="start" x="8" y="-106" font-family="Helvetica,sans-Serif" font-size="10.00">/home/amit/Projects</text>
<text text-anchor="start" x="8" y="-95" font-family="Helvetica,sans-Serif" font-size="10.00">/COLABFIT/colabfit&#45;kim</text>
<text text-anchor="start" x="8" y="-84" font-family="Helvetica,sans-Serif" font-size="10.00">&#45;model/colabfit&#45;descriptor</text>
<text text-anchor="start" x="8" y="-73" font-family="Helvetica,sans-Serif" font-size="10.00">&#45;library/test/bispectrum</text>
<text text-anchor="middle" x="63" y="-62" font-family="Helvetica,sans-Serif" font-size="10.00">/tmp.cpp</text>
</a>
</g>
</g>
<!-- Node2 -->
<g id="node2" class="node">
<title>Node2</title>
<g id="a_node2"><a xlink:title=" ">
<polygon fill="#e0e0e0" stroke="#999999" points="53,-19 3,-19 3,0 53,0 53,-19"/>
<text text-anchor="middle" x="28" y="-7" font-family="Helvetica,sans-Serif" font-size="10.00">fstream</text>
</a>
</g>
</g>
<!-- Node1&#45;&gt;Node2 -->
<g id="edge1" class="edge">
<title>Node1&#45;&gt;Node2</title>
<path fill="none" stroke="#63b8ff" d="M48.76,-54.99C44.51,-45.87 39.98,-36.17 36.24,-28.17"/>
<polygon fill="#63b8ff" stroke="#63b8ff" points="39.42,-26.69 32.01,-19.1 33.07,-29.65 39.42,-26.69"/>
</g>
<!-- Node3 -->
<g id="node3" class="node">
<title>Node3</title>
<g id="a_node3"><a xlink:title=" ">
<polygon fill="#e0e0e0" stroke="#999999" points="125,-19 71,-19 71,0 125,0 125,-19"/>
<text text-anchor="middle" x="98" y="-7" font-family="Helvetica,sans-Serif" font-size="10.00">iostream</text>
</a>
</g>
</g>
<!-- Node1&#45;&gt;Node3 -->
<g id="edge2" class="edge">
<title>Node1&#45;&gt;Node3</title>
<path fill="none" stroke="#63b8ff" d="M77.24,-54.99C81.49,-45.87 86.02,-36.17 89.76,-28.17"/>
<polygon fill="#63b8ff" stroke="#63b8ff" points="92.93,-29.65 93.99,-19.1 86.58,-26.69 92.93,-29.65"/>
</g>
</g>
</svg>
