<?xml version="1.0" encoding="UTF-8" standalone="no"?>
<!DOCTYPE svg PUBLIC "-//W3C//DTD SVG 1.1//EN"
 "http://www.w3.org/Graphics/SVG/1.1/DTD/svg11.dtd">
<!-- Generated by graphviz version 2.43.0 (0)
 -->
<!-- Title: _Array_Basic&lt; DataType &gt; Pages: 1 -->
<svg width="458pt" height="82pt"
 viewBox="0.00 0.00 458.00 82.00" xmlns="http://www.w3.org/2000/svg" xmlns:xlink="http://www.w3.org/1999/xlink">
<g id="graph0" class="graph" transform="scale(1 1) rotate(0) translate(4 78)">
<title>_Array_Basic&lt; DataType &gt;</title>
<!-- Node1 -->
<g id="node1" class="node">
<title>Node1</title>
<g id="a_node1"><a xlink:title="An STL like container similar to std::vector that encapsulates dynamic size arrays in a sequence cont...">
<polygon fill="#999999" stroke="#666666" points="292,-74 157,-74 157,-55 292,-55 292,-74"/>
<text text-anchor="middle" x="224.5" y="-62" font-family="Helvetica,sans-Serif" font-size="10.00">_Array_Basic&lt; DataType &gt;</text>
</a>
</g>
</g>
<!-- Node2 -->
<g id="node2" class="node">
<title>Node2</title>
<g id="a_node2"><a xlink:href="class_array2_d.html" target="_top" xlink:title=" ">
<polygon fill="white" stroke="#666666" points="99,-19 0,-19 0,0 99,0 99,-19"/>
<text text-anchor="middle" x="49.5" y="-7" font-family="Helvetica,sans-Serif" font-size="10.00">Array2D&lt; double &gt;</text>
</a>
</g>
</g>
<!-- Node1&#45;&gt;Node2 -->
<g id="edge1" class="edge">
<title>Node1&#45;&gt;Node2</title>
<path fill="none" stroke="#63b8ff" d="M181.49,-52.18C147.13,-42.27 100.46,-28.08 72.71,-19.08"/>
<polygon fill="#63b8ff" stroke="#63b8ff" points="180.69,-55.6 191.27,-54.98 182.62,-48.87 180.69,-55.6"/>
</g>
<!-- Node1&#45;&gt;Node2 -->
<g id="edge5" class="edge">
<title>Node1&#45;&gt;Node2</title>
<path fill="none" stroke="#63b8ff" d="M191.57,-51.8C160.47,-41.91 114.25,-27.97 82.97,-19.08"/>
<polygon fill="#63b8ff" stroke="#63b8ff" points="190.91,-55.26 201.5,-54.98 193.05,-48.6 190.91,-55.26"/>
</g>
<!-- Node3 -->
<g id="node3" class="node">
<title>Node3</title>
<g id="a_node3"><a xlink:href="class_array3_d.html" target="_top" xlink:title=" ">
<polygon fill="white" stroke="#666666" points="216,-19 117,-19 117,0 216,0 216,-19"/>
<text text-anchor="middle" x="166.5" y="-7" font-family="Helvetica,sans-Serif" font-size="10.00">Array3D&lt; double &gt;</text>
</a>
</g>
</g>
<!-- Node1&#45;&gt;Node3 -->
<g id="edge2" class="edge">
<title>Node1&#45;&gt;Node3</title>
<path fill="none" stroke="#63b8ff" d="M202.06,-48.6C190.6,-39.11 177.83,-27.13 170.84,-19.17"/>
<polygon fill="#63b8ff" stroke="#63b8ff" points="200.06,-51.49 210.07,-54.98 204.43,-46.01 200.06,-51.49"/>
</g>
<!-- Node1&#45;&gt;Node3 -->
<g id="edge6" class="edge">
<title>Node1&#45;&gt;Node3</title>
<path fill="none" stroke="#63b8ff" d="M212.98,-47.24C203.71,-37.95 191,-26.68 181.03,-19.09"/>
<polygon fill="#63b8ff" stroke="#63b8ff" points="210.67,-49.89 220.09,-54.75 215.76,-45.08 210.67,-49.89"/>
</g>
<!-- Node4 -->
<g id="node4" class="node">
<title>Node4</title>
<g id="a_node4"><a xlink:href="class_array4_d.html" target="_top" xlink:title=" ">
<polygon fill="white" stroke="#666666" points="333,-19 234,-19 234,0 333,0 333,-19"/>
<text text-anchor="middle" x="283.5" y="-7" font-family="Helvetica,sans-Serif" font-size="10.00">Array4D&lt; double &gt;</text>
</a>
</g>
</g>
<!-- Node1&#45;&gt;Node4 -->
<g id="edge3" class="edge">
<title>Node1&#45;&gt;Node4</title>
<path fill="none" stroke="#63b8ff" d="M236.04,-47.52C245.51,-38.18 258.6,-26.75 268.81,-19.09"/>
<polygon fill="#63b8ff" stroke="#63b8ff" points="233.49,-45.12 229.08,-54.75 238.53,-49.97 233.49,-45.12"/>
</g>
<!-- Node1&#45;&gt;Node4 -->
<g id="edge7" class="edge">
<title>Node1&#45;&gt;Node4</title>
<path fill="none" stroke="#63b8ff" d="M247.22,-48.6C258.86,-39.11 271.86,-27.13 279,-19.17"/>
<polygon fill="#63b8ff" stroke="#63b8ff" points="244.8,-46.06 239.09,-54.98 249.12,-51.56 244.8,-46.06"/>
</g>
<!-- Node5 -->
<g id="node5" class="node">
<title>Node5</title>
<g id="a_node5"><a xlink:href="class_array5_d.html" target="_top" xlink:title=" ">
<polygon fill="white" stroke="#666666" points="450,-19 351,-19 351,0 450,0 450,-19"/>
<text text-anchor="middle" x="400.5" y="-7" font-family="Helvetica,sans-Serif" font-size="10.00">Array5D&lt; double &gt;</text>
</a>
</g>
</g>
<!-- Node1&#45;&gt;Node5 -->
<g id="edge4" class="edge">
<title>Node1&#45;&gt;Node5</title>
<path fill="none" stroke="#63b8ff" d="M257.24,-51.93C288.53,-42.03 335.28,-28.01 366.87,-19.08"/>
<polygon fill="#63b8ff" stroke="#63b8ff" points="256.12,-48.61 247.66,-54.98 258.25,-55.28 256.12,-48.61"/>
</g>
<!-- Node1&#45;&gt;Node5 -->
<g id="edge8" class="edge">
<title>Node1&#45;&gt;Node5</title>
<path fill="none" stroke="#63b8ff" d="M267.73,-52.18C302.27,-42.27 349.21,-28.08 377.13,-19.08"/>
<polygon fill="#63b8ff" stroke="#63b8ff" points="266.55,-48.88 257.89,-54.98 268.47,-55.61 266.55,-48.88"/>
</g>
</g>
</svg>
