<?xml version="1.0" encoding="UTF-8" standalone="no"?>
<!DOCTYPE svg PUBLIC "-//W3C//DTD SVG 1.1//EN"
 "http://www.w3.org/Graphics/SVG/1.1/DTD/svg11.dtd">
<!-- Generated by graphviz version 2.43.0 (0)
 -->
<!-- Title: Graphical Class Hierarchy Pages: 1 -->
<svg width="279pt" height="294pt"
 viewBox="0.00 0.00 279.00 294.00" xmlns="http://www.w3.org/2000/svg" xmlns:xlink="http://www.w3.org/1999/xlink">
<g id="graph0" class="graph" transform="scale(1 1) rotate(0) translate(4 290)">
<title>Graphical Class Hierarchy</title>
<!-- Node0 -->
<g id="node1" class="node">
<title>Node0</title>
<g id="a_node1"><a xlink:href="class___array___basic.html" target="_top" xlink:title=" ">
<polygon fill="none" stroke="black" points="0,-133.5 0,-152.5 122,-152.5 122,-133.5 0,-133.5"/>
<text text-anchor="middle" x="61" y="-140.5" font-family="Helvetica,sans-Serif" font-size="10.00">_Array_Basic&lt; double &gt;</text>
</a>
</g>
</g>
<!-- Node1 -->
<g id="node2" class="node">
<title>Node1</title>
<g id="a_node2"><a xlink:href="class_array2_d.html" target="_top" xlink:title="A 2&#45;dimensional STL like container that encapsulates dynamic size arrays with a 2&#45;dimensional shape i...">
<polygon fill="none" stroke="black" points="158,-266.5 158,-285.5 271,-285.5 271,-266.5 158,-266.5"/>
<text text-anchor="middle" x="214.5" y="-273.5" font-family="Helvetica,sans-Serif" font-size="10.00">Array2D&lt; DataType &gt;</text>
</a>
</g>
</g>
<!-- Node0&#45;&gt;Node1 -->
<g id="edge1" class="edge">
<title>Node0&#45;&gt;Node1</title>
<path fill="none" stroke="midnightblue" d="M72.9,-161.33C88.66,-186.36 120.14,-231.08 158,-257 163.55,-260.8 169.92,-263.9 176.33,-266.41"/>
<polygon fill="midnightblue" stroke="midnightblue" points="75.86,-159.47 67.64,-152.78 69.9,-163.13 75.86,-159.47"/>
</g>
<!-- Node2 -->
<g id="node3" class="node">
<title>Node2</title>
<g id="a_node3"><a xlink:href="class_array2_d.html" target="_top" xlink:title=" ">
<polygon fill="none" stroke="black" points="165,-228.5 165,-247.5 264,-247.5 264,-228.5 165,-228.5"/>
<text text-anchor="middle" x="214.5" y="-235.5" font-family="Helvetica,sans-Serif" font-size="10.00">Array2D&lt; double &gt;</text>
</a>
</g>
</g>
<!-- Node0&#45;&gt;Node2 -->
<g id="edge2" class="edge">
<title>Node0&#45;&gt;Node2</title>
<path fill="none" stroke="midnightblue" d="M79.34,-159.76C97.62,-176.67 127.91,-202.57 158,-219 164.7,-222.66 172.24,-225.81 179.55,-228.43"/>
<polygon fill="midnightblue" stroke="midnightblue" points="81.5,-156.99 71.82,-152.69 76.71,-162.09 81.5,-156.99"/>
</g>
<!-- Node3 -->
<g id="node4" class="node">
<title>Node3</title>
<g id="a_node4"><a xlink:href="class_array3_d.html" target="_top" xlink:title=" ">
<polygon fill="none" stroke="black" points="158,-190.5 158,-209.5 271,-209.5 271,-190.5 158,-190.5"/>
<text text-anchor="middle" x="214.5" y="-197.5" font-family="Helvetica,sans-Serif" font-size="10.00">Array3D&lt; DataType &gt;</text>
</a>
</g>
</g>
<!-- Node0&#45;&gt;Node3 -->
<g id="edge3" class="edge">
<title>Node0&#45;&gt;Node3</title>
<path fill="none" stroke="midnightblue" d="M94.6,-156.35C113.11,-163.81 136.76,-173.17 158,-181 166.7,-184.21 176.22,-187.54 184.89,-190.49"/>
<polygon fill="midnightblue" stroke="midnightblue" points="95.74,-153.03 85.16,-152.52 93.12,-159.52 95.74,-153.03"/>
</g>
<!-- Node4 -->
<g id="node5" class="node">
<title>Node4</title>
<g id="a_node5"><a xlink:href="class_array3_d.html" target="_top" xlink:title=" ">
<polygon fill="none" stroke="black" points="165,-152.5 165,-171.5 264,-171.5 264,-152.5 165,-152.5"/>
<text text-anchor="middle" x="214.5" y="-159.5" font-family="Helvetica,sans-Serif" font-size="10.00">Array3D&lt; double &gt;</text>
</a>
</g>
</g>
<!-- Node0&#45;&gt;Node4 -->
<g id="edge4" class="edge">
<title>Node0&#45;&gt;Node4</title>
<path fill="none" stroke="midnightblue" d="M132.27,-151.81C143.19,-153.18 154.26,-154.57 164.57,-155.86"/>
<polygon fill="midnightblue" stroke="midnightblue" points="132.67,-148.34 122.31,-150.56 131.8,-155.28 132.67,-148.34"/>
</g>
<!-- Node5 -->
<g id="node6" class="node">
<title>Node5</title>
<g id="a_node6"><a xlink:href="class_array4_d.html" target="_top" xlink:title=" ">
<polygon fill="none" stroke="black" points="158,-114.5 158,-133.5 271,-133.5 271,-114.5 158,-114.5"/>
<text text-anchor="middle" x="214.5" y="-121.5" font-family="Helvetica,sans-Serif" font-size="10.00">Array4D&lt; DataType &gt;</text>
</a>
</g>
</g>
<!-- Node0&#45;&gt;Node5 -->
<g id="edge5" class="edge">
<title>Node0&#45;&gt;Node5</title>
<path fill="none" stroke="midnightblue" d="M132.29,-134.18C140.86,-133.11 149.51,-132.02 157.82,-130.98"/>
<polygon fill="midnightblue" stroke="midnightblue" points="131.8,-130.72 122.31,-135.44 132.67,-137.66 131.8,-130.72"/>
</g>
<!-- Node6 -->
<g id="node7" class="node">
<title>Node6</title>
<g id="a_node7"><a xlink:href="class_array4_d.html" target="_top" xlink:title=" ">
<polygon fill="none" stroke="black" points="165,-76.5 165,-95.5 264,-95.5 264,-76.5 165,-76.5"/>
<text text-anchor="middle" x="214.5" y="-83.5" font-family="Helvetica,sans-Serif" font-size="10.00">Array4D&lt; double &gt;</text>
</a>
</g>
</g>
<!-- Node0&#45;&gt;Node6 -->
<g id="edge6" class="edge">
<title>Node0&#45;&gt;Node6</title>
<path fill="none" stroke="midnightblue" d="M94.6,-129.65C113.11,-122.19 136.76,-112.83 158,-105 166.7,-101.79 176.22,-98.46 184.89,-95.51"/>
<polygon fill="midnightblue" stroke="midnightblue" points="93.12,-126.48 85.16,-133.48 95.74,-132.97 93.12,-126.48"/>
</g>
<!-- Node7 -->
<g id="node8" class="node">
<title>Node7</title>
<g id="a_node8"><a xlink:href="class_array5_d.html" target="_top" xlink:title=" ">
<polygon fill="none" stroke="black" points="158,-38.5 158,-57.5 271,-57.5 271,-38.5 158,-38.5"/>
<text text-anchor="middle" x="214.5" y="-45.5" font-family="Helvetica,sans-Serif" font-size="10.00">Array5D&lt; DataType &gt;</text>
</a>
</g>
</g>
<!-- Node0&#45;&gt;Node7 -->
<g id="edge7" class="edge">
<title>Node0&#45;&gt;Node7</title>
<path fill="none" stroke="midnightblue" d="M79.34,-126.24C97.62,-109.33 127.91,-83.43 158,-67 164.7,-63.34 172.24,-60.19 179.55,-57.57"/>
<polygon fill="midnightblue" stroke="midnightblue" points="76.71,-123.91 71.82,-133.31 81.5,-129.01 76.71,-123.91"/>
</g>
<!-- Node8 -->
<g id="node9" class="node">
<title>Node8</title>
<g id="a_node9"><a xlink:href="class_array5_d.html" target="_top" xlink:title=" ">
<polygon fill="none" stroke="black" points="165,-0.5 165,-19.5 264,-19.5 264,-0.5 165,-0.5"/>
<text text-anchor="middle" x="214.5" y="-7.5" font-family="Helvetica,sans-Serif" font-size="10.00">Array5D&lt; double &gt;</text>
</a>
</g>
</g>
<!-- Node0&#45;&gt;Node8 -->
<g id="edge8" class="edge">
<title>Node0&#45;&gt;Node8</title>
<path fill="none" stroke="midnightblue" d="M72.9,-124.67C88.66,-99.64 120.14,-54.92 158,-29 163.55,-25.2 169.92,-22.1 176.33,-19.59"/>
<polygon fill="midnightblue" stroke="midnightblue" points="69.9,-122.87 67.64,-133.22 75.86,-126.53 69.9,-122.87"/>
</g>
</g>
</svg>
