<?xml version="1.0" encoding="UTF-8" standalone="no"?>
<!DOCTYPE svg PUBLIC "-//W3C//DTD SVG 1.1//EN"
 "http://www.w3.org/Graphics/SVG/1.1/DTD/svg11.dtd">
<!-- Generated by graphviz version 2.43.0 (0)
 -->
<!-- Title: Graphical Class Hierarchy Pages: 1 -->
<svg width="280pt" height="101pt"
 viewBox="0.00 0.00 280.00 101.00" xmlns="http://www.w3.org/2000/svg" xmlns:xlink="http://www.w3.org/1999/xlink">
<g id="graph0" class="graph" transform="scale(1 1) rotate(0) translate(4 97)">
<title>Graphical Class Hierarchy</title>
<!-- Node0 -->
<g id="node1" class="node">
<title>Node0</title>
<g id="a_node1"><a xlink:href="class_descriptor_1_1_descriptor_kind.html" target="_top" xlink:title="Base class for all descriptors.">
<polygon fill="white" stroke="#666666" points="132,-56 0,-56 0,-37 132,-37 132,-56"/>
<text text-anchor="middle" x="66" y="-44" font-family="Helvetica,sans-Serif" font-size="10.00">Descriptor::DescriptorKind</text>
</a>
</g>
</g>
<!-- Node1 -->
<g id="node2" class="node">
<title>Node1</title>
<g id="a_node2"><a xlink:href="class_bispectrum.html" target="_top" xlink:title="This implementation is based on the method outlined in Bartok[1], using formulae from VMK[2].">
<polygon fill="white" stroke="#666666" points="253,-93 187,-93 187,-74 253,-74 253,-93"/>
<text text-anchor="middle" x="220" y="-81" font-family="Helvetica,sans-Serif" font-size="10.00">Bispectrum</text>
</a>
</g>
</g>
<!-- Node0&#45;&gt;Node1 -->
<g id="edge1" class="edge">
<title>Node0&#45;&gt;Node1</title>
<path fill="none" stroke="#63b8ff" d="M116.12,-58.46C139.23,-64.08 166.15,-70.64 186.65,-75.63"/>
<polygon fill="#63b8ff" stroke="#63b8ff" points="116.69,-54.99 106.14,-56.03 115.03,-61.79 116.69,-54.99"/>
</g>
<!-- Node2 -->
<g id="node3" class="node">
<title>Node2</title>
<g id="a_node3"><a xlink:href="class_py_descriptor_kind.html" target="_top" xlink:title=" ">
<polygon fill="white" stroke="#666666" points="266.5,-56 173.5,-56 173.5,-37 266.5,-37 266.5,-56"/>
<text text-anchor="middle" x="220" y="-44" font-family="Helvetica,sans-Serif" font-size="10.00">PyDescriptorKind</text>
</a>
</g>
</g>
<!-- Node0&#45;&gt;Node2 -->
<g id="edge2" class="edge">
<title>Node0&#45;&gt;Node2</title>
<path fill="none" stroke="#63b8ff" d="M142.46,-46.5C153.04,-46.5 163.63,-46.5 173.42,-46.5"/>
<polygon fill="#63b8ff" stroke="#63b8ff" points="142.34,-43 132.34,-46.5 142.34,-50 142.34,-43"/>
</g>
<!-- Node3 -->
<g id="node4" class="node">
<title>Node3</title>
<g id="a_node4"><a xlink:href="class_symmetry_functions.html" target="_top" xlink:title=" ">
<polygon fill="white" stroke="#666666" points="272,-19 168,-19 168,0 272,0 272,-19"/>
<text text-anchor="middle" x="220" y="-7" font-family="Helvetica,sans-Serif" font-size="10.00">SymmetryFunctions</text>
</a>
</g>
</g>
<!-- Node0&#45;&gt;Node3 -->
<g id="edge3" class="edge">
<title>Node0&#45;&gt;Node3</title>
<path fill="none" stroke="#63b8ff" d="M115.99,-34.57C136.61,-29.56 160.28,-23.79 179.72,-19.06"/>
<polygon fill="#63b8ff" stroke="#63b8ff" points="115.03,-31.21 106.14,-36.97 116.69,-38.01 115.03,-31.21"/>
</g>
</g>
</svg>
