<?xml version="1.0" encoding="UTF-8" standalone="no"?>
<!DOCTYPE svg PUBLIC "-//W3C//DTD SVG 1.1//EN"
 "http://www.w3.org/Graphics/SVG/1.1/DTD/svg11.dtd">
<!-- Generated by graphviz version 2.43.0 (0)
 -->
<!-- Title: /home/amit/Projects/COLABFIT/colabfit&#45;kim&#45;model/colabfit&#45;descriptor&#45;library/python_bindings.cpp Pages: 1 -->
<svg width="463pt" height="170pt"
 viewBox="0.00 0.00 463.00 170.00" xmlns="http://www.w3.org/2000/svg" xmlns:xlink="http://www.w3.org/1999/xlink">
<g id="graph0" class="graph" transform="scale(1 1) rotate(0) translate(4 166)">
<title>/home/amit/Projects/COLABFIT/colabfit&#45;kim&#45;model/colabfit&#45;descriptor&#45;library/python_bindings.cpp</title>
<!-- Node1 -->
<g id="node1" class="node">
<title>Node1</title>
<g id="a_node1"><a xlink:title=" ">
<polygon fill="#999999" stroke="#666666" points="316.5,-162 178.5,-162 178.5,-110 316.5,-110 316.5,-162"/>
<text text-anchor="start" x="186.5" y="-150" font-family="Helvetica,sans-Serif" font-size="10.00">/home/amit/Projects</text>
<text text-anchor="start" x="186.5" y="-139" font-family="Helvetica,sans-Serif" font-size="10.00">/COLABFIT/colabfit&#45;kim</text>
<text text-anchor="start" x="186.5" y="-128" font-family="Helvetica,sans-Serif" font-size="10.00">&#45;model/colabfit&#45;descriptor</text>
<text text-anchor="middle" x="247.5" y="-117" font-family="Helvetica,sans-Serif" font-size="10.00">&#45;library/python_bindings.cpp</text>
</a>
</g>
</g>
<!-- Node2 -->
<g id="node2" class="node">
<title>Node2</title>
<g id="a_node2"><a xlink:title=" ">
<polygon fill="#e0e0e0" stroke="#999999" points="95,-74 0,-74 0,-55 95,-55 95,-74"/>
<text text-anchor="middle" x="47.5" y="-62" font-family="Helvetica,sans-Serif" font-size="10.00">pybind11/numpy.h</text>
</a>
</g>
</g>
<!-- Node1&#45;&gt;Node2 -->
<g id="edge1" class="edge">
<title>Node1&#45;&gt;Node2</title>
<path fill="none" stroke="#63b8ff" d="M178.39,-110.98C145.75,-99.64 108.25,-86.61 81.77,-77.41"/>
<polygon fill="#63b8ff" stroke="#63b8ff" points="82.79,-74.06 72.2,-74.08 80.5,-80.67 82.79,-74.06"/>
</g>
<!-- Node3 -->
<g id="node3" class="node">
<title>Node3</title>
<g id="a_node3"><a xlink:title=" ">
<polygon fill="#e0e0e0" stroke="#999999" points="219.5,-74 113.5,-74 113.5,-55 219.5,-55 219.5,-74"/>
<text text-anchor="middle" x="166.5" y="-62" font-family="Helvetica,sans-Serif" font-size="10.00">pybind11/pybind11.h</text>
</a>
</g>
</g>
<!-- Node1&#45;&gt;Node3 -->
<g id="edge2" class="edge">
<title>Node1&#45;&gt;Node3</title>
<path fill="none" stroke="#63b8ff" d="M218.26,-109.91C206.93,-100.19 194.32,-89.37 184.39,-80.85"/>
<polygon fill="#63b8ff" stroke="#63b8ff" points="186.63,-78.16 176.76,-74.3 182.07,-83.47 186.63,-78.16"/>
</g>
<!-- Node4 -->
<g id="node4" class="node">
<title>Node4</title>
<g id="a_node4"><a xlink:title=" ">
<polygon fill="#e0e0e0" stroke="#999999" points="265.5,-19 221.5,-19 221.5,0 265.5,0 265.5,-19"/>
<text text-anchor="middle" x="243.5" y="-7" font-family="Helvetica,sans-Serif" font-size="10.00">vector</text>
</a>
</g>
</g>
<!-- Node1&#45;&gt;Node4 -->
<g id="edge3" class="edge">
<title>Node1&#45;&gt;Node4</title>
<path fill="none" stroke="#63b8ff" d="M246.69,-109.81C245.92,-85.95 244.79,-50.69 244.1,-29.24"/>
<polygon fill="#63b8ff" stroke="#63b8ff" points="247.6,-29.03 243.78,-19.15 240.6,-29.26 247.6,-29.03"/>
</g>
<!-- Node5 -->
<g id="node5" class="node">
<title>Node5</title>
<g id="a_node5"><a xlink:title=" ">
<polygon fill="#e0e0e0" stroke="#999999" points="325,-19 284,-19 284,0 325,0 325,-19"/>
<text text-anchor="middle" x="304.5" y="-7" font-family="Helvetica,sans-Serif" font-size="10.00">string</text>
</a>
</g>
</g>
<!-- Node1&#45;&gt;Node5 -->
<g id="edge4" class="edge">
<title>Node1&#45;&gt;Node5</title>
<path fill="none" stroke="#63b8ff" d="M259.03,-109.81C270.11,-85.63 286.55,-49.72 296.33,-28.35"/>
<polygon fill="#63b8ff" stroke="#63b8ff" points="299.56,-29.7 300.54,-19.15 293.19,-26.78 299.56,-29.7"/>
</g>
<!-- Node6 -->
<g id="node6" class="node">
<title>Node6</title>
<g id="a_node6"><a xlink:href="_descriptors_8hpp.html" target="_top" xlink:title=" ">
<polygon fill="white" stroke="#666666" points="399.5,-74 313.5,-74 313.5,-55 399.5,-55 399.5,-74"/>
<text text-anchor="middle" x="356.5" y="-62" font-family="Helvetica,sans-Serif" font-size="10.00">Descriptors.hpp</text>
</a>
</g>
</g>
<!-- Node1&#45;&gt;Node6 -->
<g id="edge5" class="edge">
<title>Node1&#45;&gt;Node6</title>
<path fill="none" stroke="#63b8ff" d="M286.85,-109.91C302.81,-99.74 320.64,-88.36 334.27,-79.68"/>
<polygon fill="#63b8ff" stroke="#63b8ff" points="336.41,-82.46 342.96,-74.14 332.64,-76.56 336.41,-82.46"/>
</g>
<!-- Node6&#45;&gt;Node4 -->
<g id="edge8" class="edge">
<title>Node6&#45;&gt;Node4</title>
<path fill="none" stroke="#63b8ff" d="M338.34,-54.98C320.25,-46.5 292.22,-33.35 271.31,-23.54"/>
<polygon fill="#63b8ff" stroke="#63b8ff" points="272.53,-20.25 261.99,-19.17 269.55,-26.59 272.53,-20.25"/>
</g>
<!-- Node6&#45;&gt;Node5 -->
<g id="edge7" class="edge">
<title>Node6&#45;&gt;Node5</title>
<path fill="none" stroke="#63b8ff" d="M347.91,-54.75C340.34,-47.03 329.12,-35.6 319.99,-26.28"/>
<polygon fill="#63b8ff" stroke="#63b8ff" points="322.43,-23.78 312.93,-19.09 317.43,-28.68 322.43,-23.78"/>
</g>
<!-- Node7 -->
<g id="node7" class="node">
<title>Node7</title>
<g id="a_node7"><a xlink:title=" ">
<polygon fill="#e0e0e0" stroke="#999999" points="378,-19 343,-19 343,0 378,0 378,-19"/>
<text text-anchor="middle" x="360.5" y="-7" font-family="Helvetica,sans-Serif" font-size="10.00">map</text>
</a>
</g>
</g>
<!-- Node6&#45;&gt;Node7 -->
<g id="edge6" class="edge">
<title>Node6&#45;&gt;Node7</title>
<path fill="none" stroke="#63b8ff" d="M357.16,-54.75C357.68,-47.8 358.44,-37.85 359.09,-29.13"/>
<polygon fill="#63b8ff" stroke="#63b8ff" points="362.59,-29.32 359.85,-19.09 355.61,-28.8 362.59,-29.32"/>
</g>
<!-- Node8 -->
<g id="node8" class="node">
<title>Node8</title>
<g id="a_node8"><a xlink:title=" ">
<polygon fill="#e0e0e0" stroke="#999999" points="455,-19 396,-19 396,0 455,0 455,-19"/>
<text text-anchor="middle" x="425.5" y="-7" font-family="Helvetica,sans-Serif" font-size="10.00">stdexcept</text>
</a>
</g>
</g>
<!-- Node6&#45;&gt;Node8 -->
<g id="edge9" class="edge">
<title>Node6&#45;&gt;Node8</title>
<path fill="none" stroke="#63b8ff" d="M367.59,-54.98C377.99,-47 393.76,-34.88 406.22,-25.31"/>
<polygon fill="#63b8ff" stroke="#63b8ff" points="408.41,-28.04 414.21,-19.17 404.15,-22.49 408.41,-28.04"/>
</g>
</g>
</svg>
